<svg width="58" height="52" viewBox="0 0 58 52" fill="none" xmlns="http://www.w3.org/2000/svg">
<path d="M3 30.0364C4.3364 33.7372 5.6728 37.438 7.79733 40.7276C9.95613 44.0172 13.0059 46.8613 16.7409 47.9921C18.4885 48.5061 20.3047 48.6432 22.1208 48.6089C23.7656 48.5404 25.4447 48.3348 27.0209 47.7865C32.0581 46.0389 35.5876 41.1388 36.6499 35.896C37.7121 30.6532 36.5471 25.2048 34.4568 20.3047C33.1204 17.1864 30.6875 13.8283 27.3293 14.0339C25.3419 14.1709 23.6285 15.6101 22.7033 17.392C21.7781 19.1739 21.5383 21.1956 21.504 23.2173C21.4697 24.9649 21.5725 26.8153 22.3607 28.3916C23.2859 30.2763 25.0677 31.6127 26.9524 32.5036C29.6595 33.7715 32.6407 34.2512 35.6219 34.4911C39.8024 34.8337 44.2571 34.5939 47.7523 32.298C49.9453 30.8588 51.6244 28.6657 52.7209 26.2671C56.3875 18.3857 53.7147 8.10573 46.69 3" stroke="url(#paint0_linear_110_1672)" stroke-width="5.44018" stroke-miterlimit="10"/>
<defs>
<linearGradient id="paint0_linear_110_1672" x1="28.7411" y1="51.316" x2="28.7411" y2="0.779519" gradientUnits="userSpaceOnUse">
<stop stop-color="#BF35D1"/>
<stop offset="1" stop-color="#FF5160"/>
</linearGradient>
</defs>
</svg>
