<svg width="96" height="71" viewBox="0 0 96 71" fill="none" xmlns="http://www.w3.org/2000/svg">
<path d="M1 3C11.8968 5.94693 24.0615 9.81907 29.1329 19.9277C30.7777 23.2173 31.4973 26.9181 31.8743 30.5847C32.2855 34.7652 32.1484 39.2884 29.8868 42.8179C27.6252 46.3816 22.588 48.4033 19.0243 46.176C14.7067 43.4689 15.3235 36.7527 18.1333 32.5036C23.6503 24.1768 35.7464 21.0585 44.5872 25.6845C49.8643 28.4259 53.7364 33.4631 55.8609 39.0143C57.9855 44.5655 58.5337 50.6307 58.2939 56.5588C58.1568 59.7113 57.7113 63.1037 55.6553 65.5024C53.5651 67.9011 49.3503 68.6207 47.3285 66.1877C46.7117 65.4339 46.3691 64.4401 46.1292 63.4807C44.2788 55.428 49.9328 46.8956 57.6085 43.8116C65.2843 40.7276 74.2279 42.3381 81.5267 46.176C86.9751 49.0544 92.1836 53.9203 92.3549 60.0883" stroke="url(#paint0_linear_110_1674)" stroke-width="5.97062" stroke-miterlimit="10"/>
<defs>
<linearGradient id="paint0_linear_110_1674" x1="0.235853" y1="35.3683" x2="95.3087" y2="35.3683" gradientUnits="userSpaceOnUse">
<stop stop-color="#7C48E8"/>
<stop offset="1" stop-color="#A267FF"/>
</linearGradient>
</defs>
</svg>
