<svg width="60" height="88" viewBox="0 0 60 88" fill="none" xmlns="http://www.w3.org/2000/svg">
<path d="M56.7273 1C54.8769 10.8003 52.2383 21.7313 43.6716 26.8713C40.896 28.5504 37.675 29.4071 34.4882 29.9553C30.8216 30.5721 26.8467 30.7777 23.5914 28.9959C20.336 27.2483 18.2115 22.9307 19.9248 19.6411C22.0494 15.6661 27.9775 15.7689 31.8839 17.962C39.5597 22.2796 43.0891 32.6967 39.5939 40.7836C37.5037 45.6152 33.3574 49.316 28.5943 51.5776C23.8655 53.8392 18.5542 54.6959 13.3114 54.8672C10.5015 54.97 7.52031 54.7987 5.25871 53.1196C2.99711 51.4405 2.1062 47.774 4.12793 45.8551C4.779 45.2383 5.60139 44.8956 6.42379 44.6215C13.3799 42.4627 21.2612 46.8831 24.4823 53.4623C27.7034 60.0415 26.881 67.9913 23.9683 74.6733C21.7752 79.642 17.8346 84.5421 12.4205 85.0904" stroke="url(#paint0_linear_110_1666)" stroke-width="5.26884" stroke-miterlimit="10"/>
<defs>
<linearGradient id="paint0_linear_110_1666" x1="28.4452" y1="2.50259" x2="34.6541" y2="86.171" gradientUnits="userSpaceOnUse">
<stop stop-color="#F8A57F"/>
<stop offset="1" stop-color="#FEE2C5"/>
</linearGradient>
</defs>
</svg>
