<svg width="56" height="80" viewBox="0 0 56 80" fill="none" xmlns="http://www.w3.org/2000/svg">
<path d="M45.8559 3.45658C38.7284 1.26351 30.8471 7.29445 29.4764 14.6275C28.1058 21.9606 32.0121 29.4992 37.7689 34.2623C40.2361 36.3183 43.2859 38.0316 46.4727 37.8603C49.6937 37.689 52.9148 35.0505 52.7092 31.8294C52.4693 28.2657 48.6315 26.1754 45.2734 24.976C40.7844 23.3655 36.0213 22.0976 31.2583 22.5431C26.4952 22.9886 21.6979 25.3872 19.4706 29.602C18.237 31.9322 17.86 34.6393 17.7229 37.2778C17.5173 41.6639 17.9971 46.1186 19.7447 50.1278C21.4923 54.137 24.6105 57.6664 28.6883 59.277C30.9841 60.2022 33.9311 60.3735 35.7472 58.6945C36.7752 57.735 37.2892 56.2958 37.392 54.8908C37.7689 50.539 34.8906 46.427 31.1898 44.1311C27.4889 41.8353 23.0343 41.1157 18.6824 40.7045C15.9753 40.4303 13.0627 40.2932 10.664 41.5268C8.53949 42.6234 7.03176 44.6451 5.90096 46.7696C2.40576 53.2803 1.85747 61.5729 5.4212 68.0493C9.0192 74.5257 17.1061 78.4663 24.1993 76.3418" stroke="url(#paint0_linear_110_1668)" stroke-width="5.97062" stroke-miterlimit="10"/>
<defs>
<linearGradient id="paint0_linear_110_1668" x1="0.00707948" y1="39.9574" x2="55.6904" y2="39.9574" gradientUnits="userSpaceOnUse">
<stop stop-color="#BF35D1"/>
<stop offset="1" stop-color="#FF5160"/>
</linearGradient>
</defs>
</svg>
