<svg width="65" height="58" viewBox="0 0 65 58" fill="none" xmlns="http://www.w3.org/2000/svg">
<path d="M6.73777 54.8905C3.20831 51.9093 2.96844 46.6665 3.00271 42.0747C3.03697 38.8537 3.03698 35.6326 3.07124 32.4115C3.07124 30.7325 3.10551 29.0191 3.75658 27.4429C5.40138 23.5022 10.3358 22.2343 14.5848 22.0973C19.2794 21.9602 24.0082 22.6113 28.5314 24.0162C33.4658 25.5582 39.5652 27.7513 43.1632 24.0162C44.8423 22.3029 45.2878 19.8014 45.836 17.4713C46.8298 13.2907 48.3718 9.07594 51.49 6.129C54.6083 3.18207 59.6112 1.91419 63.2778 4.10725" stroke="url(#paint0_linear_110_1678)" stroke-width="5.97062" stroke-miterlimit="10"/>
<defs>
<linearGradient id="paint0_linear_110_1678" x1="0.0112281" y1="28.5805" x2="64.7787" y2="28.5805" gradientUnits="userSpaceOnUse">
<stop stop-color="#5DC6F3"/>
<stop offset="1" stop-color="#367BF2"/>
</linearGradient>
</defs>
</svg>
