<svg width="41" height="40" viewBox="0 0 41 40" fill="none" xmlns="http://www.w3.org/2000/svg">
<path d="M31.7814 37.5187C35.2263 37.5187 38.0189 34.7261 38.0189 31.2812C38.0189 27.8363 35.2263 25.0437 31.7814 25.0437C28.3366 25.0437 25.5439 27.8363 25.5439 31.2812C25.5439 34.7261 28.3366 37.5187 31.7814 37.5187Z" stroke="#00B5B0" stroke-linecap="round" stroke-linejoin="round"/>
<path d="M28.4248 30.8313L31.7811 28.15L35.1311 30.8313" stroke="#00B5B0" stroke-linecap="round" stroke-linejoin="round"/>
<path d="M30.9375 34.4125V31.825H32.625V34.4125" stroke="#00B5B0" stroke-linecap="round" stroke-linejoin="round"/>
<path d="M29.3188 30.2312V34.4125H34.2376V30.2312" stroke="#00B5B0" stroke-linecap="round" stroke-linejoin="round"/>
<path d="M30.0498 29.4187V28.2562" stroke="#00B5B0" stroke-width="2" stroke-linecap="round" stroke-linejoin="round"/>
<path d="M12.0625 19.6875C16.7224 19.6875 20.5 15.9099 20.5 11.25C20.5 6.5901 16.7224 2.8125 12.0625 2.8125C7.4026 2.8125 3.625 6.5901 3.625 11.25C3.625 15.9099 7.4026 19.6875 12.0625 19.6875Z" fill="#E5F8F7"/>
<path d="M20.5 25.0312C20.5 25.0312 15.6125 24.6562 14.525 19.675C13.575 19.3875 10.9563 14.7375 13.275 14.6C12.9375 11.875 12.5125 5.25 20.5 5.25H24.875" stroke="#00B5B0" stroke-linecap="round" stroke-linejoin="round"/>
<path d="M20.5 25.0313C20.5 25.0313 25.3875 24.6563 26.4812 19.675C27.425 19.3875 30.05 14.7375 27.7312 14.6C27.9562 12.6625 28.4937 9.18752 25.2312 7.83752" stroke="#00B5B0" stroke-linecap="round" stroke-linejoin="round"/>
<path d="M13.1812 27.8625C13.9499 27.6375 14.4312 27.5125 14.4312 27.5125L15.6812 25.0125L20.4999 28.5937" stroke="#00B5B0" stroke-linecap="round" stroke-linejoin="round"/>
<path d="M3.62493 36.5625C3.62493 36.5625 3.34993 33.6937 4.94993 31.6062" stroke="#00B5B0" stroke-linecap="round" stroke-linejoin="round"/>
<path d="M25.8875 26.1L25.325 25.0312L20.5 28.5875L23.1938 31.8063" stroke="#00B5B0" stroke-linecap="round" stroke-linejoin="round"/>
<path d="M17.2749 9.22498C17.4427 9.59816 17.7149 9.91479 18.0587 10.1366C18.4025 10.3584 18.8032 10.4759 19.2124 10.475H22.5874C23.02 10.4796 23.4408 10.6161 23.7938 10.8662C24.1467 11.1164 24.4148 11.4683 24.5624 11.875V11.9562" stroke="#00B5B0" stroke-width="2" stroke-linecap="round" stroke-linejoin="round"/>
<path d="M20.5002 28.5875L17.8877 32.1937L14.4502 27.5125" stroke="#00B5B0" stroke-linecap="round" stroke-linejoin="round"/>
<path d="M19.0063 30.65L20.5751 32.4938L22.1501 30.5625" stroke="#00B5B0" stroke-linecap="round" stroke-linejoin="round"/>
<path d="M20.5751 32.4938L18.1626 36.5625" stroke="#00B5B0" stroke-linecap="round" stroke-linejoin="round"/>
<path d="M20.5 32.4938L22.9062 36.5625" stroke="#00B5B0" stroke-linecap="round" stroke-linejoin="round"/>
<path d="M11.9375 25.8499C11.9377 25.2052 11.7614 24.5728 11.4277 24.0211C11.094 23.4695 10.6157 23.0198 10.0445 22.7207C9.47341 22.4216 8.8313 22.2845 8.18782 22.3244C7.54435 22.3643 6.92407 22.5795 6.39425 22.9469C5.86443 23.3142 5.44528 23.8196 5.18225 24.4082C4.91922 24.9968 4.82236 25.6462 4.90215 26.286C4.98195 26.9257 5.23537 27.5314 5.63492 28.0374C6.03448 28.5433 6.56493 28.9303 7.16875 29.1562V32.6374L7.925 33.3937L6.9875 34.3312L9.09375 36.4374C9.15318 36.4967 9.22882 36.537 9.31112 36.5533C9.39343 36.5696 9.47872 36.5612 9.55625 36.5291C9.63378 36.497 9.70008 36.4427 9.7468 36.373C9.79351 36.3033 9.81855 36.2213 9.81875 36.1374V29.0874C10.4477 28.8112 10.9828 28.3582 11.359 27.7834C11.7351 27.2086 11.9361 26.5369 11.9375 25.8499Z" stroke="#00B5B0" stroke-linecap="round" stroke-linejoin="round"/>
<circle cx="8.40625" cy="24.5875" r="0.625" fill="#00B5B0"/>
<circle cx="17.75" cy="15.4938" r="0.625" fill="#00B5B0"/>
<circle cx="22.9814" cy="15.4938" r="0.625" fill="#00B5B0"/>
<path d="M18.9438 20.1C19.9438 21.25 21.2563 21.0312 22.2501 20.1" stroke="#00B5B0" stroke-width="2" stroke-linecap="round" stroke-linejoin="round"/>
</svg>
