<svg width="31" height="31" viewBox="0 0 31 31" fill="none" xmlns="http://www.w3.org/2000/svg">
<path d="M7.33519 22.0895C8.38612 22.7916 9.84911 22.7916 12.7751 22.7916H19.0251C21.951 22.7916 23.414 22.7916 24.465 22.0895C24.9199 21.7854 25.3105 21.3948 25.6145 20.9399C26.3167 19.8889 26.3167 18.4259 26.3167 15.5C26.3167 12.574 26.3167 11.111 25.6145 10.0601C25.3105 9.60515 24.9199 9.21451 24.465 8.91052C23.414 8.20831 21.951 8.20831 19.0251 8.20831H12.7751C9.84911 8.20831 8.38612 8.20831 7.33519 8.91052C6.88023 9.21452 6.48961 9.60515 6.18561 10.0601C5.4834 11.111 5.4834 12.574 5.4834 15.5C5.4834 18.4259 5.4834 19.8889 6.18561 20.9399C6.48961 21.3948 6.88023 21.7854 7.33519 22.0895Z" fill="url(#paint0_linear_222_10540)"/>
<path opacity="0.8" d="M9.12891 19.4062C8.69744 19.4062 8.34766 19.0565 8.34766 18.625V12.375C8.34766 11.9435 8.69744 11.5938 9.12891 11.5938C9.56037 11.5938 9.91016 11.9435 9.91016 12.375V18.625C9.91016 19.0565 9.56037 19.4062 9.12891 19.4062Z" fill="white"/>
<path opacity="0.8" d="M21.8896 18.625C21.8896 19.0565 22.2394 19.4062 22.6709 19.4062C23.1024 19.4062 23.4521 19.0565 23.4521 18.625V12.375C23.4521 11.9435 23.1024 11.5938 22.6709 11.5938C22.2394 11.5938 21.8896 11.9435 21.8896 12.375V18.625Z" fill="white"/>
<path opacity="0.8" fill-rule="evenodd" clip-rule="evenodd" d="M11.9937 15.5C11.9937 17.6574 13.7425 19.4062 15.8999 19.4062C18.0573 19.4062 19.8062 17.6574 19.8062 15.5C19.8062 13.3426 18.0573 11.5938 15.8999 11.5938C13.7425 11.5938 11.9937 13.3426 11.9937 15.5ZM13.5562 15.5C13.5562 16.7944 14.6055 17.8437 15.8999 17.8437C17.1943 17.8437 18.2437 16.7944 18.2437 15.5C18.2437 14.2056 17.1943 13.1562 15.8999 13.1562C14.6055 13.1562 13.5562 14.2056 13.5562 15.5Z" fill="white"/>
<defs>
<linearGradient id="paint0_linear_222_10540" x1="15.9001" y1="8.20831" x2="15.9001" y2="22.7916" gradientUnits="userSpaceOnUse">
<stop stop-color="#FFDA31"/>
<stop offset="1" stop-color="#FF9500"/>
</linearGradient>
</defs>
</svg>
