<svg width="12" height="13" viewBox="0 0 12 13" fill="none" xmlns="http://www.w3.org/2000/svg">
<path d="M11.25 5.47438H9.65625V5.38063C9.65625 5.30604 9.62662 5.2345 9.57387 5.18176C9.52113 5.12901 9.44959 5.09938 9.375 5.09938H6.375C6.30041 5.09938 6.22887 5.12901 6.17613 5.18176C6.12338 5.2345 6.09375 5.30604 6.09375 5.38063V5.47438H2.90625V3.31813C2.90625 3.14409 2.97539 2.97717 3.09846 2.85409C3.22153 2.73102 3.38845 2.66188 3.5625 2.66188C3.71588 2.6616 3.86482 2.71331 3.98503 2.80857C4.10524 2.90384 4.18961 3.03703 4.22438 3.18641C4.23118 3.22311 4.24522 3.25808 4.26568 3.28929C4.28614 3.3205 4.3126 3.34733 4.34353 3.36821C4.37446 3.38909 4.40924 3.40361 4.44584 3.41092C4.48243 3.41822 4.52012 3.41818 4.55669 3.41077C4.59327 3.40337 4.62801 3.38876 4.65889 3.3678C4.68976 3.34684 4.71616 3.31994 4.73653 3.28868C4.75691 3.25741 4.77086 3.2224 4.77757 3.18569C4.78428 3.14898 4.78362 3.1113 4.77562 3.07485C4.71628 2.79763 4.56326 2.5493 4.34233 2.37164C4.12139 2.19399 3.846 2.09784 3.5625 2.09938C3.23927 2.09938 2.92927 2.22779 2.70071 2.45635C2.47215 2.68491 2.34375 2.9949 2.34375 3.31813V5.47438H0.75C0.675408 5.47438 0.603871 5.50401 0.551126 5.55676C0.498382 5.6095 0.46875 5.68104 0.46875 5.75563V7.63063C0.469494 8.30173 0.736418 8.94514 1.21096 9.41968C1.6855 9.89422 2.3289 10.1611 3 10.1619H3.09375V11.0056C3.09375 11.0802 3.12338 11.1518 3.17613 11.2045C3.22887 11.2573 3.30041 11.2869 3.375 11.2869C3.44959 11.2869 3.52113 11.2573 3.57387 11.2045C3.62662 11.1518 3.65625 11.0802 3.65625 11.0056V10.1619H8.34375V11.0056C8.34375 11.0802 8.37338 11.1518 8.42613 11.2045C8.47887 11.2573 8.55041 11.2869 8.625 11.2869C8.69959 11.2869 8.77113 11.2573 8.82387 11.2045C8.87662 11.1518 8.90625 11.0802 8.90625 11.0056V10.1619H9C9.6711 10.1611 10.3145 9.89422 10.789 9.41968C11.2636 8.94514 11.5305 8.30173 11.5312 7.63063V5.75563C11.5312 5.68104 11.5016 5.6095 11.4489 5.55676C11.3961 5.50401 11.3246 5.47438 11.25 5.47438ZM6.65625 5.66188H9.09375V7.34938H6.65625V5.66188ZM10.9688 7.63063C10.9688 8.15278 10.7613 8.65354 10.3921 9.02275C10.0229 9.39196 9.52215 9.59938 9 9.59938H3C2.47785 9.59938 1.9771 9.39196 1.60788 9.02275C1.23867 8.65354 1.03125 8.15278 1.03125 7.63063V6.03688H6.09375V7.63063C6.09375 7.70522 6.12338 7.77676 6.17613 7.82951C6.22887 7.88225 6.30041 7.91188 6.375 7.91188H9.375C9.44959 7.91188 9.52113 7.88225 9.57387 7.82951C9.62662 7.77676 9.65625 7.70522 9.65625 7.63063V6.03688H10.9688V7.63063Z" fill="#828282"/>
</svg>
