<svg width="12" height="13" viewBox="0 0 12 13" fill="none" xmlns="http://www.w3.org/2000/svg">
<path d="M10.125 4.34937H1.40625V3.13062C1.40625 3.05602 1.37662 2.98449 1.32387 2.93174C1.27113 2.879 1.19959 2.84937 1.125 2.84937C1.05041 2.84937 0.978871 2.879 0.926126 2.93174C0.873382 2.98449 0.84375 3.05602 0.84375 3.13062V10.6306C0.84375 10.7052 0.873382 10.7767 0.926126 10.8295C0.978871 10.8822 1.05041 10.9119 1.125 10.9119C1.19959 10.9119 1.27113 10.8822 1.32387 10.8295C1.37662 10.7767 1.40625 10.7052 1.40625 10.6306V9.03687H11.3438V10.6306C11.3438 10.7052 11.3734 10.7767 11.4261 10.8295C11.4789 10.8822 11.5504 10.9119 11.625 10.9119C11.6996 10.9119 11.7711 10.8822 11.8239 10.8295C11.8766 10.7767 11.9062 10.7052 11.9062 10.6306V6.13062C11.9062 5.6582 11.7186 5.20513 11.3845 4.87108C11.0505 4.53703 10.5974 4.34937 10.125 4.34937ZM1.40625 4.91187H4.96875V8.47437H1.40625V4.91187ZM5.53125 8.47437V4.91187H10.125C10.4482 4.91187 10.7582 5.04027 10.9868 5.26883C11.2153 5.49739 11.3438 5.80738 11.3438 6.13062V8.47437H5.53125Z" fill="#828282"/>
</svg>
