<svg width="32" height="31" viewBox="0 0 32 31" fill="none" xmlns="http://www.w3.org/2000/svg">
<path d="M6.29531 4.14017C4.52343 7.1918 6.29531 13.1761 6.29531 13.1761H24.8244C24.8244 13.1761 27.2595 6.28214 24.8244 3.28236C24.1862 2.49612 23.7622 2.06391 22.88 1.56669C21.851 0.986745 20.7642 0.765991 19.9634 0.765991C19.1626 0.765991 11.7855 0.766387 10.8131 0.765991C9.84076 0.765596 9.03714 1.22433 8.12524 1.90974C7.2246 2.58668 6.86105 3.16583 6.29531 4.14017Z" fill="#00B5B0" stroke="#00B5B0" stroke-linecap="round"/>
<g filter="url(#filter0_d_222_10519)">
<path d="M26.8992 14.9716V17.8957C26.8992 19.2983 24.8788 19.6964 24.8788 19.6964H19.6129C18.5835 19.6964 18.1832 21.069 18.1832 21.069V24.0428C18.1832 24.0428 18.1832 25.7035 15.381 25.6441C12.5787 25.5847 12.6359 24.0428 12.6359 24.0428V21.069C12.6359 21.069 12.4643 19.6964 11.0918 19.6964H6.57386C6.57386 19.6964 4.51514 19.6964 4.51514 18.667V14.9716C4.51514 14.9716 4.62965 13.5908 6.17366 13.5929C7.71766 13.595 23.7966 13.5929 24.8788 13.5929C25.9609 13.5929 26.8992 13.9619 26.8992 14.9716Z" fill="#00B5B0"/>
<path d="M26.8992 14.9716V17.8957C26.8992 19.2983 24.8788 19.6964 24.8788 19.6964H19.6129C18.5835 19.6964 18.1832 21.069 18.1832 21.069V24.0428C18.1832 24.0428 18.1832 25.7035 15.381 25.6441C12.5787 25.5847 12.6359 24.0428 12.6359 24.0428V21.069C12.6359 21.069 12.4643 19.6964 11.0918 19.6964H6.57386C6.57386 19.6964 4.51514 19.6964 4.51514 18.667V14.9716C4.51514 14.9716 4.62965 13.5908 6.17366 13.5929C7.71766 13.595 23.7966 13.5929 24.8788 13.5929C25.9609 13.5929 26.8992 13.9619 26.8992 14.9716Z" stroke="#00B5B0" stroke-linecap="round"/>
</g>
<path d="M22.1147 4.77209L22.1147 10.774" stroke="white" stroke-linecap="round"/>
<defs>
<filter id="filter0_d_222_10519" x="0.0151367" y="9.0929" width="31.3843" height="21.0527" filterUnits="userSpaceOnUse" color-interpolation-filters="sRGB">
<feFlood flood-opacity="0" result="BackgroundImageFix"/>
<feColorMatrix in="SourceAlpha" type="matrix" values="0 0 0 0 0 0 0 0 0 0 0 0 0 0 0 0 0 0 127 0" result="hardAlpha"/>
<feOffset/>
<feGaussianBlur stdDeviation="2"/>
<feComposite in2="hardAlpha" operator="out"/>
<feColorMatrix type="matrix" values="0 0 0 0 0 0 0 0 0 0 0 0 0 0 0 0 0 0 0.15 0"/>
<feBlend mode="normal" in2="BackgroundImageFix" result="effect1_dropShadow_222_10519"/>
<feBlend mode="normal" in="SourceGraphic" in2="effect1_dropShadow_222_10519" result="shape"/>
</filter>
</defs>
</svg>
