<svg width="31" height="30" viewBox="0 0 31 30" fill="none" xmlns="http://www.w3.org/2000/svg">
<path fill-rule="evenodd" clip-rule="evenodd" d="M10.2918 7.70831H14.4585C16.4227 7.70831 17.4047 7.70831 18.015 8.31851C18.6252 8.9287 18.6252 9.91079 18.6252 11.875V24.6354H20.1877H24.8752H25.9168C26.3483 24.6354 26.6981 24.9852 26.6981 25.4166C26.6981 25.8481 26.3483 26.1979 25.9168 26.1979H5.0835C4.65203 26.1979 4.30225 25.8481 4.30225 25.4166C4.30225 24.9852 4.65203 24.6354 5.0835 24.6354H6.12516V11.875C6.12516 9.91079 6.12516 8.9287 6.73536 8.31851C7.34555 7.70831 8.32764 7.70831 10.2918 7.70831Z" fill="url(#paint0_linear_222_11102)"/>
<path d="M18.6248 4.58331H20.7081C22.6723 4.58331 23.6544 4.58331 24.2646 5.19351C24.8748 5.8037 24.8748 6.78579 24.8748 8.74998V24.6354H18.6248V11.875C18.6248 9.91079 18.6248 8.9287 18.0146 8.31851C17.4181 7.72205 16.4663 7.70863 14.5894 7.70832V6.1458C14.6772 5.74243 14.8237 5.43809 15.0683 5.19351C15.6784 4.58331 16.6606 4.58331 18.6248 4.58331Z" fill="url(#paint1_linear_222_11102)"/>
<defs>
<linearGradient id="paint0_linear_222_11102" x1="4.30225" y1="16.9531" x2="26.6981" y2="16.9531" gradientUnits="userSpaceOnUse">
<stop stop-color="#FF2B2B" stop-opacity="0.9"/>
<stop offset="1" stop-color="#FFCCCC"/>
</linearGradient>
<linearGradient id="paint1_linear_222_11102" x1="14.5894" y1="14.6094" x2="24.8748" y2="14.6094" gradientUnits="userSpaceOnUse">
<stop stop-color="#FC7373"/>
<stop offset="1" stop-color="#EF3C3C"/>
</linearGradient>
</defs>
</svg>
