<svg width="41" height="42" viewBox="0 0 41 42" fill="none" xmlns="http://www.w3.org/2000/svg">
    <g clip-path="url(#clip0_222_4182)">
        <path
            d="M29.6931 18.0211C29.6291 11.2945 24.1517 6.04138 17.6174 6.04138C10.9228 6.04138 5.60564 11.4547 5.54158 18.0211C5.47752 24.7156 10.8908 30.1929 17.6174 30.1929C19.7314 30.1929 21.8455 29.6484 23.7353 28.5273L30.1736 34.9656C31.3588 36.1508 33.2806 36.1508 34.4658 34.9656C35.651 33.7804 35.651 31.8586 34.4658 30.6734L28.0275 24.2351C29.0845 22.4414 29.7252 20.2633 29.6931 18.0211ZM17.8095 29.0718C14.0619 29.1359 10.4424 27.2781 8.3283 23.9468C12.2681 23.9468 26.8744 23.9468 26.9064 23.9468C24.9205 27.1179 21.4291 29.0078 17.8095 29.0718ZM19.2189 17.8289H16.0158C15.6955 17.8289 15.4392 18.0851 15.4392 18.4054V22.7937H13.133V16.8359C13.5814 16.4515 11.4674 18.1812 17.6174 13.2164L22.1017 16.8359V22.7937H19.7955V18.4054C19.7635 18.0851 19.5392 17.8289 19.2189 17.8289ZM18.6744 18.95V22.7937H16.5924V18.95H18.6744ZM33.665 31.4742C34.4017 32.2109 34.4017 33.4281 33.665 34.1648C32.9283 34.9015 31.7111 34.9015 30.9744 34.1648L24.6963 27.8867C25.7213 27.15 26.6502 26.2211 27.3869 25.1961L33.665 31.4742ZM27.515 22.7937H23.2228V17.7328L24.0236 18.3734C24.2799 18.5656 24.6322 18.5336 24.8244 18.2773C25.0166 18.0211 24.9845 17.6687 24.7283 17.4765C24.7283 17.4765 18.1619 12.1914 17.9697 12.0633C17.7455 11.8711 17.5213 11.839 17.265 12.0633C17.1049 12.1914 11.2111 16.932 10.5064 17.4765C10.2502 17.6687 10.2181 18.0211 10.4103 18.2773C10.6025 18.5336 10.9549 18.5656 11.2111 18.3734L12.0119 17.7328V22.7937H7.68767C6.95095 21.2562 6.63064 19.6226 6.63064 17.989C6.6947 11.9031 11.6595 7.13044 17.5853 7.13044C23.6713 7.16248 28.508 12.0312 28.572 18.0211C28.6041 19.6547 28.2517 21.2883 27.515 22.7937Z"
            fill="currentColor" />
    </g>
    <defs>
        <clipPath id="clip0_222_4182">
            <rect width="41" height="41" fill="white" transform="translate(0 0.5)" />
        </clipPath>
    </defs>
</svg>