<svg width="25" height="24" viewBox="0 0 25 24" fill="none" xmlns="http://www.w3.org/2000/svg">
<path d="M7.77378 2C8.18964 2 8.52676 2.32421 8.52676 2.72414V4.18487C9.19467 4.17241 9.94333 4.17241 10.7857 4.17241H14.8016C15.6439 4.17241 16.3926 4.17241 17.0605 4.18487V2.72414C17.0605 2.32421 17.3976 2 17.8135 2C18.2293 2 18.5665 2.32421 18.5665 2.72414V4.24894C20.0115 4.36022 20.9602 4.63333 21.6571 5.30359C22.3541 5.97385 22.6381 6.88616 22.7538 8.27586L22.8335 9H3.75806H2.8335V8.27586C2.94921 6.88616 3.2332 5.97385 3.93015 5.30359C4.62711 4.63333 5.57576 4.36022 7.0208 4.24894V2.72414C7.0208 2.32421 7.35792 2 7.77378 2Z" fill="url(#paint0_linear_542_3163)"/>
<path opacity="0.5" d="M22.8329 14.0001V12.0001C22.8329 11.161 22.8297 9.66527 22.8168 9H2.84253C2.82962 9.66527 2.83289 11.161 2.83289 12.0001V14.0001C2.83289 17.7713 2.83289 19.6569 4.00446 20.8285C5.17603 22.0001 7.06165 22.0001 10.8329 22.0001H14.8329C18.6042 22.0001 20.4898 22.0001 21.6614 20.8285C22.8329 19.6569 22.8329 17.7713 22.8329 14.0001Z" fill="url(#paint1_linear_542_3163)"/>
<path d="M18.8335 17C18.8335 17.5523 18.3858 18 17.8335 18C17.2812 18 16.8335 17.5523 16.8335 17C16.8335 16.4477 17.2812 16 17.8335 16C18.3858 16 18.8335 16.4477 18.8335 17Z" fill="url(#paint2_linear_542_3163)"/>
<path d="M18.8335 13C18.8335 13.5523 18.3858 14 17.8335 14C17.2812 14 16.8335 13.5523 16.8335 13C16.8335 12.4477 17.2812 12 17.8335 12C18.3858 12 18.8335 12.4477 18.8335 13Z" fill="url(#paint3_linear_542_3163)"/>
<path d="M13.8335 17C13.8335 17.5523 13.3858 18 12.8335 18C12.2812 18 11.8335 17.5523 11.8335 17C11.8335 16.4477 12.2812 16 12.8335 16C13.3858 16 13.8335 16.4477 13.8335 17Z" fill="url(#paint4_linear_542_3163)"/>
<path d="M13.8335 13C13.8335 13.5523 13.3858 14 12.8335 14C12.2812 14 11.8335 13.5523 11.8335 13C11.8335 12.4477 12.2812 12 12.8335 12C13.3858 12 13.8335 12.4477 13.8335 13Z" fill="url(#paint5_linear_542_3163)"/>
<path d="M8.8335 17C8.8335 17.5523 8.38578 18 7.8335 18C7.28122 18 6.8335 17.5523 6.8335 17C6.8335 16.4477 7.28122 16 7.8335 16C8.38578 16 8.8335 16.4477 8.8335 17Z" fill="url(#paint6_linear_542_3163)"/>
<path d="M8.8335 13C8.8335 13.5523 8.38578 14 7.8335 14C7.28122 14 6.8335 13.5523 6.8335 13C6.8335 12.4477 7.28122 12 7.8335 12C8.38578 12 8.8335 12.4477 8.8335 13Z" fill="url(#paint7_linear_542_3163)"/>
<defs>
<linearGradient id="paint0_linear_542_3163" x1="12.8335" y1="2" x2="12.8335" y2="9" gradientUnits="userSpaceOnUse">
<stop stop-color="#7BCF94"/>
<stop offset="1" stop-color="#0091DA"/>
</linearGradient>
<linearGradient id="paint1_linear_542_3163" x1="12.8327" y1="9" x2="12.8327" y2="22.0001" gradientUnits="userSpaceOnUse">
<stop stop-color="#7BCF94"/>
<stop offset="1" stop-color="#0091DA"/>
</linearGradient>
<linearGradient id="paint2_linear_542_3163" x1="17.8335" y1="16" x2="17.8335" y2="18" gradientUnits="userSpaceOnUse">
<stop stop-color="#7BCF94"/>
<stop offset="1" stop-color="#0091DA"/>
</linearGradient>
<linearGradient id="paint3_linear_542_3163" x1="17.8335" y1="12" x2="17.8335" y2="14" gradientUnits="userSpaceOnUse">
<stop stop-color="#7BCF94"/>
<stop offset="1" stop-color="#0091DA"/>
</linearGradient>
<linearGradient id="paint4_linear_542_3163" x1="12.8335" y1="16" x2="12.8335" y2="18" gradientUnits="userSpaceOnUse">
<stop stop-color="#7BCF94"/>
<stop offset="1" stop-color="#0091DA"/>
</linearGradient>
<linearGradient id="paint5_linear_542_3163" x1="12.8335" y1="12" x2="12.8335" y2="14" gradientUnits="userSpaceOnUse">
<stop stop-color="#7BCF94"/>
<stop offset="1" stop-color="#0091DA"/>
</linearGradient>
<linearGradient id="paint6_linear_542_3163" x1="7.8335" y1="16" x2="7.8335" y2="18" gradientUnits="userSpaceOnUse">
<stop stop-color="#7BCF94"/>
<stop offset="1" stop-color="#0091DA"/>
</linearGradient>
<linearGradient id="paint7_linear_542_3163" x1="7.8335" y1="12" x2="7.8335" y2="14" gradientUnits="userSpaceOnUse">
<stop stop-color="#7BCF94"/>
<stop offset="1" stop-color="#0091DA"/>
</linearGradient>
</defs>
</svg>
