<svg width="33" height="33" viewBox="0 0 33 33" fill="none" xmlns="http://www.w3.org/2000/svg">
<path d="M4.95488 27.442C6.9075 29.3947 10.0502 29.3947 16.3356 29.3947C22.6209 29.3947 25.7637 29.3947 27.7163 27.442C29.6689 25.4895 29.6689 22.3467 29.6689 16.0614C29.6689 9.77596 29.6689 6.63327 27.7163 4.68065C25.7637 2.72803 22.6209 2.72803 16.3356 2.72803C10.0502 2.72803 6.9075 2.72803 4.95488 4.68065C3.00226 6.63327 3.00226 9.77596 3.00226 16.0614C3.00226 22.3467 3.00226 25.4895 4.95488 27.442Z" fill="url(#paint0_linear_222_10364)"/>
<path opacity="0.8" d="M11.0023 20.395C10.45 20.395 10.0023 20.8428 10.0023 21.395C10.0023 21.9473 10.45 22.395 11.0023 22.395H21.6689C22.2212 22.395 22.6689 21.9473 22.6689 21.395C22.6689 20.8428 22.2212 20.395 21.6689 20.395H11.0023Z" fill="white"/>
<path opacity="0.8" fill-rule="evenodd" clip-rule="evenodd" d="M23.0023 13.728H9.66892H7.00226C6.44998 13.728 6.00226 14.1758 6.00226 14.728C6.00226 15.2803 6.44998 15.728 7.00226 15.728H25.6689C26.2212 15.728 26.6689 15.2803 26.6689 14.728C26.6689 14.1758 26.2212 13.728 25.6689 13.728H23.0023Z" fill="white"/>
<path d="M17.6689 8.06152H15.0022C12.4881 8.06152 11.231 8.06152 10.4499 8.84258C9.66888 9.62362 9.66888 10.8807 9.66888 13.3949V13.7282H23.0022V13.3949C23.0022 10.8807 23.0022 9.62362 22.2212 8.84258C21.4401 8.06152 20.183 8.06152 17.6689 8.06152Z" fill="url(#paint1_linear_222_10364)"/>
<defs>
<linearGradient id="paint0_linear_222_10364" x1="16.3356" y1="2.72803" x2="16.3356" y2="29.3947" gradientUnits="userSpaceOnUse">
<stop stop-color="#7BCF94"/>
<stop offset="1" stop-color="#0091DA"/>
</linearGradient>
<linearGradient id="paint1_linear_222_10364" x1="16.3356" y1="8.06152" x2="16.3356" y2="13.7282" gradientUnits="userSpaceOnUse">
<stop stop-color="#FFE100" stop-opacity="0.9"/>
<stop offset="1" stop-color="#FF6200"/>
</linearGradient>
</defs>
</svg>
