<svg width="25" height="24" viewBox="0 0 25 24" fill="none" xmlns="http://www.w3.org/2000/svg">
<path opacity="0.5" d="M9.75935 3.20031C9.51585 3.40782 9.39409 3.51158 9.26405 3.59874C8.96595 3.79854 8.63116 3.93721 8.27909 4.00672C8.1255 4.03705 7.96602 4.04977 7.64707 4.07522C6.84569 4.13917 6.44499 4.17115 6.1107 4.28923C5.3375 4.56233 4.72932 5.17051 4.45622 5.94371C4.33814 6.278 4.30617 6.67869 4.24222 7.48007C4.21677 7.79902 4.20404 7.95851 4.17371 8.1121C4.1042 8.46417 3.96553 8.79896 3.76573 9.09706C3.67857 9.2271 3.5748 9.34887 3.36727 9.59239C2.84583 10.2043 2.58509 10.5102 2.43221 10.8301C2.07858 11.57 2.07858 12.43 2.43221 13.1699C2.5851 13.4898 2.84582 13.7957 3.36726 14.4076C3.57475 14.6511 3.67858 14.7729 3.76573 14.9029C3.96553 15.201 4.1042 15.5358 4.17371 15.8879C4.20404 16.0415 4.21676 16.201 4.24221 16.5199C4.30616 17.3213 4.33814 17.722 4.45622 18.0563C4.72932 18.8295 5.3375 19.4377 6.1107 19.7108C6.44498 19.8288 6.84566 19.8608 7.64699 19.9248C7.96594 19.9502 8.1255 19.963 8.27909 19.9933C8.63116 20.0628 8.96595 20.2015 9.26405 20.4013C9.3941 20.4884 9.51586 20.5922 9.75939 20.7997C10.3713 21.3212 10.6772 21.5819 10.9971 21.7348C11.737 22.0884 12.597 22.0884 13.3369 21.7348C13.6568 21.5819 13.9627 21.3212 14.5746 20.7997C14.8181 20.5922 14.9399 20.4884 15.0699 20.4013C15.368 20.2015 15.7028 20.0628 16.0549 19.9933C16.2085 19.963 16.368 19.9502 16.6869 19.9248C17.4882 19.8608 17.889 19.8288 18.2233 19.7108C18.9965 19.4377 19.6047 18.8295 19.8778 18.0563C19.9958 17.722 20.0278 17.3213 20.0918 16.52C20.1172 16.2011 20.13 16.0415 20.1603 15.8879C20.2298 15.5358 20.3685 15.201 20.5683 14.9029C20.6554 14.7729 20.7592 14.6511 20.9667 14.4076C21.4882 13.7957 21.7489 13.4898 21.9018 13.1699C22.2554 12.43 22.2554 11.57 21.9018 10.8301C21.7489 10.5102 21.4882 10.2043 20.9667 9.5924C20.7592 9.34887 20.6554 9.22711 20.5683 9.09706C20.3685 8.79896 20.2298 8.46417 20.1603 8.1121C20.13 7.95851 20.1172 7.79903 20.0918 7.48008C20.0278 6.67875 19.9958 6.27799 19.8778 5.94371C19.6047 5.17051 18.9965 4.56233 18.2233 4.28923C17.889 4.17115 17.4883 4.13918 16.6869 4.07523C16.368 4.04978 16.2085 4.03705 16.0549 4.00672C15.7028 3.93721 15.368 3.79854 15.0699 3.59874C14.9399 3.51158 14.8181 3.40781 14.5746 3.20027C13.9627 2.67883 13.6568 2.41811 13.3369 2.26522C12.597 1.91159 11.737 1.91159 10.9971 2.26522C10.6772 2.4181 10.3713 2.67887 9.75935 3.20031Z" fill="url(#paint0_linear_542_3215)"/>
<path d="M16.5406 9.86298C16.8584 9.54515 16.8584 9.02984 16.5406 8.71201C16.2227 8.39417 15.7074 8.39417 15.3896 8.71201L10.5393 13.5623L8.94452 11.9674C8.62669 11.6496 8.11138 11.6496 7.79355 11.9674C7.47572 12.2853 7.47572 12.8006 7.79355 13.1184L9.96384 15.2887C10.2817 15.6065 10.797 15.6065 11.1148 15.2887L16.5406 9.86298Z" fill="url(#paint1_linear_542_3215)"/>
<defs>
<linearGradient id="paint0_linear_542_3215" x1="12.167" y1="2" x2="12.167" y2="22" gradientUnits="userSpaceOnUse">
<stop stop-color="#7BCF94"/>
<stop offset="1" stop-color="#0091DA"/>
</linearGradient>
<linearGradient id="paint1_linear_542_3215" x1="12.1671" y1="8.47363" x2="12.1671" y2="15.5271" gradientUnits="userSpaceOnUse">
<stop stop-color="#7BCF94"/>
<stop offset="1" stop-color="#0091DA"/>
</linearGradient>
</defs>
</svg>
