<?xml version="1.0" encoding="utf-8"?>
<svg width="0.9em" height="0.775em" viewBox="0 0 14 12" fill="none" xmlns="http://www.w3.org/2000/svg">
  <path
    d="M 12.395 4.505 C 13.069 3.84 12.946 2.64 12.44 2.115 C 11.867 1.52 10.886 1.158 9.823 2.238 C 5.764 6.362 5.403 6.601 5.403 6.601 L 4.028 5.245 C 3.359 4.585 2.275 4.585 1.605 5.245 C 0.932 5.91 0.932 6.99 1.605 7.655 L 4.191 10.205 C 4.861 10.865 5.944 10.865 6.614 10.205 L 12.395 4.505 Z"
    fill="#9CFF68" stroke="#6D4320" stroke-linecap="round" stroke-linejoin="round" />
  <path fill-rule="evenodd" clip-rule="evenodd"
    d="M12.3785 3.07501C12.3345 3.30345 12.2229 3.52172 12.0436 3.69854L6.2633 9.39854C5.78807 9.86717 5.01757 9.86717 4.54234 9.39854L1.95643 6.84854C1.77712 6.67172 1.66547 6.45345 1.62147 6.22501C1.54885 6.60202 1.66051 7.00673 1.95643 7.29854L4.54234 9.84854C5.01757 10.3172 5.78807 10.3172 6.2633 9.84854L12.0436 4.14854C12.3395 3.85673 12.4512 3.45202 12.3785 3.07501Z"
    fill="#43852B" />
</svg>