<svg width="21" height="18" viewBox="0 0 21 18" fill="none" xmlns="http://www.w3.org/2000/svg">
<path d="M1 3.21118C1 2.10661 1.89543 1.21118 3 1.21118H18C19.1046 1.21118 20 2.10661 20 3.21118V6.21118V16.2112C20 16.4873 19.7761 16.7112 19.5 16.7112H1.5C1.22386 16.7112 1 16.4873 1 16.2112V6.21118V3.21118Z" fill="#72A1AF"/>
<path fill-rule="evenodd" clip-rule="evenodd" d="M3 0.711182H18C19.3807 0.711182 20.5 1.83047 20.5 3.21118V16.2112C20.5 16.7635 20.0523 17.2112 19.5 17.2112H1.5C0.947716 17.2112 0.5 16.7635 0.5 16.2112V3.21118C0.5 1.83047 1.61929 0.711182 3 0.711182ZM3 1.21118C1.89543 1.21118 1 2.10661 1 3.21118V16.2112C1 16.4873 1.22386 16.7112 1.5 16.7112H19.5C19.7761 16.7112 20 16.4873 20 16.2112V3.21118C20 2.10661 19.1046 1.21118 18 1.21118H3Z" fill="#013255"/>
<path d="M1 7.21118H20V8.21118H1V7.21118Z" fill="#2B6476"/>
<path d="M18.25 16.0862C18.25 16.2933 18.0821 16.4612 17.875 16.4612C17.6679 16.4612 17.5 16.2933 17.5 16.0862C17.5 15.8791 17.6679 15.7112 17.875 15.7112C18.0821 15.7112 18.25 15.8791 18.25 16.0862Z" fill="#578A9A"/>
<path d="M19.5 13.4612C19.5 13.7373 19.2761 13.9612 19 13.9612C18.7239 13.9612 18.5 13.7373 18.5 13.4612C18.5 13.185 18.7239 12.9612 19 12.9612C19.2761 12.9612 19.5 13.185 19.5 13.4612Z" fill="#578A9A"/>
<path d="M19 14.7112C19 14.8493 18.8881 14.9612 18.75 14.9612C18.6119 14.9612 18.5 14.8493 18.5 14.7112C18.5 14.5731 18.6119 14.4612 18.75 14.4612C18.8881 14.4612 19 14.5731 19 14.7112Z" fill="#578A9A"/>
<path d="M18 13.3362C18 13.5433 17.8321 13.7112 17.625 13.7112C17.4179 13.7112 17.25 13.5433 17.25 13.3362C17.25 13.1291 17.4179 12.9612 17.625 12.9612C17.8321 12.9612 18 13.1291 18 13.3362Z" fill="#578A9A"/>
<path d="M16.25 13.3362C16.25 13.5433 16.0821 13.7112 15.875 13.7112C15.6679 13.7112 15.5 13.5433 15.5 13.3362C15.5 13.1291 15.6679 12.9612 15.875 12.9612C16.0821 12.9612 16.25 13.1291 16.25 13.3362Z" fill="#578A9A"/>
<path d="M18.25 11.7112C18.25 11.8493 18.1381 11.9612 18 11.9612C17.8619 11.9612 17.75 11.8493 17.75 11.7112C17.75 11.5731 17.8619 11.4612 18 11.4612C18.1381 11.4612 18.25 11.5731 18.25 11.7112Z" fill="#578A9A"/>
<path d="M19.25 12.2112C19.25 12.3493 19.1381 12.4612 19 12.4612C18.8619 12.4612 18.75 12.3493 18.75 12.2112C18.75 12.0731 18.8619 11.9612 19 11.9612C19.1381 11.9612 19.25 12.0731 19.25 12.2112Z" fill="#578A9A"/>
<path d="M19.75 10.4612C19.75 10.5993 19.6381 10.7112 19.5 10.7112C19.3619 10.7112 19.25 10.5993 19.25 10.4612C19.25 10.3231 19.3619 10.2112 19.5 10.2112C19.6381 10.2112 19.75 10.3231 19.75 10.4612Z" fill="#578A9A"/>
<path d="M19.5 15.7112C19.5 15.8493 19.3881 15.9612 19.25 15.9612C19.1119 15.9612 19 15.8493 19 15.7112C19 15.5731 19.1119 15.4612 19.25 15.4612C19.3881 15.4612 19.5 15.5731 19.5 15.7112Z" fill="#578A9A"/>
<path d="M16.25 11.9612C16.25 12.0993 16.1381 12.2112 16 12.2112C15.8619 12.2112 15.75 12.0993 15.75 11.9612C15.75 11.8231 15.8619 11.7112 16 11.7112C16.1381 11.7112 16.25 11.8231 16.25 11.9612Z" fill="#578A9A"/>
<path d="M16.25 15.8362C16.25 16.0433 16.0821 16.2112 15.875 16.2112C15.6679 16.2112 15.5 16.0433 15.5 15.8362C15.5 15.6291 15.6679 15.4612 15.875 15.4612C16.0821 15.4612 16.25 15.6291 16.25 15.8362Z" fill="#578A9A"/>
<path d="M15.5 14.9612C15.5 15.0993 15.3881 15.2112 15.25 15.2112C15.1119 15.2112 15 15.0993 15 14.9612C15 14.8231 15.1119 14.7112 15.25 14.7112C15.3881 14.7112 15.5 14.8231 15.5 14.9612Z" fill="#578A9A"/>
<path d="M14.5 15.7112C14.5 15.8493 14.3881 15.9612 14.25 15.9612C14.1119 15.9612 14 15.8493 14 15.7112C14 15.5731 14.1119 15.4612 14.25 15.4612C14.3881 15.4612 14.5 15.5731 14.5 15.7112Z" fill="#578A9A"/>
<path d="M15.5 14.4612C15.5 14.5993 15.3881 14.7112 15.25 14.7112C15.1119 14.7112 15 14.5993 15 14.4612C15 14.3231 15.1119 14.2112 15.25 14.2112C15.3881 14.2112 15.5 14.3231 15.5 14.4612Z" fill="#578A9A"/>
<path d="M14.5 13.9612C14.5 14.0993 14.3881 14.2112 14.25 14.2112C14.1119 14.2112 14 14.0993 14 13.9612C14 13.8231 14.1119 13.7112 14.25 13.7112C14.3881 13.7112 14.5 13.8231 14.5 13.9612Z" fill="#578A9A"/>
<path d="M13.25 16.2112C13.25 16.3493 13.1381 16.4612 13 16.4612C12.8619 16.4612 12.75 16.3493 12.75 16.2112C12.75 16.0731 12.8619 15.9612 13 15.9612C13.1381 15.9612 13.25 16.0731 13.25 16.2112Z" fill="#578A9A"/>
<path d="M18.25 14.2112C18.25 14.3493 18.1381 14.4612 18 14.4612C17.8619 14.4612 17.75 14.3493 17.75 14.2112C17.75 14.0731 17.8619 13.9612 18 13.9612C18.1381 13.9612 18.25 14.0731 18.25 14.2112Z" fill="#578A9A"/>
<path fill-rule="evenodd" clip-rule="evenodd" d="M2.40149 3.21118C2.40149 3.07311 2.51342 2.96118 2.65149 2.96118H18.3485C18.4865 2.96118 18.5985 3.07311 18.5985 3.21118C18.5985 3.34925 18.4865 3.46118 18.3485 3.46118H2.65149C2.51342 3.46118 2.40149 3.34925 2.40149 3.21118Z" fill="#486274"/>
<path fill-rule="evenodd" clip-rule="evenodd" d="M1.56061 4.96118C1.56061 4.82311 1.67254 4.71118 1.81061 4.71118H19.1894C19.3275 4.71118 19.4394 4.82311 19.4394 4.96118C19.4394 5.09925 19.3275 5.21118 19.1894 5.21118H1.81061C1.67254 5.21118 1.56061 5.09925 1.56061 4.96118Z" fill="#486274"/>
<path fill-rule="evenodd" clip-rule="evenodd" d="M1 8.96118C1 8.82311 1.11193 8.71118 1.25 8.71118H19.75C19.8881 8.71118 20 8.82311 20 8.96118C20 9.09925 19.8881 9.21118 19.75 9.21118H1.25C1.11193 9.21118 1 9.09925 1 8.96118Z" fill="#486274"/>
<path fill-rule="evenodd" clip-rule="evenodd" d="M1 10.9612C1 10.8231 1.11193 10.7112 1.25 10.7112H19.75C19.8881 10.7112 20 10.8231 20 10.9612C20 11.0993 19.8881 11.2112 19.75 11.2112H1.25C1.11193 11.2112 1 11.0993 1 10.9612Z" fill="#486274"/>
<path fill-rule="evenodd" clip-rule="evenodd" d="M1 12.9612C1 12.8231 1.11193 12.7112 1.25 12.7112H19.75C19.8881 12.7112 20 12.8231 20 12.9612C20 13.0993 19.8881 13.2112 19.75 13.2112H1.25C1.11193 13.2112 1 13.0993 1 12.9612Z" fill="#486274"/>
<path fill-rule="evenodd" clip-rule="evenodd" d="M1 14.9612C1 14.8231 1.11193 14.7112 1.25 14.7112H19.75C19.8881 14.7112 20 14.8231 20 14.9612C20 15.0993 19.8881 15.2112 19.75 15.2112H1.25C1.11193 15.2112 1 15.0993 1 14.9612Z" fill="#486274"/>
<path fill-rule="evenodd" clip-rule="evenodd" d="M1.25 7.33618C1.38807 7.33618 1.5 7.44811 1.5 7.58618V14.7112C1.5 14.8493 1.38807 14.9612 1.25 14.9612C1.11193 14.9612 1 14.8493 1 14.7112V7.58618C1 7.44811 1.11193 7.33618 1.25 7.33618Z" fill="#89CEE3"/>
<path fill-rule="evenodd" clip-rule="evenodd" d="M1.54197 1.75315C1.91789 1.37723 2.46146 1.21118 3.125 1.21118H17.5C17.6381 1.21118 17.75 1.32311 17.75 1.46118C17.75 1.59925 17.6381 1.71118 17.5 1.71118H3.125C2.53854 1.71118 2.14461 1.85763 1.89553 2.10671C1.64645 2.35579 1.5 2.74972 1.5 3.33618V6.21118H19.5C19.6381 6.21118 19.75 6.32311 19.75 6.46118C19.75 6.59925 19.6381 6.71118 19.5 6.71118H1.25C1.11193 6.71118 1 6.59925 1 6.46118V3.33618C1 2.67265 1.16605 2.12907 1.54197 1.75315Z" fill="#89CEE3"/>
<path fill-rule="evenodd" clip-rule="evenodd" d="M1.54197 1.75315C1.91789 1.37723 2.46146 1.21118 3.125 1.21118C3.26307 1.21118 3.375 1.32311 3.375 1.46118C3.375 1.59925 3.26307 1.71118 3.125 1.71118C2.53854 1.71118 2.14461 1.85763 1.89553 2.10671C1.64645 2.35579 1.5 2.74972 1.5 3.33618C1.5 3.47425 1.38807 3.58618 1.25 3.58618C1.11193 3.58618 1 3.47425 1 3.33618C1 2.67265 1.16605 2.12907 1.54197 1.75315Z" fill="#B5EEFF"/>
<path fill-rule="evenodd" clip-rule="evenodd" d="M0.5 6.96118C0.5 6.82311 0.611929 6.71118 0.75 6.71118H20.25C20.3881 6.71118 20.5 6.82311 20.5 6.96118C20.5 7.09925 20.3881 7.21118 20.25 7.21118H0.75C0.611929 7.21118 0.5 7.09925 0.5 6.96118Z" fill="#013255"/>
<path d="M8.5 5.46118C8.5 5.32311 8.61193 5.21118 8.75 5.21118H12.25C12.3881 5.21118 12.5 5.32311 12.5 5.46118V8.71118L10.5 10.2112L8.5 8.71118V5.46118Z" fill="#DF8D12"/>
<path fill-rule="evenodd" clip-rule="evenodd" d="M13 8.71118C13 8.86856 12.9259 9.01675 12.8 9.11118L10.8 10.6112C10.6222 10.7445 10.3778 10.7445 10.2 10.6112L8.2 9.11118C8.0741 9.01675 8 8.86856 8 8.71118V5.46118C8 5.04697 8.33579 4.71118 8.75 4.71118H12.25C12.6642 4.71118 13 5.04697 13 5.46118V8.71118ZM8.5 8.71118L10.5 10.2112L12.5 8.71118V5.46118C12.5 5.32311 12.3881 5.21118 12.25 5.21118H8.75C8.61193 5.21118 8.5 5.32311 8.5 5.46118V8.71118Z" fill="#652A11"/>
<path d="M11.25 7.21118C11.25 7.6254 10.9142 7.96118 10.5 7.96118C10.0858 7.96118 9.75 7.6254 9.75 7.21118C9.75 6.79697 10.0858 6.46118 10.5 6.46118C10.9142 6.46118 11.25 6.79697 11.25 7.21118Z" fill="#FFB341"/>
<path fill-rule="evenodd" clip-rule="evenodd" d="M11.75 7.21118C11.75 7.90154 11.1904 8.46118 10.5 8.46118C9.80964 8.46118 9.25 7.90154 9.25 7.21118C9.25 6.52083 9.80964 5.96118 10.5 5.96118C11.1904 5.96118 11.75 6.52083 11.75 7.21118ZM10.5 7.96118C10.9142 7.96118 11.25 7.6254 11.25 7.21118C11.25 6.79697 10.9142 6.46118 10.5 6.46118C10.0858 6.46118 9.75 6.79697 9.75 7.21118C9.75 7.6254 10.0858 7.96118 10.5 7.96118Z" fill="#944320"/>
<path fill-rule="evenodd" clip-rule="evenodd" d="M8.5 5.46118C8.5 5.32311 8.61193 5.21118 8.75 5.21118H11.75C11.8881 5.21118 12 5.32311 12 5.46118C12 5.59925 11.8881 5.71118 11.75 5.71118H9V8.21118C9 8.34925 8.88807 8.46118 8.75 8.46118C8.61193 8.46118 8.5 8.34925 8.5 8.21118V5.46118Z" fill="#FFB341"/>
<path d="M10.5 6.96118C10.5 7.09925 10.3881 7.21118 10.25 7.21118C10.1119 7.21118 10 7.09925 10 6.96118C10 6.82311 10.1119 6.71118 10.25 6.71118C10.3881 6.71118 10.5 6.82311 10.5 6.96118Z" fill="#FFEACA"/>
<path d="M16 7.21118H17.5V16.7112H16V7.21118Z" fill="#81CDE4"/>
<path d="M17.5 6.21118H16.75H16V1.21118H17.5V6.21118Z" fill="#C2EFFE"/>
<path d="M3.5 6.21118H4.25H5V1.21118H3.5V6.21118Z" fill="#C2EFFE"/>
<path fill-rule="evenodd" clip-rule="evenodd" d="M3.75 1.21118C3.88807 1.21118 4 1.32311 4 1.46118V4.08618C4 4.22425 3.88807 4.33618 3.75 4.33618C3.61193 4.33618 3.5 4.22425 3.5 4.08618V1.46118C3.5 1.32311 3.61193 1.21118 3.75 1.21118Z" fill="#FCFEFF"/>
<path fill-rule="evenodd" clip-rule="evenodd" d="M16.25 1.21118C16.3881 1.21118 16.5 1.32311 16.5 1.46118V4.08618C16.5 4.22425 16.3881 4.33618 16.25 4.33618C16.1119 4.33618 16 4.22425 16 4.08618V1.46118C16 1.32311 16.1119 1.21118 16.25 1.21118Z" fill="#FCFEFF"/>
<path d="M3.5 7.21118H4.25H5V16.7112H3.5V7.21118Z" fill="#81CDE4"/>
</svg>
