<svg width="49" height="48" viewBox="0 0 49 48" fill="none" xmlns="http://www.w3.org/2000/svg">
<rect x="0.5" width="48" height="48" rx="16" fill="white"/>
<path d="M38.0401 11.7544C38.4307 11.3639 38.4307 10.7307 38.0401 10.3402C37.6496 9.94967 37.0164 9.94967 36.6259 10.3402L33.4233 13.5428C33.6924 13.7336 33.9491 13.9496 34.1901 14.1907C34.4311 14.4316 34.6468 14.6881 34.8376 14.9569L38.0401 11.7544Z" fill="url(#paint0_linear_222_10681)"/>
<path d="M11.2645 23.5955L12.2527 25.2198C14.9635 29.6761 18.7041 33.4166 23.1602 36.1275L24.7846 37.1158C27.3161 38.4079 30.5898 37.5778 32.0034 34.9005C32.6714 33.6353 33.3062 32.2174 33.709 30.8085C34.3597 28.5325 34.5876 26.4621 34.6592 25.0333C34.702 24.1795 34.7233 23.7526 34.5201 23.2251C34.3169 22.6977 33.9649 22.3457 33.2606 21.6415L26.8269 15.2089C26.1716 14.5536 25.8438 14.226 25.3509 14.023C24.8578 13.82 24.465 13.8215 23.6794 13.8247C22.1953 13.8307 19.9672 13.9863 17.5718 14.6711C16.1628 15.0739 14.7449 15.7087 13.4798 16.3767C10.8025 17.7903 9.97241 21.0641 11.2645 23.5955Z" fill="url(#paint1_linear_222_10681)"/>
<path d="M34.1901 14.1907C31.8755 11.8761 28.1229 11.8763 25.8082 14.1908L25.7578 14.2413C26.0663 14.4486 26.3653 14.7476 26.8267 15.2089L33.2605 21.6415C33.6629 22.0439 33.9503 22.3313 34.1606 22.6022L34.1902 22.5726C36.5047 20.258 36.5046 16.5053 34.1901 14.1907Z" fill="url(#paint2_linear_222_10681)"/>
<defs>
<linearGradient id="paint0_linear_222_10681" x1="33.4233" y1="12.5021" x2="38.333" y2="12.5021" gradientUnits="userSpaceOnUse">
<stop stop-color="#70F3FF"/>
<stop offset="1" stop-color="#106EEC"/>
</linearGradient>
<linearGradient id="paint1_linear_222_10681" x1="10.6665" y1="25.7689" x2="34.6876" y2="25.7689" gradientUnits="userSpaceOnUse">
<stop stop-color="#70F3FF"/>
<stop offset="1" stop-color="#106EEC"/>
</linearGradient>
<linearGradient id="paint2_linear_222_10681" x1="25.7578" y1="17.5285" x2="35.926" y2="17.5285" gradientUnits="userSpaceOnUse">
<stop stop-color="#A4E2FF" stop-opacity="0.976471"/>
<stop offset="1" stop-color="#0091DA"/>
</linearGradient>
</defs>
</svg>
