<svg width="25" height="24" viewBox="0 0 25 24" fill="none" xmlns="http://www.w3.org/2000/svg">
<path opacity="0.5" d="M3.16699 10C3.16699 6.22876 3.16699 4.34315 4.33856 3.17157C5.51014 2 7.39575 2 11.167 2H13.167C16.9382 2 18.8239 2 19.9954 3.17157C21.167 4.34315 21.167 6.22876 21.167 10V14C21.167 17.7712 21.167 19.6569 19.9954 20.8284C18.8239 22 16.9382 22 13.167 22H11.167C7.39575 22 5.51014 22 4.33856 20.8284C3.16699 19.6569 3.16699 17.7712 3.16699 14V10Z" fill="url(#paint0_linear_542_3185)"/>
<path d="M16.6859 16.5013C16.8609 16.3648 17.0196 16.2061 17.3371 15.8886L21.2945 11.9312C21.3901 11.8356 21.3463 11.6708 21.2185 11.6264C20.7514 11.4644 20.1437 11.1601 19.5753 10.5917C19.0069 10.0233 18.7026 9.4156 18.5406 8.94848C18.4962 8.82065 18.3314 8.77686 18.2358 8.87253L14.2784 12.8299C13.9609 13.1474 13.8022 13.3061 13.6657 13.4811C13.5047 13.6876 13.3666 13.9109 13.254 14.1473C13.1585 14.3476 13.0875 14.5606 12.9456 14.9865L12.7621 15.5368L12.4704 16.4118L12.1969 17.2323C12.1271 17.4419 12.1816 17.6729 12.3378 17.8292C12.4941 17.9854 12.7251 18.0399 12.9347 17.9701L13.7552 17.6966L14.6302 17.4049L15.1805 17.2214C15.6063 17.0795 15.8194 17.0085 16.0197 16.913C16.2561 16.8004 16.4794 16.6623 16.6859 16.5013Z" fill="url(#paint1_linear_542_3185)"/>
<path d="M22.5333 10.6922C23.378 9.84754 23.378 8.47812 22.5333 7.63348C21.6887 6.78884 20.3193 6.78884 19.4746 7.63348L19.3474 7.76071C19.2246 7.88348 19.169 8.05496 19.1997 8.22586C19.219 8.33336 19.2547 8.49053 19.3198 8.67807C19.4499 9.05314 19.6956 9.54549 20.1585 10.0083C20.6213 10.4712 21.1137 10.7169 21.4887 10.847C21.6763 10.9121 21.8334 10.9478 21.9409 10.9671C22.1118 10.9978 22.2833 10.9422 22.4061 10.8194L22.5333 10.6922Z" fill="url(#paint2_linear_542_3185)"/>
<path fill-rule="evenodd" clip-rule="evenodd" d="M7.41699 9C7.41699 8.58579 7.75278 8.25 8.16699 8.25H14.667C15.0812 8.25 15.417 8.58579 15.417 9C15.417 9.41421 15.0812 9.75 14.667 9.75H8.16699C7.75278 9.75 7.41699 9.41421 7.41699 9ZM7.41699 13C7.41699 12.5858 7.75278 12.25 8.16699 12.25H11.167C11.5812 12.25 11.917 12.5858 11.917 13C11.917 13.4142 11.5812 13.75 11.167 13.75H8.16699C7.75278 13.75 7.41699 13.4142 7.41699 13ZM7.41699 17C7.41699 16.5858 7.75278 16.25 8.16699 16.25H9.66699C10.0812 16.25 10.417 16.5858 10.417 17C10.417 17.4142 10.0812 17.75 9.66699 17.75H8.16699C7.75278 17.75 7.41699 17.4142 7.41699 17Z" fill="url(#paint3_linear_542_3185)"/>
<defs>
<linearGradient id="paint0_linear_542_3185" x1="12.167" y1="2" x2="12.167" y2="22" gradientUnits="userSpaceOnUse">
<stop stop-color="#7BCF94"/>
<stop offset="1" stop-color="#0091DA"/>
</linearGradient>
<linearGradient id="paint1_linear_542_3185" x1="16.7566" y1="8.8208" x2="16.7566" y2="18" gradientUnits="userSpaceOnUse">
<stop stop-color="#7BCF94"/>
<stop offset="1" stop-color="#0091DA"/>
</linearGradient>
<linearGradient id="paint2_linear_542_3185" x1="21.1791" y1="7" x2="21.1791" y2="10.9754" gradientUnits="userSpaceOnUse">
<stop stop-color="#7BCF94"/>
<stop offset="1" stop-color="#0091DA"/>
</linearGradient>
<linearGradient id="paint3_linear_542_3185" x1="11.417" y1="8.25" x2="11.417" y2="17.75" gradientUnits="userSpaceOnUse">
<stop stop-color="#7BCF94"/>
<stop offset="1" stop-color="#0091DA"/>
</linearGradient>
</defs>
</svg>
