<svg width="33" height="33" viewBox="0 0 33 33" fill="none" xmlns="http://www.w3.org/2000/svg">
<path d="M28.1995 11.6788C30.2471 9.63116 30.2471 6.31134 28.1995 4.26374C26.1519 2.21612 22.8321 2.21612 20.7845 4.26374L19.6018 5.44646C19.6179 5.49536 19.6347 5.54494 19.6522 5.59516C20.0857 6.8447 20.9037 8.48271 22.4423 10.0214C23.981 11.5601 25.619 12.378 26.8686 12.8115C26.9186 12.8289 26.9679 12.8456 27.0166 12.8617L28.1995 11.6788Z" fill="url(#paint0_linear_222_10353)"/>
<path d="M19.6528 5.39502L19.6019 5.44594C19.618 5.49485 19.6348 5.54443 19.6523 5.59466C20.0857 6.84418 20.9037 8.48219 22.4424 10.0209C23.9811 11.5596 25.6191 12.3775 26.8687 12.811C26.9181 12.8282 26.9671 12.8448 27.0155 12.8608L15.6015 24.2748C14.832 25.0442 14.4471 25.429 14.0229 25.76C13.5224 26.1504 12.9809 26.485 12.408 26.7581C11.9223 26.9896 11.406 27.1616 10.3736 27.5057L4.92911 29.3206C4.42103 29.49 3.86087 29.3577 3.48217 28.979C3.10346 28.6002 2.97123 28.0401 3.14059 27.5321L4.95541 22.0876C5.29957 21.0552 5.47163 20.5389 5.70311 20.0532C5.97618 19.4802 6.31083 18.9388 6.70119 18.4382C7.03208 18.0141 7.41686 17.6293 8.18631 16.8598L19.6528 5.39502Z" fill="url(#paint1_linear_222_10353)"/>
<path d="M7.72355 5.45519L5.79515 7.38359C3.97705 9.20169 3.06799 10.1107 3.06799 11.2404C3.06799 12.37 3.97705 13.2791 5.79514 15.0971L7.87203 17.174C7.96923 17.0766 8.07363 16.9722 8.18627 16.8595L17.5145 7.5326L15.4372 5.45519C13.619 3.63708 12.71 2.72803 11.5803 2.72803C10.4507 2.72803 9.54166 3.63708 7.72355 5.45519Z" fill="url(#paint2_linear_222_10353)"/>
<path d="M24.9291 14.9468L15.6017 24.2742C15.489 24.3869 15.3845 24.4913 15.287 24.5886L17.3657 26.6673C19.1838 28.4854 20.0929 29.3945 21.2225 29.3945C22.3522 29.3945 23.2613 28.4854 25.0793 26.6673L27.0077 24.7389C28.8258 22.9209 29.7349 22.0118 29.7349 20.8821C29.7349 19.7525 28.8258 18.8434 27.0077 17.0253L24.9291 14.9468Z" fill="url(#paint3_linear_222_10353)"/>
<path opacity="0.8" d="M27.2127 17.231L25.6539 18.7898C25.2633 19.1803 25.2633 19.8135 25.6539 20.204C26.0444 20.5944 26.6776 20.5944 27.0681 20.204L28.6016 18.6704C28.23 18.2536 27.7671 17.7858 27.2127 17.231Z" fill="white"/>
<path opacity="0.8" d="M13.4225 3.54541L11.6539 5.31404C11.2633 5.70456 11.2633 6.33772 11.6539 6.72825C12.0444 7.11877 12.6775 7.11877 13.0681 6.72825L14.8884 4.90793C14.3207 4.34454 13.8476 3.89037 13.4225 3.54541Z" fill="white"/>
<defs>
<linearGradient id="paint0_linear_222_10353" x1="25.1518" y1="2.90731" x2="19.418" y2="16.8821" gradientUnits="userSpaceOnUse">
<stop stop-color="#7BCF94"/>
<stop offset="1" stop-color="#0091DA"/>
</linearGradient>
<linearGradient id="paint1_linear_222_10353" x1="15.0417" y1="5.39502" x2="15.0417" y2="29.3932" gradientUnits="userSpaceOnUse">
<stop stop-color="#7BCF94"/>
<stop offset="1" stop-color="#0091DA"/>
</linearGradient>
<linearGradient id="paint2_linear_222_10353" x1="10.2913" y1="2.72803" x2="10.2913" y2="17.174" gradientUnits="userSpaceOnUse">
<stop stop-color="#FFE100" stop-opacity="0.9"/>
<stop offset="1" stop-color="#FF6200"/>
</linearGradient>
<linearGradient id="paint3_linear_222_10353" x1="22.5109" y1="14.9468" x2="22.5109" y2="29.3945" gradientUnits="userSpaceOnUse">
<stop stop-color="#FFE100" stop-opacity="0.9"/>
<stop offset="1" stop-color="#FF6200"/>
</linearGradient>
</defs>
</svg>
