<svg width="49" height="49" viewBox="0 0 49 49" fill="none" xmlns="http://www.w3.org/2000/svg">
<rect x="0.5" y="0.690308" width="48" height="48" rx="16" fill="white"/>
<path d="M18.6665 15.0473C18.6665 17.2564 16.8756 19.0473 14.6665 19.0473C12.4574 19.0473 10.6665 17.2564 10.6665 15.0473C10.6665 12.8382 12.4574 11.0473 14.6665 11.0473C16.8756 11.0473 18.6665 12.8382 18.6665 15.0473Z" fill="url(#paint0_linear_222_10637)"/>
<path d="M37.3335 15.0473C37.3335 17.2564 35.5427 19.0473 33.3335 19.0473C31.1243 19.0473 29.3335 17.2564 29.3335 15.0473C29.3335 12.8382 31.1243 11.0473 33.3335 11.0473C35.5427 11.0473 37.3335 12.8382 37.3335 15.0473Z" fill="url(#paint1_linear_222_10637)"/>
<path d="M18.6665 33.7139C18.6665 35.9231 16.8756 37.7139 14.6665 37.7139C12.4574 37.7139 10.6665 35.9231 10.6665 33.7139C10.6665 31.5047 12.4574 29.7139 14.6665 29.7139C16.8756 29.7139 18.6665 31.5047 18.6665 33.7139Z" fill="url(#paint2_linear_222_10637)"/>
<path d="M37.3335 33.7139C37.3335 35.9231 35.5427 37.7139 33.3335 37.7139C31.1243 37.7139 29.3335 35.9231 29.3335 33.7139C29.3335 31.5047 31.1243 29.7139 33.3335 29.7139C35.5427 29.7139 37.3335 31.5047 37.3335 33.7139Z" fill="url(#paint3_linear_222_10637)"/>
<path d="M29.4572 14.0549C29.4167 14.0499 29.3752 14.0473 29.3332 14.0473H18.6665C18.6245 14.0473 18.5831 14.0499 18.5425 14.0549C18.6235 14.3722 18.6665 14.7047 18.6665 15.0473C18.6665 15.3899 18.6235 15.7224 18.5425 16.0397C18.5831 16.0447 18.6245 16.0473 18.6665 16.0473H29.3332C29.3752 16.0473 29.4167 16.0447 29.4572 16.0397C29.3763 15.7224 29.3332 15.3899 29.3332 15.0473C29.3332 14.7047 29.3763 14.3722 29.4572 14.0549Z" fill="url(#paint4_linear_222_10637)"/>
<path d="M33.333 19.0473C33.6755 19.0473 34.0081 19.0042 34.3254 18.9232C34.3305 18.9639 34.333 19.0053 34.333 19.0473V29.714C34.333 29.756 34.3305 29.7974 34.3254 29.8381C34.0081 29.757 33.6755 29.714 33.333 29.714C32.9905 29.714 32.6579 29.757 32.3406 29.8381C32.3355 29.7974 32.333 29.756 32.333 29.714V19.0473C32.333 19.0053 32.3355 18.9639 32.3406 18.9232C32.6579 19.0042 32.9905 19.0473 33.333 19.0473Z" fill="url(#paint5_linear_222_10637)"/>
<path d="M29.4573 32.7216C29.4167 32.7165 29.3752 32.714 29.3332 32.714H18.6665C18.6245 32.714 18.5831 32.7165 18.5425 32.7216C18.6235 33.0389 18.6665 33.3715 18.6665 33.714C18.6665 34.0565 18.6235 34.3891 18.5425 34.7064C18.5831 34.7115 18.6245 34.714 18.6665 34.714H29.3332C29.3752 34.714 29.4167 34.7115 29.4573 34.7064C29.3763 34.3891 29.3332 34.0565 29.3332 33.714C29.3332 33.3715 29.3763 33.0389 29.4573 32.7216Z" fill="url(#paint6_linear_222_10637)"/>
<path d="M14.6665 19.0473C14.3239 19.0473 13.9915 19.0042 13.6741 18.9232C13.6691 18.9639 13.6665 19.0053 13.6665 19.0473V29.714C13.6665 29.756 13.6691 29.7974 13.6741 29.838C13.9915 29.757 14.3239 29.714 14.6665 29.714C15.0091 29.714 15.3416 29.757 15.6589 29.8381C15.6639 29.7974 15.6665 29.756 15.6665 29.714V19.0473C15.6665 19.0053 15.6639 18.9639 15.6589 18.9232C15.3416 19.0042 15.0091 19.0473 14.6665 19.0473Z" fill="url(#paint7_linear_222_10637)"/>
<defs>
<linearGradient id="paint0_linear_222_10637" x1="10.6665" y1="15.0473" x2="18.6665" y2="15.0473" gradientUnits="userSpaceOnUse">
<stop stop-color="#FF2B2B" stop-opacity="0.9"/>
<stop offset="1" stop-color="#FFCCCC"/>
</linearGradient>
<linearGradient id="paint1_linear_222_10637" x1="29.3335" y1="15.0473" x2="37.3335" y2="15.0473" gradientUnits="userSpaceOnUse">
<stop stop-color="#FF2B2B" stop-opacity="0.9"/>
<stop offset="1" stop-color="#FFCCCC"/>
</linearGradient>
<linearGradient id="paint2_linear_222_10637" x1="10.6665" y1="33.7139" x2="18.6665" y2="33.7139" gradientUnits="userSpaceOnUse">
<stop stop-color="#FF2B2B" stop-opacity="0.9"/>
<stop offset="1" stop-color="#FFCCCC"/>
</linearGradient>
<linearGradient id="paint3_linear_222_10637" x1="29.3335" y1="33.7139" x2="37.3335" y2="33.7139" gradientUnits="userSpaceOnUse">
<stop stop-color="#FF2B2B" stop-opacity="0.9"/>
<stop offset="1" stop-color="#FFCCCC"/>
</linearGradient>
<linearGradient id="paint4_linear_222_10637" x1="18.5425" y1="15.0473" x2="29.4572" y2="15.0473" gradientUnits="userSpaceOnUse">
<stop stop-color="#FC7373"/>
<stop offset="1" stop-color="#EF3C3C"/>
</linearGradient>
<linearGradient id="paint5_linear_222_10637" x1="32.333" y1="24.3807" x2="34.333" y2="24.3807" gradientUnits="userSpaceOnUse">
<stop stop-color="#FC7373"/>
<stop offset="1" stop-color="#EF3C3C"/>
</linearGradient>
<linearGradient id="paint6_linear_222_10637" x1="18.5425" y1="33.714" x2="29.4573" y2="33.714" gradientUnits="userSpaceOnUse">
<stop stop-color="#FC7373"/>
<stop offset="1" stop-color="#EF3C3C"/>
</linearGradient>
<linearGradient id="paint7_linear_222_10637" x1="13.6665" y1="24.3807" x2="15.6665" y2="24.3807" gradientUnits="userSpaceOnUse">
<stop stop-color="#FC7373"/>
<stop offset="1" stop-color="#EF3C3C"/>
</linearGradient>
</defs>
</svg>
