<svg width="49" height="49" viewBox="0 0 49 49" fill="none" xmlns="http://www.w3.org/2000/svg">
<rect x="0.300293" y="0.690308" width="48" height="48" rx="16" fill="white"/>
<path fill-rule="evenodd" clip-rule="evenodd" d="M20.243 16.0757L16.1601 21.5998C14.4472 23.9174 13.5907 25.0762 14.0626 25.9873C14.0704 26.0025 14.0785 26.0174 14.0868 26.0322C14.5867 26.9296 16.0659 26.9296 19.0244 26.9296C20.6685 26.9296 21.4905 26.9296 22.0061 27.4145L22.0328 27.4401L27.1954 21.3469L27.1688 21.3212C26.664 20.8258 26.664 20.036 26.664 18.4564V18.0435C26.664 13.664 26.664 11.4742 25.4329 11.0969C24.2017 10.7196 22.8821 12.505 20.243 16.0757Z" fill="url(#paint0_linear_222_10631)"/>
<path d="M22.5374 30.3049V30.7177C22.5374 35.0971 22.5374 37.287 23.7684 37.6642C24.9996 38.0415 26.3192 36.2562 28.9584 32.6854L33.0412 27.1614C34.7543 24.8438 35.6107 23.685 35.1388 22.7738C35.131 22.7587 35.123 22.7438 35.1147 22.729C34.6147 21.8317 33.1355 21.8317 30.177 21.8317C28.533 21.8317 27.711 21.8317 27.1954 21.3467L22.0327 27.4401C22.5375 27.9354 22.5374 28.7253 22.5374 30.3049Z" fill="url(#paint1_linear_222_10631)"/>
<defs>
<linearGradient id="paint0_linear_222_10631" x1="13.9341" y1="19.2437" x2="27.1954" y2="19.2437" gradientUnits="userSpaceOnUse">
<stop stop-color="#5DECBF"/>
<stop offset="1" stop-color="#01CBC7"/>
</linearGradient>
<linearGradient id="paint1_linear_222_10631" x1="22.0327" y1="29.5303" x2="35.2673" y2="29.5303" gradientUnits="userSpaceOnUse">
<stop stop-color="#52FFB1"/>
<stop offset="1" stop-color="#00AED6"/>
</linearGradient>
</defs>
</svg>
