<svg width="31" height="30" viewBox="0 0 31 30" fill="none" xmlns="http://www.w3.org/2000/svg">
<path d="M6.51825 7.79416C6.125 8.35444 6.125 10.0198 6.125 13.3507V14.991C6.125 20.8639 10.5406 23.714 13.311 24.9242C14.0625 25.2525 14.4382 25.4166 15.5 25.4166C16.5618 25.4166 16.9375 25.2525 17.689 24.9242C20.4594 23.714 24.875 20.8639 24.875 14.991V13.3507C24.875 10.0198 24.875 8.35444 24.4818 7.79416C24.0885 7.23388 22.5226 6.69785 19.3907 5.6258L18.7941 5.42156C17.1615 4.86273 16.3452 4.58331 15.5 4.58331C14.6548 4.58331 13.8385 4.86273 12.206 5.42156L11.6093 5.6258C8.47742 6.69785 6.91149 7.23388 6.51825 7.79416Z" fill="url(#paint0_linear_222_11108)"/>
<path opacity="0.8" d="M14.314 11.2118L14.1775 11.4568C14.0275 11.7258 13.9525 11.8603 13.8356 11.9491C13.7186 12.0379 13.573 12.0708 13.2818 12.1367L13.0166 12.1967C11.9918 12.4286 11.4793 12.5445 11.3574 12.9366C11.2355 13.3287 11.5848 13.7371 12.2835 14.5542L12.4643 14.7655C12.6628 14.9977 12.7621 15.1138 12.8068 15.2574C12.8514 15.4011 12.8364 15.5559 12.8064 15.8656L12.7791 16.1477C12.6734 17.2377 12.6206 17.7828 12.9398 18.0251C13.259 18.2674 13.7388 18.0465 14.6984 17.6047L14.9466 17.4903C15.2193 17.3648 15.3557 17.302 15.5002 17.302C15.6446 17.302 15.781 17.3648 16.0537 17.4903L16.3019 17.6047C17.2615 18.0465 17.7413 18.2674 18.0605 18.0251C18.3797 17.7828 18.3268 17.2377 18.2212 16.1477L18.1939 15.8656C18.1639 15.5559 18.1489 15.401 18.1936 15.2574C18.2382 15.1138 18.3375 14.9977 18.536 14.7655L18.7168 14.5542C19.4155 13.7371 19.7648 13.3287 19.6429 12.9366C19.521 12.5445 19.0086 12.4286 17.9837 12.1967L17.7185 12.1367C17.4273 12.0708 17.2817 12.0379 17.1647 11.9491C17.0479 11.8604 16.9729 11.7258 16.8229 11.4568L16.6863 11.2118C16.1586 10.2651 15.8946 9.79169 15.5002 9.79169C15.1057 9.79169 14.8417 10.2651 14.314 11.2118Z" fill="white"/>
<defs>
<linearGradient id="paint0_linear_222_11108" x1="15.5" y1="4.58331" x2="15.5" y2="25.4166" gradientUnits="userSpaceOnUse">
<stop stop-color="#FFDA31"/>
<stop offset="1" stop-color="#FF9500"/>
</linearGradient>
</defs>
</svg>
