<svg width="49" height="49" viewBox="0 0 49 49" fill="none" xmlns="http://www.w3.org/2000/svg">
<rect x="0.899902" y="0.380554" width="48" height="48" rx="16" fill="white"/>
<path d="M31.7044 36.3806H17.8949C16.9016 36.3806 16.2798 36.3806 15.7996 36.3246V36.7131V38.0471C15.7996 38.5994 15.3519 39.0471 14.7996 39.0471C14.2474 39.0471 13.7996 38.5994 13.7996 38.0471V35.559C12.6988 34.8183 11.8912 33.6336 11.5917 32.234C11.4663 31.6482 11.4663 30.9399 11.4663 29.5234V23.3747C11.4663 21.7211 12.7231 20.3806 14.2733 20.3806C15.8236 20.3806 17.0803 21.7211 17.0803 23.3747V27.4916C17.0803 28.7487 17.0803 29.3772 17.4709 29.7678C17.8614 30.1583 18.4899 30.1583 19.747 30.1583H29.8523C31.1094 30.1583 31.7379 30.1583 32.1284 29.7678C32.519 29.3772 32.519 28.7487 32.519 27.4916V23.3747C32.519 21.7211 33.7756 20.3806 35.3259 20.3806C36.8762 20.3806 38.133 21.7211 38.133 23.3747V29.5234C38.133 30.9399 38.133 31.6482 38.0076 32.234C37.7082 33.6336 36.9004 34.8183 35.7996 35.559V38.0472C35.7996 38.5995 35.3519 39.0472 34.7996 39.0472C34.2474 39.0472 33.7996 38.5995 33.7996 38.0472V36.3246C33.3195 36.3806 32.6976 36.3806 31.7044 36.3806Z" fill="url(#paint0_linear_222_10659)"/>
<path d="M16.7998 19.2524V19.9431V31.0472H32.7998V19.9431V19.2523C32.7998 16.1849 32.7998 14.6512 32.1567 13.5088C31.7354 12.7604 31.1295 12.1389 30.3998 11.7068C29.2859 11.0472 27.7906 11.0472 24.7998 11.0472C21.809 11.0472 20.3136 11.0472 19.1998 11.7068C18.4701 12.1389 17.8642 12.7604 17.4429 13.5088C16.7998 14.6512 16.7998 16.1849 16.7998 19.2524Z" fill="url(#paint1_linear_222_10659)"/>
<defs>
<linearGradient id="paint0_linear_222_10659" x1="11.4663" y1="29.7139" x2="38.133" y2="29.7139" gradientUnits="userSpaceOnUse">
<stop stop-color="#A4E2FF" stop-opacity="0.976471"/>
<stop offset="1" stop-color="#0091DA"/>
</linearGradient>
<linearGradient id="paint1_linear_222_10659" x1="16.7998" y1="21.0472" x2="32.7998" y2="21.0472" gradientUnits="userSpaceOnUse">
<stop stop-color="#70F3FF"/>
<stop offset="1" stop-color="#106EEC"/>
</linearGradient>
</defs>
</svg>
