<svg width="37" height="44" viewBox="0 0 37 44" fill="none" xmlns="http://www.w3.org/2000/svg">
<g filter="url(#filter0_d_0_4918)">
<path d="M18.5 4.01099L29.75 10.5985L28.5675 25.3235L18.5 31.5235L8.4325 25.3235L7.25 10.5985L18.5 4.01099Z" fill="black"/>
<path d="M19.258 2.71657L18.5 2.27275L17.7421 2.71657L6.49205 9.30407L5.67943 9.7799L5.75481 10.7186L6.93731 25.4436L6.9982 26.2018L7.64593 26.6007L17.7135 32.8007L18.5 33.2851L19.2866 32.8007L29.3541 26.6007L30.0018 26.2018L30.0627 25.4436L31.2452 10.7186L31.3206 9.7799L30.508 9.30407L19.258 2.71657Z" stroke="#666666" stroke-width="3"/>
</g>
<g filter="url(#filter1_di_0_4918)">
<path d="M18.5 4.01111L29.7499 10.5986L28.5675 25.3236L18.5 31.5236L8.43243 25.3236L7.24994 10.5986L18.5 4.01111Z" fill="#666666"/>
<path d="M18.9518 3.23951L18.5 2.97494L18.0482 3.2395L6.79812 9.827L6.31372 10.1106L6.35866 10.6702L7.54115 25.3952L7.57745 25.8472L7.96356 26.085L18.0311 32.285L18.5 32.5737L18.9689 32.285L29.0364 26.085L29.4225 25.8472L29.4588 25.3952L30.6412 10.6702L30.6862 10.1106L30.2018 9.82701L18.9518 3.23951Z" stroke="#DBDBDB" stroke-width="1.78831"/>
</g>
<defs>
<filter id="filter0_d_0_4918" x="0.108887" y="0.534515" width="36.7822" height="42.5122" filterUnits="userSpaceOnUse" color-interpolation-filters="sRGB">
<feFlood flood-opacity="0" result="BackgroundImageFix"/>
<feColorMatrix in="SourceAlpha" type="matrix" values="0 0 0 0 0 0 0 0 0 0 0 0 0 0 0 0 0 0 127 0" result="hardAlpha"/>
<feOffset dy="4"/>
<feGaussianBlur stdDeviation="2"/>
<feComposite in2="hardAlpha" operator="out"/>
<feColorMatrix type="matrix" values="0 0 0 0 0 0 0 0 0 0 0 0 0 0 0 0 0 0 0.5 0"/>
<feBlend mode="normal" in2="BackgroundImageFix" result="effect1_dropShadow_0_4918"/>
<feBlend mode="normal" in="SourceGraphic" in2="effect1_dropShadow_0_4918" result="shape"/>
</filter>
<filter id="filter1_di_0_4918" x="1.3775" y="1.93878" width="34.2449" height="39.6851" filterUnits="userSpaceOnUse" color-interpolation-filters="sRGB">
<feFlood flood-opacity="0" result="BackgroundImageFix"/>
<feColorMatrix in="SourceAlpha" type="matrix" values="0 0 0 0 0 0 0 0 0 0 0 0 0 0 0 0 0 0 127 0" result="hardAlpha"/>
<feOffset dy="4"/>
<feGaussianBlur stdDeviation="2"/>
<feComposite in2="hardAlpha" operator="out"/>
<feColorMatrix type="matrix" values="0 0 0 0 0 0 0 0 0 0 0 0 0 0 0 0 0 0 0.5 0"/>
<feBlend mode="normal" in2="BackgroundImageFix" result="effect1_dropShadow_0_4918"/>
<feBlend mode="normal" in="SourceGraphic" in2="effect1_dropShadow_0_4918" result="shape"/>
<feColorMatrix in="SourceAlpha" type="matrix" values="0 0 0 0 0 0 0 0 0 0 0 0 0 0 0 0 0 0 127 0" result="hardAlpha"/>
<feOffset dy="4"/>
<feGaussianBlur stdDeviation="1"/>
<feComposite in2="hardAlpha" operator="arithmetic" k2="-1" k3="1"/>
<feColorMatrix type="matrix" values="0 0 0 0 0 0 0 0 0 0 0 0 0 0 0 0 0 0 0.25 0"/>
<feBlend mode="normal" in2="shape" result="effect2_innerShadow_0_4918"/>
</filter>
</defs>
</svg>
