<svg width="57" height="58" viewBox="0 0 57 58" fill="none" xmlns="http://www.w3.org/2000/svg">
    <path
        d="M28.8269 3.06422L28.5001 2.88145L28.1732 3.06422L6.79816 15.0173L6.42156 15.2279L6.45771 15.6579L8.70445 42.3767L8.7335 42.7221L9.03226 42.8978L28.1606 54.1478L28.5001 54.3474L28.8396 54.1478L47.9678 42.8978L48.2666 42.7221L48.2956 42.3767L50.5423 15.6579L50.5784 15.2279L50.2018 15.0173L28.8269 3.06422Z"
        fill="black" stroke="black" stroke-width="1.33929" />
    <path d="M28.5 3.64868L7.125 15.6018L15.7875 19.8206L28.5 12.7893V3.64868Z" fill="#FAD9F8" />
    <path d="M7.125 15.6018L9.2625 42.3206L17.1 37.3987L15.7875 19.8206L7.125 15.6018Z" fill="#F49DF4" />
    <path d="M49.875 15.6018L28.5 3.64868V12.7893L41.2125 19.8206L49.875 15.6018Z" fill="#F49DF4" />
    <path d="M47.7375 42.3206L49.875 15.6018L41.2125 19.8206L39.9 37.3987L47.7375 42.3206Z" fill="#D35BFA" />
    <path d="M28.5 53.5706L47.7375 42.3206L39.9 37.3987L28.5 43.7268V53.5706Z" fill="#A02CDD" />
    <path d="M9.2625 42.3206L28.5 53.5706V43.7268L17.1 37.3987L9.2625 42.3206Z" fill="#BB55F1" />
    <path d="M28.5 12.7893L15.7875 19.8206L17.1 37.3987L28.5 43.7268L39.9 37.3987L41.2125 19.8206L28.5 12.7893Z"
        fill="#E79CF7" />
    <g style="mix-blend-mode:soft-light">
        <path fill-rule="evenodd" clip-rule="evenodd"
            d="M49.8737 15.6171L47.7375 42.3206L28.5 53.5706L16.1509 46.3489C23.7123 32.8487 35.556 22.0099 49.8737 15.6171Z"
            fill="black" />
    </g>
    <path fill-rule="evenodd" clip-rule="evenodd"
        d="M14.9625 19.8206L7.125 15.6018L15.3187 19.1174L28.1437 12.0862L28.5 3.64868L28.8562 12.0862L41.6812 19.1174L49.875 15.6018L42.3937 19.8206L41.3243 37.4597L47.7375 42.3206L40.5593 38.6462L29.2125 44.7815L28.5 53.5706L27.7875 44.7815L16.4407 38.6462L9.2625 42.3206L16.0312 37.3987L14.9625 19.8206ZM17.1 37.3987L28.5 43.7268L39.9 37.3987L40.9687 19.8206L28.5 12.7893L16.0312 19.8206L17.1 37.3987Z"
        fill="white" />
</svg>