<svg width="33" height="32" viewBox="0 0 33 32" fill="none" xmlns="http://www.w3.org/2000/svg">
    <path
        d="M26.5 15.9987C26.5 21.5215 22.0228 25.9987 16.5 25.9987M26.5 15.9987C26.5 10.4758 22.0228 5.99866 16.5 5.99866M26.5 15.9987C26.5 14.3418 22.0228 12.9987 16.5 12.9987C10.9772 12.9987 6.5 14.3418 6.5 15.9987M26.5 15.9987C26.5 17.6555 22.0228 18.9987 16.5 18.9987C10.9772 18.9987 6.5 17.6555 6.5 15.9987M16.5 25.9987C10.9772 25.9987 6.5 21.5215 6.5 15.9987M16.5 25.9987C18.7091 25.9987 20.5 21.5215 20.5 15.9987C20.5 10.4758 18.7091 5.99866 16.5 5.99866M16.5 25.9987C14.2909 25.9987 12.5 21.5215 12.5 15.9987C12.5 10.4758 14.2909 5.99866 16.5 5.99866M6.5 15.9987C6.5 10.4758 10.9772 5.99866 16.5 5.99866"
        stroke="currentColor" stroke-width="1.5" />
</svg>