<svg width="31" height="30" viewBox="0 0 31 30" fill="none" xmlns="http://www.w3.org/2000/svg">
<path fill-rule="evenodd" clip-rule="evenodd" d="M5.1123 14.2187C5.51182 8.83066 10.01 4.58331 15.5001 4.58331C14.6347 4.58331 13.864 4.9627 13.2301 5.54282C12.5994 6.12003 12.0663 6.92579 11.6352 7.87826C11.2016 8.83635 10.8647 9.95694 10.6367 11.173C10.4539 12.1478 10.3427 13.1755 10.3056 14.2187H5.1123ZM5.1123 15.7812H10.3056C10.3427 16.8245 10.4539 17.8522 10.6367 18.827C10.8647 20.043 11.2016 21.1636 11.6352 22.1216C12.0663 23.0741 12.5994 23.8799 13.2301 24.4572C13.864 25.0373 14.6347 25.4166 15.5001 25.4166C10.01 25.4166 5.51182 21.1694 5.1123 15.7812Z" fill="url(#paint0_linear_222_11136)"/>
<path d="M15.5 4.58331C16.3655 4.58331 17.1361 4.9627 17.77 5.54282C18.4008 6.12003 18.9339 6.92579 19.3649 7.87826C19.7985 8.83635 20.1354 9.95694 20.3634 11.173C20.5463 12.1478 20.6574 13.1755 20.6945 14.2187H25.8878C25.4883 8.83066 20.9902 4.58331 15.5 4.58331Z" fill="url(#paint1_linear_222_11136)"/>
<path d="M20.3634 18.827C20.1354 20.043 19.7985 21.1636 19.3649 22.1217C18.9339 23.0742 18.4008 23.8799 17.77 24.4572C17.1361 25.0373 16.3655 25.4167 15.5 25.4167C20.9902 25.4167 25.4883 21.1694 25.8878 15.7812H20.6945C20.6574 16.8245 20.5463 17.8522 20.3634 18.827Z" fill="url(#paint2_linear_222_11136)"/>
<path d="M15.5001 6.03699C15.2136 6.03699 14.8435 6.15887 14.4132 6.55269C13.9797 6.94939 13.5457 7.57115 13.1623 8.41826C12.7814 9.25975 12.4721 10.2756 12.2593 11.4108C12.0916 12.3048 11.9877 13.2524 11.9512 14.219H19.0489C19.0125 13.2524 18.9085 12.3048 18.7408 11.4108C18.528 10.2756 18.2187 9.25976 17.8379 8.41826C17.4544 7.57115 17.0204 6.94939 16.5869 6.55269C16.1566 6.15887 15.7865 6.03699 15.5001 6.03699Z" fill="url(#paint3_linear_222_11136)"/>
<path d="M12.2593 18.5896C12.4721 19.7248 12.7814 20.7406 13.1623 21.5821C13.5457 22.4291 13.9797 23.0509 14.4132 23.4476C14.8435 23.8414 15.2136 23.9633 15.5001 23.9633C15.7865 23.9633 16.1566 23.8414 16.5869 23.4476C17.0204 23.0509 17.4544 22.4291 17.8379 21.5821C18.2187 20.7406 18.528 19.7248 18.7408 18.5896C18.9085 17.6955 19.0125 16.7479 19.0489 15.7814H11.9512C11.9877 16.7479 12.0916 17.6955 12.2593 18.5896Z" fill="url(#paint4_linear_222_11136)"/>
<defs>
<linearGradient id="paint0_linear_222_11136" x1="10.3062" y1="4.58331" x2="10.3062" y2="25.4166" gradientUnits="userSpaceOnUse">
<stop stop-color="#FFDA31"/>
<stop offset="1" stop-color="#FF9500"/>
</linearGradient>
<linearGradient id="paint1_linear_222_11136" x1="20.6939" y1="4.58331" x2="20.6939" y2="14.2187" gradientUnits="userSpaceOnUse">
<stop stop-color="#FFDA31"/>
<stop offset="1" stop-color="#FF9500"/>
</linearGradient>
<linearGradient id="paint2_linear_222_11136" x1="20.6939" y1="15.7812" x2="20.6939" y2="25.4167" gradientUnits="userSpaceOnUse">
<stop stop-color="#FFDA31"/>
<stop offset="1" stop-color="#FF9500"/>
</linearGradient>
<linearGradient id="paint3_linear_222_11136" x1="15.5" y1="6.03699" x2="15.5" y2="14.219" gradientUnits="userSpaceOnUse">
<stop stop-color="#DB4D00"/>
<stop offset="1" stop-color="#FF7C2B"/>
</linearGradient>
<linearGradient id="paint4_linear_222_11136" x1="15.5" y1="15.7814" x2="15.5" y2="23.9633" gradientUnits="userSpaceOnUse">
<stop stop-color="#DB4D00"/>
<stop offset="1" stop-color="#FF7C2B"/>
</linearGradient>
</defs>
</svg>
