<svg width="31" height="31" viewBox="0 0 31 31" fill="none" xmlns="http://www.w3.org/2000/svg">
<path d="M5.2832 15.7124C5.2832 13.3286 5.2832 12.1367 5.82404 11.1487C6.36487 10.1606 7.35294 9.54739 9.32907 8.32095L11.4124 7.02797C13.5013 5.73153 14.5458 5.08331 15.6999 5.08331C16.8539 5.08331 17.8984 5.73153 19.9874 7.02797L22.0707 8.32094C24.0468 9.54739 25.0349 10.1606 25.5757 11.1487C26.1165 12.1367 26.1165 13.3286 26.1165 15.7124V17.2969C26.1165 21.3602 26.1165 23.392 24.8961 24.6542C23.6758 25.9166 21.7115 25.9166 17.7832 25.9166H13.6165C9.68816 25.9166 7.72398 25.9166 6.50359 24.6542C5.2832 23.392 5.2832 21.3602 5.2832 17.2969V15.7124Z" fill="url(#paint0_linear_222_10560)"/>
<path opacity="0.8" d="M13.04 19.0391C12.6933 18.7822 12.2041 18.8549 11.9471 19.2015C11.6902 19.5481 11.7629 20.0374 12.1095 20.2944C13.1225 21.0452 14.3613 21.4896 15.6997 21.4896C17.0383 21.4896 18.277 21.0452 19.29 20.2944C19.6366 20.0374 19.7093 19.5481 19.4524 19.2015C19.1954 18.8549 18.7062 18.7822 18.3595 19.0391C17.6009 19.6015 16.685 19.9271 15.6997 19.9271C14.7144 19.9271 13.7987 19.6015 13.04 19.0391Z" fill="white"/>
<defs>
<linearGradient id="paint0_linear_222_10560" x1="15.6999" y1="5.08331" x2="15.6999" y2="25.9166" gradientUnits="userSpaceOnUse">
<stop stop-color="#A4E2FF"/>
<stop offset="1" stop-color="#0091DA"/>
</linearGradient>
</defs>
</svg>
