<svg width="35" height="35" viewBox="0 0 35 35" fill="none" xmlns="http://www.w3.org/2000/svg">
<path d="M7.29199 4.375H26.2503C27.4106 4.375 28.5234 4.83594 29.3439 5.65641C30.1644 6.47688 30.6253 7.58968 30.6253 8.75V27.7083C30.6253 28.8687 30.1644 29.9815 29.3439 30.8019C28.5234 31.6224 27.4106 32.0833 26.2503 32.0833H7.29199C6.13167 32.0833 5.01887 31.6224 4.1984 30.8019C3.37793 29.9815 2.91699 28.8687 2.91699 27.7083V8.75C2.91699 7.58968 3.37793 6.47688 4.1984 5.65641C5.01887 4.83594 6.13167 4.375 7.29199 4.375ZM7.29199 5.83333C6.51844 5.83333 5.77658 6.14062 5.2296 6.68761C4.68262 7.23459 4.37533 7.97645 4.37533 8.75V25.6521L10.6316 19.3813L14.2774 23.0271L21.5691 15.7354L29.167 23.3333V8.75C29.167 7.97645 28.8597 7.23459 28.3127 6.68761C27.7657 6.14062 27.0239 5.83333 26.2503 5.83333H7.29199ZM14.2774 25.0979L10.6316 21.4521L4.37533 27.7083C4.37533 28.4819 4.68262 29.2237 5.2296 29.7707C5.77658 30.3177 6.51844 30.625 7.29199 30.625H26.2503C27.0239 30.625 27.7657 30.3177 28.3127 29.7707C28.8597 29.2237 29.167 28.4819 29.167 27.7083V25.3896L21.5691 17.8063L14.2774 25.0979ZM10.9378 8.75C11.9048 8.75 12.8321 9.13411 13.5158 9.81784C14.1995 10.5016 14.5837 11.4289 14.5837 12.3958C14.5837 13.3628 14.1995 14.2901 13.5158 14.9738C12.8321 15.6576 11.9048 16.0417 10.9378 16.0417C9.97089 16.0417 9.04356 15.6576 8.35983 14.9738C7.67611 14.2901 7.29199 13.3628 7.29199 12.3958C7.29199 11.4289 7.67611 10.5016 8.35983 9.81784C9.04356 9.13411 9.97089 8.75 10.9378 8.75ZM10.9378 10.2083C10.3577 10.2083 9.80127 10.4388 9.39103 10.849C8.98079 11.2593 8.75033 11.8157 8.75033 12.3958C8.75033 12.976 8.98079 13.5324 9.39103 13.9426C9.80127 14.3529 10.3577 14.5833 10.9378 14.5833C11.518 14.5833 12.0744 14.3529 12.4846 13.9426C12.8949 13.5324 13.1253 12.976 13.1253 12.3958C13.1253 11.8157 12.8949 11.2593 12.4846 10.849C12.0744 10.4388 11.518 10.2083 10.9378 10.2083Z" fill="black"/>
</svg>
