<svg width="52" height="53" viewBox="0 0 52 53" fill="none" xmlns="http://www.w3.org/2000/svg">
<g clip-path="url(#clip0_542_5509)">
<path d="M46 42.0556V10.9444C46 8.5 44 6.5 41.5556 6.5H10.4444C8 6.5 6 8.5 6 10.9444V42.0556C6 44.5 8 46.5 10.4444 46.5H41.5556C44 46.5 46 44.5 46 42.0556ZM19.1111 30.9L23.7778 36.5222L30.6667 27.6556C31.1111 27.0778 32 27.0778 32.4444 27.6778L40.2444 38.0778C40.8 38.8111 40.2667 39.8556 39.3556 39.8556H12.7111C11.7778 39.8556 11.2667 38.7889 11.8444 38.0556L17.3778 30.9444C17.8 30.3667 18.6444 30.3444 19.1111 30.9V30.9Z" fill="#00B5B0"/>
</g>
<defs>
<clipPath id="clip0_542_5509">
<rect width="52" height="52" fill="white" transform="translate(0 0.5)"/>
</clipPath>
</defs>
</svg>
