<svg width="49" height="48" viewBox="0 0 49 48" fill="none" xmlns="http://www.w3.org/2000/svg">
<rect x="0.899902" width="48" height="48" rx="16" fill="white"/>
<path d="M22.7464 31.5061C23.7697 30.3384 24.2814 29.7545 24.9132 29.7166C24.9709 29.713 25.0288 29.713 25.0865 29.7166C25.7184 29.7545 26.23 30.3384 27.2533 31.5061C29.48 34.0469 30.5933 35.3173 30.2816 36.4133C30.2548 36.5076 30.2216 36.5992 30.1821 36.6874C29.7233 37.714 28.1488 37.714 24.9998 37.714C21.8509 37.714 20.2764 37.714 19.8176 36.6874C19.7781 36.5992 19.7448 36.5076 19.7181 36.4133C19.4064 35.3173 20.5197 34.0469 22.7464 31.5061Z" fill="url(#paint0_linear_222_10666)"/>
<path d="M28.3332 25.0473C28.3332 26.8882 26.8408 28.3806 24.9998 28.3806C23.1589 28.3806 21.6665 26.8882 21.6665 25.0473C21.6665 23.2063 23.1589 21.7139 24.9998 21.7139C26.8408 21.7139 28.3332 23.2063 28.3332 25.0473Z" fill="url(#paint1_linear_222_10666)"/>
<path fill-rule="evenodd" clip-rule="evenodd" d="M24.9996 19.0936C21.4033 19.0936 18.4879 21.9625 18.4879 25.5014C18.4879 27.2711 19.2157 28.8718 20.3951 30.0323C20.7584 30.3899 20.7584 30.9695 20.3951 31.327C20.0318 31.6845 19.4429 31.6845 19.0796 31.327C17.5655 29.8371 16.6274 27.7762 16.6274 25.5014C16.6274 20.9513 20.3758 17.2628 24.9996 17.2628C29.6233 17.2628 33.3716 20.9513 33.3716 25.5014C33.3716 27.7762 32.4336 29.8371 30.9194 31.327C30.5562 31.6845 29.9672 31.6845 29.604 31.327C29.2406 30.9695 29.2406 30.3899 29.604 30.0323C30.7833 28.8718 31.5112 27.2711 31.5112 25.5014C31.5112 21.9625 28.5958 19.0936 24.9996 19.0936Z" fill="url(#paint2_linear_222_10666)"/>
<path fill-rule="evenodd" clip-rule="evenodd" d="M24.9998 14.2114C18.6635 14.2114 13.527 19.2661 13.527 25.5014C13.527 28.6193 14.8101 31.4405 16.8873 33.4846C17.2506 33.8421 17.2506 34.4217 16.8873 34.7792C16.524 35.1366 15.935 35.1366 15.5717 34.7792C13.1599 32.4058 11.6665 29.1243 11.6665 25.5014C11.6665 18.255 17.636 12.3806 24.9998 12.3806C32.3636 12.3806 38.3332 18.255 38.3332 25.5014C38.3332 29.1243 36.8397 32.4058 34.428 34.7792C34.0646 35.1366 33.4757 35.1366 33.1124 34.7792C32.749 34.4217 32.749 33.8421 33.1124 33.4846C35.1896 31.4405 36.4728 28.6193 36.4728 25.5014C36.4728 19.2661 31.3361 14.2114 24.9998 14.2114Z" fill="url(#paint3_linear_222_10666)"/>
<defs>
<linearGradient id="paint0_linear_222_10666" x1="19.6665" y1="33.7139" x2="30.3331" y2="33.7139" gradientUnits="userSpaceOnUse">
<stop stop-color="#5DECBF"/>
<stop offset="1" stop-color="#01CBC7"/>
</linearGradient>
<linearGradient id="paint1_linear_222_10666" x1="21.6665" y1="25.0473" x2="28.3332" y2="25.0473" gradientUnits="userSpaceOnUse">
<stop stop-color="#5DECBF"/>
<stop offset="1" stop-color="#01CBC7"/>
</linearGradient>
<linearGradient id="paint2_linear_222_10666" x1="16.6274" y1="24.4289" x2="33.3716" y2="24.4289" gradientUnits="userSpaceOnUse">
<stop stop-color="#52FFB1"/>
<stop offset="1" stop-color="#00AED6"/>
</linearGradient>
<linearGradient id="paint3_linear_222_10666" x1="11.6665" y1="23.7139" x2="38.3332" y2="23.7139" gradientUnits="userSpaceOnUse">
<stop stop-color="#52FFB1"/>
<stop offset="1" stop-color="#00AED6"/>
</linearGradient>
</defs>
</svg>
