<svg width="31" height="30" viewBox="0 0 31 30" fill="none" xmlns="http://www.w3.org/2000/svg">
<path d="M23.5382 23.7109C25.0241 22.9006 25.9168 21.8618 25.9168 20.7292C25.9168 19.5287 24.9139 18.4335 23.2644 17.6042C21.357 16.6452 18.5853 16.0417 15.5002 16.0417C12.4151 16.0417 9.64327 16.6452 7.7359 17.6042C6.08646 18.4335 5.0835 19.5287 5.0835 20.7292C5.0835 21.9297 6.08646 23.0249 7.7359 23.8542C9.64327 24.8131 12.4151 25.4167 15.5002 25.4167C18.7362 25.4167 21.6276 24.7526 23.5382 23.7109Z" fill="url(#paint0_linear_222_11129)"/>
<path fill-rule="evenodd" clip-rule="evenodd" d="M12.6353 6.66665C12.6353 5.08458 13.9178 3.80206 15.4998 3.80206C17.0819 3.80206 18.3644 5.08458 18.3644 6.66665C18.3644 8.24871 17.0819 9.53123 15.4998 9.53123C13.9178 9.53123 12.6353 8.24871 12.6353 6.66665Z" fill="url(#paint1_linear_222_11129)"/>
<path d="M11.5659 14.5563L9.29994 13.801C8.64814 13.5837 8.2085 12.9737 8.2085 12.2867C8.2085 11.2705 9.14551 10.513 10.1392 10.7259L12.1158 11.1495C12.2257 11.173 12.2807 11.1848 12.3352 11.1961C14.4231 11.628 16.5772 11.628 18.6652 11.1961C18.7196 11.1848 18.7746 11.173 18.8845 11.1495L20.8611 10.7259C21.8548 10.513 22.7918 11.2705 22.7918 12.2867C22.7918 12.9737 22.3521 13.5837 21.7004 13.801L19.4344 14.5563C19.1606 14.6476 19.0237 14.6932 18.9207 14.7569C18.5701 14.9732 18.38 15.376 18.4358 15.7844C18.4522 15.9043 18.504 16.0389 18.6077 16.3083L19.9064 19.6851C20.293 20.6902 19.551 21.7705 18.474 21.7705C17.9234 21.7705 17.4149 21.4755 17.1416 20.9973L15.5002 18.1247L13.8587 20.9973C13.5855 21.4755 13.077 21.7705 12.5263 21.7705C11.4493 21.7705 10.7073 20.6902 11.0939 19.6851L12.3927 16.3083C12.4963 16.0389 12.5481 15.9043 12.5645 15.7844C12.6203 15.376 12.4302 14.9732 12.0796 14.7569C11.9766 14.6932 11.8397 14.6476 11.5659 14.5563Z" fill="url(#paint2_linear_222_11129)"/>
<defs>
<linearGradient id="paint0_linear_222_11129" x1="15.5002" y1="16.0417" x2="15.5002" y2="25.4167" gradientUnits="userSpaceOnUse">
<stop stop-color="#70F3FF"/>
<stop offset="1" stop-color="#106EEC"/>
</linearGradient>
<linearGradient id="paint1_linear_222_11129" x1="15.4998" y1="3.80206" x2="15.4998" y2="9.53123" gradientUnits="userSpaceOnUse">
<stop stop-color="#A4E2FF"/>
<stop offset="1" stop-color="#0091DA"/>
</linearGradient>
<linearGradient id="paint2_linear_222_11129" x1="15.5002" y1="10.6899" x2="15.5002" y2="21.7705" gradientUnits="userSpaceOnUse">
<stop stop-color="#A4E2FF"/>
<stop offset="1" stop-color="#0091DA"/>
</linearGradient>
</defs>
</svg>
