<svg width="31" height="30" viewBox="0 0 31 30" fill="none" xmlns="http://www.w3.org/2000/svg">
<path fill-rule="evenodd" clip-rule="evenodd" d="M20.9088 8.75H10.0915C8.33378 8.75 7.45493 8.75 6.7842 9.09345C6.2006 9.39228 5.72578 9.8671 5.42694 10.4507C5.0835 11.1214 5.0835 12.0003 5.0835 13.758C5.0835 14.2048 5.0835 14.4282 5.15991 14.6166C5.22665 14.781 5.33432 14.9258 5.47269 15.037C5.63114 15.1643 5.84514 15.2285 6.27314 15.3569L11.8543 17.0312V18.2945C11.8543 19.092 12.3329 19.8272 13.0906 20.135L13.674 20.3721C14.8459 20.8482 16.1544 20.8482 17.3263 20.3721L17.9097 20.135C18.6675 19.8272 19.146 19.092 19.146 18.2945V17.0312L24.7271 15.3569C25.1552 15.2285 25.3692 15.1643 25.5277 15.037C25.666 14.9258 25.7737 14.781 25.8404 14.6166C25.9168 14.4282 25.9168 14.2048 25.9168 13.758C25.9168 12.0003 25.9168 11.1214 25.5734 10.4507C25.2745 9.8671 24.7997 9.39228 24.2161 9.09345C23.5454 8.75 22.6665 8.75 20.9088 8.75ZM17.1668 16.0417H13.8335C13.6034 16.0417 13.4168 16.2311 13.4168 16.4649V18.2945C13.4168 18.4675 13.5206 18.6231 13.6787 18.6875L14.2622 18.9245C15.0569 19.2474 15.9434 19.2474 16.7382 18.9245L17.3216 18.6875C17.4797 18.6231 17.5835 18.4675 17.5835 18.2945V16.4649C17.5835 16.2311 17.3969 16.0417 17.1668 16.0417Z" fill="url(#paint0_linear_222_11152)"/>
<path d="M24.8311 15.3256C24.8197 15.329 24.8079 15.3326 24.796 15.3361L19.1458 17.0313V18.2945C19.1458 19.092 18.6673 19.8272 17.9096 20.135L17.3261 20.3721C16.1543 20.8482 14.8457 20.8482 13.6739 20.3721L13.0904 20.135C12.3327 19.8272 11.8542 19.092 11.8542 18.2945V17.0313L6.125 15.3124C6.12594 19.1408 6.16134 23.0082 7.49792 24.1963C8.87084 25.4168 11.0806 25.4168 15.5 25.4168C19.9194 25.4168 22.1291 25.4168 23.5021 24.1963C24.8386 23.0082 24.8741 19.1408 24.875 15.3124L24.8311 15.3256Z" fill="url(#paint1_linear_222_11152)"/>
<path d="M12.5532 6.66665C12.9822 5.45291 14.1398 4.58331 15.5004 4.58331C16.861 4.58331 18.0186 5.45291 18.4476 6.66665" stroke="url(#paint2_linear_222_11152)" stroke-width="2" stroke-linecap="round"/>
<defs>
<linearGradient id="paint0_linear_222_11152" x1="15.5002" y1="8.75" x2="15.5002" y2="20.7292" gradientUnits="userSpaceOnUse">
<stop stop-color="#5DECBF"/>
<stop offset="1" stop-color="#01CBC7"/>
</linearGradient>
<linearGradient id="paint1_linear_222_11152" x1="15.5" y1="15.3124" x2="15.5" y2="25.4168" gradientUnits="userSpaceOnUse">
<stop stop-color="#52FFB1"/>
<stop offset="1" stop-color="#00AED6"/>
</linearGradient>
<linearGradient id="paint2_linear_222_11152" x1="15.5004" y1="4.58331" x2="15.5004" y2="6.66665" gradientUnits="userSpaceOnUse">
<stop stop-color="#52FFB1"/>
<stop offset="1" stop-color="#00AED6"/>
</linearGradient>
</defs>
</svg>
