<svg width="49" height="49" viewBox="0 0 49 49" fill="none" xmlns="http://www.w3.org/2000/svg">
<rect x="0.700195" y="0.690308" width="48" height="48" rx="16" fill="white"/>
<path fill-rule="evenodd" clip-rule="evenodd" d="M24.4006 37.714C18.5095 37.714 13.7339 32.8528 13.7339 26.8562C13.7339 20.9067 17.1383 13.9641 22.45 11.4814C23.0691 11.192 23.7348 11.0473 24.4006 11.0473V37.714Z" fill="url(#paint0_linear_222_10650)"/>
<path d="M26.3509 11.4814C25.7319 11.192 25.0661 11.0473 24.4004 11.0473V20.3807L30.3093 14.4718C29.1589 13.2081 27.8288 12.1721 26.3509 11.4814Z" fill="url(#paint1_linear_222_10650)"/>
<path d="M24.4004 20.3807V27.7141L33.2193 18.895C32.4565 17.2681 31.4753 15.7529 30.3093 14.4719L24.4004 20.3807Z" fill="url(#paint2_linear_222_10650)"/>
<path d="M24.4004 34.3806L34.8151 23.966C34.5219 22.2454 33.9788 20.5148 33.2193 18.895L24.4004 27.714V34.3806Z" fill="url(#paint3_linear_222_10650)"/>
<path d="M34.8151 23.9659L24.4004 34.3806V37.7139C30.2915 37.7139 35.0671 32.8527 35.0671 26.8562C35.0671 25.9106 34.9811 24.9398 34.8151 23.9659Z" fill="url(#paint4_linear_222_10650)"/>
<defs>
<linearGradient id="paint0_linear_222_10650" x1="13.7339" y1="24.3806" x2="24.4006" y2="24.3806" gradientUnits="userSpaceOnUse">
<stop stop-color="#5DECBF"/>
<stop offset="1" stop-color="#01CBC7"/>
</linearGradient>
<linearGradient id="paint1_linear_222_10650" x1="24.4004" y1="15.714" x2="30.3093" y2="15.714" gradientUnits="userSpaceOnUse">
<stop stop-color="#52FFB1"/>
<stop offset="1" stop-color="#00AED6"/>
</linearGradient>
<linearGradient id="paint2_linear_222_10650" x1="24.4004" y1="21.093" x2="33.2193" y2="21.093" gradientUnits="userSpaceOnUse">
<stop stop-color="#52FFB1"/>
<stop offset="1" stop-color="#00AED6"/>
</linearGradient>
<linearGradient id="paint3_linear_222_10650" x1="24.4004" y1="26.6378" x2="34.8151" y2="26.6378" gradientUnits="userSpaceOnUse">
<stop stop-color="#52FFB1"/>
<stop offset="1" stop-color="#00AED6"/>
</linearGradient>
<linearGradient id="paint4_linear_222_10650" x1="24.4004" y1="30.8399" x2="35.0671" y2="30.8399" gradientUnits="userSpaceOnUse">
<stop stop-color="#52FFB1"/>
<stop offset="1" stop-color="#00AED6"/>
</linearGradient>
</defs>
</svg>
