<svg width="31" height="30" viewBox="0 0 31 30" fill="none" xmlns="http://www.w3.org/2000/svg">
<path fill-rule="evenodd" clip-rule="evenodd" d="M8.69484 7.07507C8.99963 7.38048 8.99914 7.87513 8.69374 8.17993C6.94518 9.925 5.86475 12.3356 5.86475 15C5.86475 17.6956 6.97061 20.1315 8.7554 21.8811C9.06352 22.1832 9.06843 22.6778 8.76638 22.9859C8.46434 23.2941 7.9697 23.299 7.66159 22.9969C5.58937 20.9655 4.30225 18.1324 4.30225 15C4.30225 11.904 5.55976 9.10016 7.58999 7.07398C7.89538 6.76919 8.39005 6.76967 8.69484 7.07507ZM22.3922 7.15048C22.7004 6.84842 23.195 6.85334 23.497 7.16146C25.4763 9.18048 26.6981 11.9484 26.6981 15C26.6981 18.088 25.4471 20.8853 23.4262 22.9102C23.1214 23.2156 22.6267 23.2161 22.3214 22.9114C22.016 22.6066 22.0155 22.1119 22.3203 21.8065C24.0608 20.0625 25.1356 17.6575 25.1356 15C25.1356 12.3737 24.0858 9.99406 22.3813 8.25528C22.0792 7.94716 22.0841 7.45253 22.3922 7.15048ZM11.6556 10.2995C11.9504 10.6146 11.934 11.109 11.619 11.4038C10.6305 12.3288 10.0314 13.594 10.0314 14.9815C10.0314 16.3851 10.6446 17.6639 11.6539 18.5916C11.9715 18.8835 11.9923 19.3777 11.7003 19.6954C11.4083 20.013 10.9141 20.0339 10.5965 19.7419C9.29149 18.5423 8.46891 16.8567 8.46891 14.9815C8.46891 13.1281 9.27254 11.4597 10.5514 10.2629C10.8664 9.96811 11.3608 9.98451 11.6556 10.2995ZM19.399 10.3392C19.6972 10.0274 20.1917 10.0164 20.5036 10.3146C21.7507 11.5074 22.5314 13.1548 22.5314 14.9815C22.5314 16.83 21.7319 18.4946 20.4589 19.6906C20.1445 19.9861 19.6501 19.9707 19.3546 19.6562C19.0592 19.3418 19.0746 18.8474 19.389 18.552C20.3729 17.6276 20.9689 16.3654 20.9689 14.9815C20.9689 13.6137 20.3867 12.3651 19.4235 11.4437C19.1117 11.1455 19.1008 10.651 19.399 10.3392Z" fill="url(#paint0_linear_222_11146)"/>
<path d="M17.2251 13.3866C18.1583 14.0717 18.6248 14.4142 18.6248 15C18.6248 15.5858 18.1583 15.9283 17.2251 16.6134C16.9676 16.8025 16.7121 16.9806 16.4773 17.129C16.2714 17.2592 16.0382 17.3938 15.7966 17.5259C14.8658 18.0354 14.4003 18.2902 13.9829 18.0081C13.5654 17.726 13.5274 17.1356 13.4516 15.9548C13.4301 15.6208 13.4165 15.2934 13.4165 15C13.4165 14.7066 13.4301 14.3792 13.4516 14.0452C13.5274 12.8643 13.5654 12.2739 13.9829 11.9919C14.4003 11.7098 14.8658 11.9646 15.7966 12.4741C16.0382 12.6062 16.2714 12.7409 16.4773 12.871C16.7121 13.0194 16.9676 13.1975 17.2251 13.3866Z" fill="url(#paint1_linear_222_11146)"/>
<defs>
<linearGradient id="paint0_linear_222_11146" x1="4.30225" y1="15.033" x2="26.6981" y2="15.033" gradientUnits="userSpaceOnUse">
<stop stop-color="#FF2B2B" stop-opacity="0.9"/>
<stop offset="1" stop-color="#FFCCCC"/>
</linearGradient>
<linearGradient id="paint1_linear_222_11146" x1="16.0207" y1="11.875" x2="16.0207" y2="18.125" gradientUnits="userSpaceOnUse">
<stop stop-color="#FC7373"/>
<stop offset="1" stop-color="#EF3C3C"/>
</linearGradient>
</defs>
</svg>
