<svg width="21" height="21" viewBox="0 0 21 21" fill="none" xmlns="http://www.w3.org/2000/svg">
<rect x="2.0835" y="4.19501" width="16.6667" height="13.3333" rx="5" fill="white"/>
<path d="M17.0835 4.19501C18.0085 4.19501 18.7502 4.93667 18.7502 5.86167V15.8617C18.7502 16.7867 18.0085 17.5283 17.0835 17.5283H3.75016C2.82516 17.5283 2.0835 16.7867 2.0835 15.8617V5.86167C2.0835 4.93667 2.82516 4.19501 3.75016 4.19501H17.0835ZM7.50016 13.3617V8.36167H6.4585V11.2783L4.37516 8.36167H3.3335V13.3617H4.37516V10.445L6.50016 13.3617H7.50016ZM11.6668 9.41167V8.36167H8.3335V13.3617H11.6668V12.32H9.5835V11.395H11.6668V10.345H9.5835V9.41167H11.6668ZM17.5002 12.5283V8.36167H16.4585V12.1117H15.5252V9.19501H14.4835V12.1117H13.5418V8.36167H12.5002V12.5283C12.5002 12.7494 12.588 12.9613 12.7442 13.1176C12.9005 13.2739 13.1125 13.3617 13.3335 13.3617H16.6668C16.8878 13.3617 17.0998 13.2739 17.2561 13.1176C17.4124 12.9613 17.5002 12.7494 17.5002 12.5283Z" fill="#D80027"/>
</svg>
