<svg width="49" height="48" viewBox="0 0 49 48" fill="none" xmlns="http://www.w3.org/2000/svg">
<path d="M11 11.3059C11 9.59392 12.834 8.50992 14.334 9.33392L37.414 22.0279C37.7673 22.222 38.0619 22.5074 38.2671 22.8543C38.4723 23.2012 38.5806 23.5969 38.5806 23.9999C38.5806 24.403 38.4723 24.7986 38.2671 25.1455C38.0619 25.4924 37.7673 25.7778 37.414 25.9719L14.334 38.6659C13.9914 38.8543 13.6056 38.9501 13.2146 38.944C12.8237 38.9378 12.4411 38.8299 12.1045 38.6309C11.768 38.4318 11.4891 38.1485 11.2955 37.8088C11.1018 37.4692 10.9999 37.0849 11 36.6939V11.3059Z" stroke="white" stroke-width="1.5" stroke-linecap="round" stroke-linejoin="round"/>
</svg>
