<svg width="42" height="43" viewBox="0 0 42 43" fill="none" xmlns="http://www.w3.org/2000/svg">
<path d="M16.625 27.3011V14.7571C16.6253 14.6001 16.6677 14.4462 16.748 14.3113C16.8282 14.1764 16.9432 14.0655 17.081 13.9904C17.2188 13.9152 17.3742 13.8785 17.5311 13.8841C17.6879 13.8897 17.8404 13.9373 17.9725 14.0221L27.7305 20.2923C27.8541 20.3715 27.9557 20.4805 28.0261 20.6092C28.0965 20.738 28.1335 20.8823 28.1335 21.0291C28.1335 21.1758 28.0965 21.3202 28.0261 21.449C27.9557 21.5777 27.8541 21.6867 27.7305 21.7658L17.9725 28.0378C17.8404 28.1226 17.6879 28.1703 17.5311 28.1758C17.3742 28.1814 17.2188 28.1447 17.081 28.0695C16.9432 27.9944 16.8282 27.8836 16.748 27.7487C16.6677 27.6138 16.6253 27.4598 16.625 27.3028V27.3011Z" fill="white"/>
<path d="M1.75 21.0291C1.75 10.3978 10.3688 1.77905 21 1.77905C31.6313 1.77905 40.25 10.3978 40.25 21.0291C40.25 31.6603 31.6313 40.2791 21 40.2791C10.3688 40.2791 1.75 31.6603 1.75 21.0291ZM21 4.40405C16.5908 4.40405 12.3621 6.15561 9.24435 9.2734C6.12656 12.3912 4.375 16.6198 4.375 21.0291C4.375 25.4383 6.12656 29.6669 9.24435 32.7847C12.3621 35.9025 16.5908 37.6541 21 37.6541C25.4092 37.6541 29.6379 35.9025 32.7556 32.7847C35.8734 29.6669 37.625 25.4383 37.625 21.0291C37.625 16.6198 35.8734 12.3912 32.7556 9.2734C29.6379 6.15561 25.4092 4.40405 21 4.40405Z" fill="white"/>
</svg>
