<svg width="33" height="32" viewBox="0 0 33 32" fill="none" xmlns="http://www.w3.org/2000/svg">
    <path
        d="M19.75 10.9987C19.75 12.7936 18.2949 14.2487 16.5 14.2487V15.7487C19.1234 15.7487 21.25 13.622 21.25 10.9987H19.75ZM16.5 14.2487C14.7051 14.2487 13.25 12.7936 13.25 10.9987H11.75C11.75 13.622 13.8766 15.7487 16.5 15.7487V14.2487ZM13.25 10.9987C13.25 9.20373 14.7051 7.74866 16.5 7.74866V6.24866C13.8766 6.24866 11.75 8.3753 11.75 10.9987H13.25ZM16.5 7.74866C18.2949 7.74866 19.75 9.20373 19.75 10.9987H21.25C21.25 8.3753 19.1234 6.24866 16.5 6.24866V7.74866ZM22.75 21.4987C22.75 22.028 22.3014 22.7092 21.1143 23.3027C19.9722 23.8738 18.3418 24.2487 16.5 24.2487V25.7487C18.5242 25.7487 20.3938 25.34 21.7852 24.6444C23.1316 23.9711 24.25 22.9023 24.25 21.4987H22.75ZM16.5 24.2487C14.6582 24.2487 13.0278 23.8738 11.8857 23.3027C10.6986 22.7092 10.25 22.028 10.25 21.4987H8.75C8.75 22.9023 9.86836 23.9711 11.2148 24.6444C12.6062 25.34 14.4758 25.7487 16.5 25.7487V24.2487ZM10.25 21.4987C10.25 20.9693 10.6986 20.2881 11.8857 19.6946C13.0278 19.1235 14.6582 18.7487 16.5 18.7487V17.2487C14.4758 17.2487 12.6062 17.6573 11.2148 18.353C9.86836 19.0262 8.75 20.095 8.75 21.4987H10.25ZM16.5 18.7487C18.3418 18.7487 19.9722 19.1235 21.1143 19.6946C22.3014 20.2881 22.75 20.9693 22.75 21.4987H24.25C24.25 20.095 23.1316 19.0262 21.7852 18.353C20.3938 17.6573 18.5242 17.2487 16.5 17.2487V18.7487Z"
        fill="currentColor" />
</svg>