<svg width="24" height="26" viewBox="0 0 24 26" fill="none" xmlns="http://www.w3.org/2000/svg">
<path d="M17.711 8.48964V3.51161C17.711 3.51161 17.6592 2.72566 16.7939 1.93967C15.9286 1.15369 14.6978 1.15369 14.6978 1.15369C14.6978 1.15369 4.36386 2.64013 2.77679 3.51161C1.18973 4.3831 1.0737 5.60771 1.0737 5.60771C1.0737 5.60771 0.959513 20.5231 1.0737 21.4588C1.18788 22.3944 1.75177 23.5294 2.77679 24.3408C3.97341 25.2881 6.57571 25.2578 6.57571 25.2578H16.7939C16.7939 25.2578 19.1718 25.059 20.4619 24.3408C20.9557 24.0659 22.5379 23.3592 22.8199 22.2448C23.1019 21.1304 23.4475 12.2413 22.8199 10.7167C22.1923 9.19214 17.711 8.48964 17.711 8.48964Z" fill="#00B5B0" stroke="#00B5B0" stroke-linecap="round"/>
<path d="M6.62207 10.4562H12.0869" stroke="white" stroke-width="2" stroke-linecap="round"/>
<path d="M6.62207 15.5211H12.0869" stroke="white" stroke-width="2" stroke-linecap="round"/>
</svg>
