<svg width="25" height="24" viewBox="0 0 25 24" fill="none" xmlns="http://www.w3.org/2000/svg">
<path opacity="0.5" d="M2.5 12.2039C2.5 9.91549 2.5 8.77128 3.0192 7.82274C3.5384 6.87421 4.48695 6.28551 6.38403 5.10813L8.38403 3.86687C10.3894 2.62229 11.3921 2 12.5 2C13.6079 2 14.6106 2.62229 16.616 3.86687L18.616 5.10812C20.5131 6.28551 21.4616 6.87421 21.9808 7.82274C22.5 8.77128 22.5 9.91549 22.5 12.2039V13.725C22.5 17.6258 22.5 19.5763 21.3284 20.7881C20.1569 22 18.2712 22 14.5 22H10.5C6.72876 22 4.84315 22 3.67157 20.7881C2.5 19.5763 2.5 17.6258 2.5 13.725V12.2039Z" fill="url(#paint0_linear_542_3177)"/>
<path d="M9.94666 15.3975C9.61389 15.1509 9.14418 15.2207 8.89752 15.5534C8.65086 15.8862 8.72067 16.3559 9.05343 16.6026C10.0259 17.3234 11.2151 17.75 12.5 17.75C13.785 17.75 14.9742 17.3234 15.9467 16.6026C16.2794 16.3559 16.3492 15.8862 16.1026 15.5534C15.8559 15.2207 15.3862 15.1509 15.0534 15.3975C14.3251 15.9374 13.4459 16.25 12.5 16.25C11.5541 16.25 10.675 15.9374 9.94666 15.3975Z" fill="url(#paint1_linear_542_3177)"/>
<defs>
<linearGradient id="paint0_linear_542_3177" x1="12.5" y1="2" x2="12.5" y2="22" gradientUnits="userSpaceOnUse">
<stop stop-color="#7BCF94"/>
<stop offset="1" stop-color="#0091DA"/>
</linearGradient>
<linearGradient id="paint1_linear_542_3177" x1="12.5" y1="15.25" x2="12.5" y2="17.75" gradientUnits="userSpaceOnUse">
<stop stop-color="#7BCF94"/>
<stop offset="1" stop-color="#0091DA"/>
</linearGradient>
</defs>
</svg>
