<svg width="41" height="40" viewBox="0 0 41 40" fill="none" xmlns="http://www.w3.org/2000/svg">
<path d="M24.7061 19.2125C29.366 19.2125 33.1436 15.4349 33.1436 10.775C33.1436 6.11512 29.366 2.33752 24.7061 2.33752C20.0462 2.33752 16.2686 6.11512 16.2686 10.775C16.2686 15.4349 20.0462 19.2125 24.7061 19.2125Z" fill="#E5F8F7"/>
<path d="M7.76855 11.25H8.31855" stroke="#00B5B0" stroke-linecap="round" stroke-linejoin="round"/>
<path d="M10.5186 11.25H11.0623" stroke="#00B5B0" stroke-linecap="round" stroke-linejoin="round"/>
<path d="M5.54395 13.275H35.2314" stroke="#00B5B0" stroke-linecap="round" stroke-linejoin="round"/>
<path d="M20.4873 17.8438H31.4123" stroke="#00B5B0" stroke-linecap="round" stroke-linejoin="round"/>
<path d="M20.4873 20.175H31.4123" stroke="#00B5B0" stroke-linecap="round" stroke-linejoin="round"/>
<path d="M20.4873 22.5062H28.5623" stroke="#00B5B0" stroke-linecap="round" stroke-linejoin="round"/>
<path d="M31.4123 28.1938L20.4873 28.1688V24.7188L31.4123 24.75V28.1938Z" stroke="#00B5B0" stroke-linecap="round" stroke-linejoin="round"/>
<path d="M35.2377 9.05005H5.5752V32.1188H35.2377V9.05005Z" stroke="#00B5B0" stroke-linecap="round" stroke-linejoin="round"/>
<path d="M34.6064 32.175V34.0001H6.2002V32.175" stroke="#00B5B0" stroke-linecap="round" stroke-linejoin="round"/>
<path d="M8.3999 21.6875L13.2499 17.8063L18.0999 21.6875" stroke="#00B5B0" stroke-linecap="round" stroke-linejoin="round"/>
<path d="M12.0376 26.8625V23.125H14.4688V26.8625" stroke="#00B5B0" stroke-linecap="round" stroke-linejoin="round"/>
<path d="M9.69385 20.8125V26.8625H16.8063V20.8125" stroke="#00B5B0" stroke-linecap="round" stroke-linejoin="round"/>
<path d="M10.7563 19.6438V17.9625" stroke="#00B5B0" stroke-linecap="round" stroke-linejoin="round"/>
</svg>
