<svg width="31" height="30" viewBox="0 0 31 30" fill="none" xmlns="http://www.w3.org/2000/svg">
<path d="M10.9208 7.29559C12.729 5.48741 13.6331 4.58331 14.7565 4.58331C15.88 4.58331 16.7841 5.48741 18.5922 7.29559L23.1952 11.8985C25.0033 13.7066 25.9075 14.6107 25.9075 15.7343C25.9075 16.8577 25.0033 17.7617 23.1952 19.57C21.3869 21.3781 20.4829 22.2823 19.3594 22.2823C18.2359 22.2823 17.3318 21.3781 15.5237 19.57L10.9208 14.9671C9.11259 13.1589 8.2085 12.2548 8.2085 11.1313C8.2085 10.0079 9.11259 9.10378 10.9208 7.29559Z" fill="url(#paint0_linear_222_11121)"/>
<g opacity="0.5">
<path d="M11.6925 15.7388L5.94372 21.4876C5.58701 21.8444 5.40864 22.0227 5.30152 22.2082C5.01082 22.7117 5.01082 23.3321 5.30152 23.8356C5.40864 24.0211 5.587 24.1995 5.94369 24.5561C6.3004 24.9129 6.47879 25.0912 6.66433 25.1984C7.16784 25.4891 7.78819 25.4891 8.2917 25.1984C8.47724 25.0912 8.65559 24.9129 9.01231 24.5562L14.7611 18.8074L11.6925 15.7388Z" fill="url(#paint1_linear_222_11121)"/>
<path d="M22.4328 11.1359L22.8212 10.7475C23.1779 10.3908 23.3562 10.2125 23.4634 10.0269C23.7542 9.52342 23.7542 8.90306 23.4634 8.39955C23.3562 8.21401 23.1779 8.03566 22.8212 7.67895C22.4645 7.32223 22.2861 7.14387 22.1006 7.03675C21.5971 6.74605 20.9768 6.74605 20.4732 7.03675C20.2877 7.14387 20.1094 7.32223 19.7526 7.67895L19.3643 8.06733L22.4328 11.1359Z" fill="url(#paint2_linear_222_11121)"/>
</g>
<defs>
<linearGradient id="paint0_linear_222_11121" x1="17.058" y1="4.58331" x2="17.058" y2="22.2823" gradientUnits="userSpaceOnUse">
<stop stop-color="#5DECBF"/>
<stop offset="1" stop-color="#01CBC7"/>
</linearGradient>
<linearGradient id="paint1_linear_222_11121" x1="9.9223" y1="15.7388" x2="9.9223" y2="25.4165" gradientUnits="userSpaceOnUse">
<stop stop-color="#52FFB1"/>
<stop offset="1" stop-color="#00AED6"/>
</linearGradient>
<linearGradient id="paint2_linear_222_11121" x1="21.5229" y1="6.81873" x2="21.5229" y2="11.1359" gradientUnits="userSpaceOnUse">
<stop stop-color="#52FFB1"/>
<stop offset="1" stop-color="#00AED6"/>
</linearGradient>
</defs>
</svg>
