<svg width="42" height="42" viewBox="0 0 42 42" fill="none" xmlns="http://www.w3.org/2000/svg">
    <path
        d="M29.6484 6.0686H11.4306C10.9712 6.06911 10.5307 6.25185 10.2059 6.57672C9.881 6.90159 9.69826 7.34206 9.69775 7.80149V8.18747H8.09619C7.94753 8.18747 7.80495 8.24653 7.69983 8.35165C7.5947 8.45677 7.53564 8.59935 7.53564 8.74802V11.8333C7.53564 11.9819 7.5947 12.1245 7.69983 12.2296C7.80495 12.3348 7.94753 12.3938 8.09619 12.3938H9.69775V12.7782C9.69826 13.2376 9.881 13.6781 10.2059 14.003C10.5307 14.3278 10.9712 14.5106 11.4306 14.5111H11.9649V20.0935C11.9649 20.5934 12.1635 21.0729 12.517 21.4264C12.8706 21.7799 13.35 21.9785 13.85 21.9785C14.3499 21.9785 14.8294 21.7799 15.1829 21.4264C15.5364 21.0729 15.735 20.5934 15.735 20.0935V17.9154C15.7329 17.8137 15.7511 17.7127 15.7886 17.6182C15.826 17.5238 15.882 17.4377 15.9531 17.3651C16.0242 17.2925 16.1091 17.2348 16.2028 17.1954C16.2965 17.1561 16.3971 17.1358 16.4988 17.1358C16.6004 17.1358 16.701 17.1561 16.7947 17.1954C16.8884 17.2348 16.9734 17.2925 17.0445 17.3651C17.1156 17.4377 17.1715 17.5238 17.209 17.6182C17.2464 17.7127 17.2647 17.8137 17.2626 17.9154V17.957C17.2593 18.2066 17.3057 18.4543 17.3989 18.6859C17.4922 18.9174 17.6305 19.1281 17.8059 19.3058C17.9812 19.4834 18.1901 19.6245 18.4204 19.7208C18.6507 19.817 18.8978 19.8666 19.1475 19.8666C19.3971 19.8666 19.6442 19.817 19.8745 19.7208C20.1048 19.6245 20.3137 19.4834 20.489 19.3058C20.6644 19.1281 20.8027 18.9174 20.896 18.6859C20.9892 18.4543 21.0356 18.2066 21.0323 17.957V14.5108H29.6484C30.1079 14.5103 30.5483 14.3275 30.8732 14.0026C31.1981 13.6778 31.3808 13.2373 31.3813 12.7779V12.3935H32.9829C33.0565 12.3935 33.1294 12.3791 33.1974 12.3509C33.2655 12.3228 33.3273 12.2815 33.3793 12.2294C33.4314 12.1773 33.4727 12.1155 33.5008 12.0475C33.529 11.9795 33.5435 11.9066 33.5434 11.8329V10.8079H34.2129C34.3833 10.8082 34.5466 10.876 34.6671 10.9965C34.7875 11.1171 34.8552 11.2804 34.8554 11.4508V14.6703C34.8535 15.1736 34.6891 15.6628 34.3867 16.0651C34.0842 16.4674 33.6599 16.7612 33.177 16.9029L22.9382 19.8632C22.2264 20.0718 21.6011 20.5047 21.1554 21.0976C20.7096 21.6904 20.4674 22.4114 20.4647 23.1531V24.0625H19.2741C19.1255 24.0625 18.9829 24.1215 18.8778 24.2267C18.7726 24.3318 18.7136 24.4744 18.7136 24.623V26.5833H18.6447C18.4961 26.5833 18.3535 26.6424 18.2484 26.7475C18.1432 26.8526 18.0842 26.9952 18.0842 27.1439V33.0335C18.0801 33.4223 18.1532 33.808 18.2992 34.1684C18.4451 34.5287 18.6611 34.8566 18.9346 35.133C19.2081 35.4093 19.5337 35.6287 19.8925 35.7784C20.2514 35.9282 20.6363 36.0053 21.0251 36.0053C21.4139 36.0053 21.7989 35.9282 22.1577 35.7784C22.5166 35.6287 22.8421 35.4093 23.1156 35.133C23.3891 34.8566 23.6051 34.5287 23.7511 34.1684C23.8971 33.808 23.9701 33.4223 23.9661 33.0335V27.1439C23.9661 27.0703 23.9516 26.9973 23.9235 26.9293C23.8953 26.8613 23.854 26.7995 23.802 26.7474C23.7499 26.6954 23.6881 26.6541 23.6201 26.6259C23.5521 26.5978 23.4792 26.5833 23.4055 26.5833H23.3383V24.623C23.3383 24.4744 23.2792 24.3318 23.1741 24.2267C23.069 24.1215 22.9264 24.0625 22.7777 24.0625H21.5858V23.1531C21.5876 22.6542 21.7506 22.1692 22.0504 21.7705C22.3502 21.3717 22.7708 21.0804 23.2495 20.9401L33.4867 17.9794C34.2027 17.7696 34.8316 17.3341 35.2799 16.7378C35.7283 16.1415 35.9719 15.4163 35.9746 14.6703V11.4499C35.9742 10.9822 35.7882 10.5338 35.4576 10.2031C35.1269 9.87242 34.6786 9.6864 34.211 9.68589H33.5415V8.74706C33.5414 8.67341 33.5268 8.60049 33.4985 8.53249C33.4702 8.46449 33.4288 8.40274 33.3766 8.35076C33.3244 8.29879 33.2625 8.25761 33.1944 8.22959C33.1263 8.20157 33.0533 8.18726 32.9797 8.18747H31.3781V7.8031C31.378 7.34394 31.1959 6.90354 30.8717 6.57841C30.5475 6.25329 30.1076 6.06996 29.6484 6.0686ZM9.69775 11.2718H8.6577V9.30856H9.69775V11.2718ZM30.2593 8.74706V12.7779C30.2591 12.9399 30.1947 13.0953 30.0802 13.2099C29.9657 13.3246 29.8105 13.3892 29.6484 13.3897H20.4718C20.3982 13.3896 20.3253 13.4041 20.2572 13.4322C20.1892 13.4604 20.1274 13.5017 20.0753 13.5538C20.0233 13.6058 19.982 13.6676 19.9538 13.7357C19.9257 13.8037 19.9112 13.8766 19.9112 13.9502V17.957C19.9133 18.0586 19.8951 18.1596 19.8577 18.2541C19.8202 18.3486 19.7643 18.4347 19.6931 18.5073C19.622 18.5799 19.5371 18.6376 19.4434 18.6769C19.3497 18.7163 19.2491 18.7366 19.1475 18.7366C19.0458 18.7366 18.9452 18.7163 18.8515 18.6769C18.7578 18.6376 18.6729 18.5799 18.6018 18.5073C18.5306 18.4347 18.4747 18.3486 18.4373 18.2541C18.3998 18.1596 18.3816 18.0586 18.3837 17.957V17.9179C18.3869 17.6683 18.3406 17.4206 18.2473 17.189C18.154 16.9575 18.0157 16.7468 17.8404 16.5691C17.665 16.3915 17.4561 16.2504 17.2258 16.1542C16.9955 16.0579 16.7484 16.0083 16.4988 16.0083C16.2492 16.0083 16.002 16.0579 15.7717 16.1542C15.5414 16.2504 15.3326 16.3915 15.1572 16.5691C14.9819 16.7468 14.8435 16.9575 14.7503 17.189C14.657 17.4206 14.6107 17.6683 14.6139 17.9179V20.096C14.6139 20.1964 14.5942 20.2957 14.5558 20.3884C14.5174 20.4811 14.4611 20.5653 14.3902 20.6362C14.3192 20.7072 14.235 20.7635 14.1423 20.8018C14.0496 20.8402 13.9503 20.86 13.85 20.86C13.7496 20.86 13.6503 20.8402 13.5576 20.8018C13.4649 20.7635 13.3807 20.7072 13.3098 20.6362C13.2388 20.5653 13.1826 20.4811 13.1442 20.3884C13.1058 20.2957 13.086 20.1964 13.086 20.096V13.9502C13.086 13.8015 13.027 13.659 12.9218 13.5538C12.8167 13.4487 12.6741 13.3897 12.5255 13.3897H11.4306C11.2684 13.3895 11.1129 13.325 10.9982 13.2103C10.8835 13.0956 10.819 12.9401 10.8188 12.7779V7.8031C10.819 7.64089 10.8835 7.48537 10.9982 7.37068C11.1129 7.25598 11.2684 7.19147 11.4306 7.1913H29.6484C29.8106 7.19147 29.9661 7.25598 30.0808 7.37068C30.1955 7.48537 30.26 7.64089 30.2602 7.8031L30.2593 8.74706ZM22.845 27.7044V33.0335C22.8482 33.2745 22.8035 33.5137 22.7134 33.7373C22.6234 33.9609 22.4899 34.1644 22.3206 34.336C22.1513 34.5076 21.9496 34.6438 21.7272 34.7368C21.5048 34.8298 21.2662 34.8776 21.0251 34.8776C20.7841 34.8776 20.5454 34.8298 20.3231 34.7368C20.1007 34.6438 19.899 34.5076 19.7297 34.336C19.5604 34.1644 19.4268 33.9609 19.3368 33.7373C19.2468 33.5137 19.2021 33.2745 19.2053 33.0335V27.7044H22.845ZM22.2172 25.1836V26.5833H19.8347V25.1836H22.2172ZM32.4204 9.30856V11.2727H31.3803V9.30856H32.4204Z"
        fill="currentColor" />
    <path
        d="M17.5769 14.5107C17.7256 14.5107 17.8681 14.4517 17.9733 14.3466C18.0784 14.2414 18.1374 14.0989 18.1374 13.9502C18.1374 13.8015 18.0784 13.659 17.9733 13.5538C17.8681 13.4487 17.7256 13.3896 17.5769 13.3896H15.1294C14.9807 13.3896 14.8382 13.4487 14.733 13.5538C14.6279 13.659 14.5688 13.8015 14.5688 13.9502C14.5688 14.0989 14.6279 14.2414 14.733 14.3466C14.8382 14.4517 14.9807 14.5107 15.1294 14.5107H17.5769Z"
        fill="currentColor" />
</svg>