<svg width="41" height="42" viewBox="0 0 41 42" fill="none" xmlns="http://www.w3.org/2000/svg">
    <path
        d="M21.8924 6.02539H19.1076C18.6775 6.0259 18.2652 6.197 17.9611 6.50116C17.657 6.80531 17.486 7.21768 17.4855 7.64777V9.75095H7.88321C7.25806 9.75171 6.65873 10.0004 6.21671 10.4425C5.77469 10.8846 5.52607 11.4839 5.52539 12.1091V21.565C5.52607 22.1902 5.7747 22.7895 6.21673 23.2315C6.65876 23.6735 7.25809 23.9222 7.88321 23.9229H17.4855V35.4141C17.4855 35.5627 17.5446 35.7053 17.6497 35.8104C17.7548 35.9156 17.8974 35.9746 18.0461 35.9746H22.9539C23.1026 35.9746 23.2452 35.9156 23.3503 35.8104C23.4554 35.7053 23.5145 35.5627 23.5145 35.4141V23.9229H33.1168C33.7419 23.9222 34.3412 23.6735 34.7833 23.2315C35.2253 22.7895 35.4739 22.1902 35.4746 21.565V12.1091C35.4739 11.4839 35.2253 10.8846 34.7833 10.4425C34.3413 10.0004 33.7419 9.75171 33.1168 9.75095H23.5145V7.64777C23.514 7.21768 23.343 6.80531 23.0389 6.50116C22.7348 6.197 22.3225 6.0259 21.8924 6.02539ZM18.6066 7.64777C18.6067 7.5149 18.6595 7.3875 18.7534 7.29351C18.8474 7.19953 18.9747 7.14665 19.1076 7.14648H21.8924C22.0253 7.14665 22.1526 7.19953 22.2466 7.29351C22.3405 7.3875 22.3933 7.5149 22.3934 7.64777V9.75095H18.6066V7.64777ZM22.3934 34.8535H18.607V23.927H22.3934V34.8535ZM33.1168 10.872C33.4447 10.8725 33.7591 11.0029 33.9909 11.2348C34.2228 11.4668 34.3532 11.7812 34.3535 12.1091V21.565C34.3532 21.8929 34.2228 22.2073 33.9909 22.4392C33.7591 22.671 33.4447 22.8014 33.1168 22.8018H7.88321C7.55531 22.8014 7.24095 22.671 7.00909 22.4392C6.77723 22.2073 6.64682 21.8929 6.64648 21.565V12.1091C6.64682 11.7812 6.77722 11.4668 7.00907 11.2348C7.24092 11.0029 7.55529 10.8725 7.88321 10.872H33.1168Z"
        fill="currentColor" />
    <path
        d="M19.9828 13.5483C20.1315 13.5483 20.274 13.4892 20.3792 13.3841C20.4843 13.279 20.5433 13.1364 20.5433 12.9877C20.5433 12.8391 20.4843 12.6965 20.3792 12.5914C20.274 12.4862 20.1315 12.4272 19.9828 12.4272H16.9331C16.7844 12.4272 16.6419 12.4862 16.5367 12.5914C16.4316 12.6965 16.3726 12.8391 16.3726 12.9877V20.69C16.3726 20.8386 16.4316 20.9812 16.5367 21.0863C16.6419 21.1915 16.7844 21.2505 16.9331 21.2505H19.9828C20.1315 21.2505 20.274 21.1915 20.3792 21.0863C20.4843 20.9812 20.5433 20.8386 20.5433 20.69C20.5433 20.5413 20.4843 20.3987 20.3792 20.2936C20.274 20.1885 20.1315 20.1294 19.9828 20.1294H17.4937V17.3991H19.0584C19.207 17.3991 19.3496 17.34 19.4547 17.2349C19.5599 17.1298 19.6189 16.9872 19.6189 16.8385C19.6189 16.6899 19.5599 16.5473 19.4547 16.4422C19.3496 16.337 19.207 16.278 19.0584 16.278H17.4937V13.5483H19.9828Z"
        fill="currentColor" />
    <path
        d="M14.8073 15.4986V14.914C14.8065 14.255 14.5444 13.6231 14.0783 13.1571C13.6123 12.691 12.9804 12.4289 12.3213 12.4281H11.0635C10.9148 12.4281 10.7722 12.4872 10.6671 12.5923C10.562 12.6974 10.5029 12.84 10.5029 12.9886V20.6899C10.5078 20.8353 10.5691 20.9731 10.6736 21.0742C10.7782 21.1753 10.918 21.2318 11.0635 21.2318C11.2089 21.2318 11.3487 21.1753 11.4533 21.0742C11.5579 20.9731 11.6191 20.8353 11.624 20.6899V17.9849H12.2813L13.4985 20.9055C13.5257 20.9749 13.5666 21.0383 13.6186 21.0917C13.6706 21.1452 13.7328 21.1877 13.8015 21.2168C13.8702 21.246 13.944 21.2611 14.0186 21.2613C14.0932 21.2615 14.1671 21.2469 14.2359 21.2182C14.3048 21.1895 14.3672 21.1473 14.4196 21.0942C14.472 21.0411 14.5132 20.978 14.5409 20.9087C14.5685 20.8395 14.5821 20.7653 14.5808 20.6908C14.5794 20.6162 14.5632 20.5426 14.5331 20.4744L13.3928 17.7382C13.8157 17.5362 14.1728 17.2187 14.4231 16.8225C14.6734 16.4262 14.8065 15.9673 14.8073 15.4986ZM13.6862 15.4986C13.6858 15.8605 13.5418 16.2074 13.286 16.4634C13.0301 16.7193 12.6832 16.8633 12.3213 16.8638H11.6247V13.5482H12.3213C12.6834 13.5487 13.0304 13.6927 13.2863 13.9488C13.5422 14.2049 13.686 14.552 13.6862 14.914V15.4986Z"
        fill="currentColor" />
    <path
        d="M22.5181 20.69V15.5153L25.0424 20.927C25.0964 21.0426 25.1881 21.1364 25.3026 21.1928C25.417 21.2492 25.5473 21.2649 25.6718 21.2373C25.7964 21.2097 25.9078 21.1404 25.9877 21.0409C26.0675 20.9413 26.111 20.8175 26.111 20.69V12.9877C26.111 12.8391 26.0519 12.6965 25.9468 12.5914C25.8417 12.4862 25.6991 12.4272 25.5504 12.4272C25.4018 12.4272 25.2592 12.4862 25.1541 12.5914C25.049 12.6965 24.9899 12.8391 24.9899 12.9877V18.1624L22.4646 12.7507C22.4106 12.6351 22.3189 12.5413 22.2044 12.4848C22.09 12.4284 21.9597 12.4127 21.8352 12.4404C21.7106 12.468 21.5992 12.5373 21.5193 12.6368C21.4395 12.7363 21.396 12.8601 21.396 12.9877V20.69C21.396 20.8386 21.4551 20.9812 21.5602 21.0863C21.6653 21.1914 21.8079 21.2505 21.9565 21.2505C22.1052 21.2505 22.2478 21.1914 22.3529 21.0863C22.458 20.9812 22.5171 20.8386 22.5171 20.69H22.5181Z"
        fill="currentColor" />
    <path
        d="M29.4225 21.2505C29.5711 21.2505 29.7137 21.1915 29.8188 21.0863C29.9239 20.9812 29.983 20.8386 29.983 20.69V13.547H31.2687C31.4174 13.547 31.56 13.4879 31.6651 13.3828C31.7702 13.2777 31.8293 13.1351 31.8293 12.9865C31.8293 12.8378 31.7702 12.6952 31.6651 12.5901C31.56 12.485 31.4174 12.4259 31.2687 12.4259H27.5762C27.4275 12.4259 27.2849 12.485 27.1798 12.5901C27.0747 12.6952 27.0156 12.8378 27.0156 12.9865C27.0156 13.1351 27.0747 13.2777 27.1798 13.3828C27.2849 13.4879 27.4275 13.547 27.5762 13.547H28.8619V20.69C28.8619 20.8386 28.921 20.9812 29.0261 21.0863C29.1312 21.1915 29.2738 21.2505 29.4225 21.2505Z"
        fill="currentColor" />
</svg>