<svg width="41" height="42" viewBox="0 0 41 42" fill="none" xmlns="http://www.w3.org/2000/svg">
    <path
        d="M5.56875 21.8258C5.60807 21.9339 5.67973 22.0274 5.774 22.0934C5.86827 22.1594 5.98057 22.1948 6.09566 22.1948H9.02652V35.4141C9.0266 35.5627 9.08569 35.7052 9.19079 35.8103C9.2959 35.9154 9.43843 35.9745 9.58707 35.9746H31.4708C31.6195 35.9746 31.7621 35.9156 31.8672 35.8104C31.9723 35.7053 32.0314 35.5627 32.0314 35.4141V22.1948H34.9622C35.0773 22.1948 35.1896 22.1593 35.2839 22.0933C35.3781 22.0272 35.4497 21.9338 35.489 21.8256C35.5283 21.7174 35.5334 21.5998 35.5035 21.4886C35.4736 21.3775 35.4102 21.2782 35.3219 21.2044L28.2078 15.2491C28.4356 14.1127 28.4084 12.9399 28.128 11.8153C27.8477 10.6907 27.3212 9.64239 26.5866 8.74591C25.852 7.84943 24.9276 7.12717 23.8801 6.63123C22.8325 6.1353 21.688 5.87805 20.5289 5.87805C19.3699 5.87805 18.2254 6.1353 17.1778 6.63123C16.1303 7.12717 15.2059 7.84943 14.4713 8.74591C13.7367 9.64239 13.2102 10.6907 12.9299 11.8153C12.6495 12.9399 12.6223 14.1127 12.8501 15.2491L5.73595 21.2044C5.64771 21.2783 5.58434 21.3776 5.55443 21.4887C5.52452 21.5999 5.52952 21.7176 5.56875 21.8258ZM18.4572 34.8535H13.7114V24.6836H18.4572V34.8535ZM20.5289 7.01517C21.5472 7.01459 22.5522 7.24588 23.4678 7.6915C24.3834 8.13712 25.1855 8.78538 25.8132 9.5871C26.441 10.3888 26.878 11.323 27.091 12.3187C27.3041 13.3144 27.2876 14.3456 27.0428 15.334C27.0233 15.4163 27.0018 15.4993 26.973 15.5922C26.5695 16.9906 25.722 18.2197 24.5585 19.0942C23.395 19.9686 21.9787 20.4409 20.5232 20.4396C19.0678 20.4384 17.6522 19.9638 16.4902 19.0874C15.3282 18.211 14.4829 16.9804 14.0817 15.5813C14.0567 15.5006 14.0343 15.417 14.0131 15.325C13.77 14.3371 13.7548 13.3067 13.9687 12.312C14.1826 11.3174 14.62 10.3844 15.2478 9.5837C15.8756 8.78305 16.6774 8.13571 17.5923 7.69071C18.5073 7.2457 19.5115 7.01469 20.5289 7.01517ZM13.1839 16.4324C13.7358 17.9364 14.7361 19.2348 16.0497 20.1521C17.3633 21.0693 18.9268 21.5611 20.5289 21.5611C22.1311 21.5611 23.6946 21.0693 25.0082 20.1521C26.3218 19.2348 27.3221 17.9364 27.874 16.4324L33.4193 21.0737H31.4708C31.3221 21.0737 31.1796 21.1327 31.0744 21.2379C30.9693 21.343 30.9103 21.4856 30.9103 21.6342V34.8535H19.5783V24.1231C19.5782 23.9744 19.5191 23.8319 19.414 23.7268C19.3089 23.6217 19.1663 23.5626 19.0177 23.5625H13.1509C13.0022 23.5625 12.8596 23.6216 12.7545 23.7267C12.6494 23.8318 12.5903 23.9744 12.5903 24.1231V34.8535H10.1476V21.6342C10.1475 21.4856 10.0884 21.3431 9.98334 21.238C9.87823 21.1329 9.73571 21.0738 9.58707 21.0737H7.6386L13.1839 16.4324Z"
        fill="currentColor" />
    <path
        d="M20.6808 16.1223H20.118C19.9292 16.122 19.7483 16.0469 19.6149 15.9134C19.4815 15.7799 19.4064 15.5989 19.4063 15.4102C19.4063 15.2615 19.3472 15.119 19.2421 15.0138C19.137 14.9087 18.9944 14.8497 18.8457 14.8497C18.697 14.8497 18.5545 14.9087 18.4493 15.0138C18.3442 15.119 18.2852 15.2615 18.2852 15.4102C18.2858 15.8701 18.4591 16.313 18.7708 16.6511C19.0824 16.9893 19.5098 17.198 19.9681 17.236V18.03C19.973 18.1754 20.0342 18.3132 20.1388 18.4143C20.2434 18.5154 20.3832 18.572 20.5286 18.572C20.6741 18.572 20.8139 18.5154 20.9185 18.4143C21.0231 18.3132 21.0843 18.1754 21.0892 18.03V17.2027C21.5631 17.1076 21.9897 16.8516 22.2964 16.4779C22.6031 16.1043 22.7712 15.6361 22.7721 15.1527C22.7728 14.7378 22.6339 14.3348 22.3778 14.0085C22.1216 13.6821 21.763 13.4515 21.3598 13.3538L19.963 13.0133C19.8039 12.9748 19.6625 12.8838 19.5615 12.7551C19.4604 12.6264 19.4056 12.4674 19.4059 12.3038V12.0453C19.4061 11.8566 19.4811 11.6756 19.6146 11.5421C19.748 11.4086 19.9289 11.3335 20.1177 11.3333H20.9393C21.128 11.3335 21.3089 11.4086 21.4424 11.5421C21.5758 11.6756 21.6508 11.8566 21.651 12.0453C21.651 12.194 21.7101 12.3366 21.8152 12.4417C21.9203 12.5468 22.0629 12.6059 22.2116 12.6059C22.3602 12.6059 22.5028 12.5468 22.6079 12.4417C22.713 12.3366 22.7721 12.194 22.7721 12.0453C22.7716 11.5854 22.5983 11.1425 22.2866 10.8043C21.9749 10.4662 21.5475 10.2575 21.0892 10.2195V9.42485C21.0843 9.27946 21.0231 9.14167 20.9185 9.04056C20.8139 8.93945 20.6741 8.88293 20.5286 8.88293C20.3832 8.88293 20.2434 8.93945 20.1388 9.04056C20.0342 9.14167 19.973 9.27946 19.9681 9.42485V10.2189C19.5098 10.2569 19.0824 10.4656 18.7708 10.8038C18.4591 11.1419 18.2858 11.5848 18.2852 12.0447V12.3032C18.2843 12.718 18.4232 13.1211 18.6794 13.4474C18.9356 13.7736 19.2942 14.0042 19.6974 14.1017L21.0943 14.4425C21.2533 14.4811 21.3947 14.572 21.4958 14.7007C21.5968 14.8294 21.6516 14.9884 21.6513 15.152C21.6509 15.4093 21.5485 15.6559 21.3666 15.8377C21.1846 16.0196 20.938 16.1219 20.6808 16.1223Z"
        fill="currentColor" />
    <path
        d="M27.9255 30.5687C28.0741 30.5686 28.2166 30.5095 28.3217 30.4044C28.4268 30.2993 28.4859 30.1568 28.486 30.0081V24.1227C28.4858 23.9741 28.4267 23.8317 28.3216 23.7267C28.2165 23.6216 28.074 23.5626 27.9255 23.5625H22.04C21.8914 23.5625 21.7488 23.6216 21.6437 23.7267C21.5386 23.8318 21.4795 23.9744 21.4795 24.123V30.0081C21.4795 30.1568 21.5386 30.2994 21.6437 30.4045C21.7488 30.5096 21.8914 30.5687 22.04 30.5687H27.9255ZM22.6006 24.6836H27.3649V29.4476H22.6006V24.6836Z"
        fill="currentColor" />
</svg>