<svg width="41" height="42" viewBox="0 0 41 42" fill="none" xmlns="http://www.w3.org/2000/svg">
    <path
        d="M21.8924 6.02539H19.1076C18.6775 6.02581 18.2652 6.19685 17.9611 6.50095C17.657 6.80505 17.486 7.21739 17.4855 7.64745V9.75095H7.88321C7.25811 9.75171 6.65883 10.0004 6.21682 10.4424C5.77481 10.8844 5.52615 11.4837 5.52539 12.1088V21.565C5.52615 22.1901 5.77481 22.7894 6.21682 23.2314C6.65883 23.6734 7.25811 23.9221 7.88321 23.9229H17.4855V35.4141C17.4855 35.4877 17.5 35.5606 17.5281 35.6286C17.5563 35.6967 17.5976 35.7585 17.6496 35.8105C17.7017 35.8626 17.7635 35.9039 17.8315 35.932C17.8996 35.9602 17.9725 35.9747 18.0461 35.9746H22.9539C23.0275 35.9747 23.1004 35.9602 23.1685 35.932C23.2365 35.9039 23.2983 35.8626 23.3504 35.8105C23.4024 35.7585 23.4437 35.6967 23.4719 35.6286C23.5 35.5606 23.5145 35.4877 23.5145 35.4141V23.9229H33.1168C33.7419 23.9221 34.3412 23.6734 34.7832 23.2314C35.2252 22.7894 35.4738 22.1901 35.4746 21.565V12.1088C35.4738 11.4837 35.2252 10.8844 34.7832 10.4424C34.3412 10.0004 33.7419 9.75171 33.1168 9.75095H23.5145V7.64745C23.514 7.21739 23.343 6.80505 23.0389 6.50095C22.7348 6.19685 22.3225 6.02581 21.8924 6.02539ZM18.6066 7.64745C18.6068 7.51464 18.6596 7.38732 18.7535 7.2934C18.8475 7.19949 18.9748 7.14665 19.1076 7.14648H21.8924C22.0252 7.14665 22.1525 7.19949 22.2465 7.2934C22.3404 7.38732 22.3932 7.51464 22.3934 7.64745V9.75095H18.6066V7.64745ZM22.3934 34.8535H18.6066V23.927H22.3934V34.8535ZM33.1168 10.872C33.4447 10.8724 33.7591 11.0028 33.9909 11.2346C34.2228 11.4665 34.3532 11.7809 34.3535 12.1088V21.565C34.3532 21.8929 34.2228 22.2073 33.9909 22.4392C33.7591 22.671 33.4447 22.8014 33.1168 22.8018H7.88321C7.55531 22.8014 7.24095 22.671 7.00909 22.4392C6.77723 22.2073 6.64682 21.8929 6.64648 21.565V12.1088C6.64682 11.7809 6.77723 11.4665 7.00909 11.2346C7.24095 11.0028 7.55531 10.8724 7.88321 10.872H33.1168Z"
        fill="currentColor" />
    <path
        d="M11.7406 20.1275H11.6221C11.2928 20.1271 10.9772 19.9962 10.7443 19.7635C10.5114 19.5308 10.3804 19.2152 10.3799 18.8859C10.3799 18.7373 10.3208 18.5947 10.2157 18.4896C10.1106 18.3845 9.968 18.3254 9.81934 18.3254C9.67067 18.3254 9.52809 18.3845 9.42297 18.4896C9.31785 18.5947 9.25879 18.7373 9.25879 18.8859C9.25947 19.5125 9.50866 20.1133 9.9517 20.5564C10.3947 20.9995 10.9955 21.2488 11.6221 21.2495H11.7406C12.3672 21.2488 12.9679 20.9995 13.4109 20.5564C13.854 20.1133 14.1032 19.5125 14.1038 18.8859C14.1026 18.5135 14.0065 18.1475 13.8247 17.8225C13.6428 17.4974 13.3812 17.224 13.0644 17.0281L10.8844 15.6899C10.7307 15.5948 10.6037 15.4621 10.5154 15.3043C10.4272 15.1466 10.3805 14.969 10.3799 14.7882C10.3802 14.4589 10.5112 14.1431 10.7441 13.9102C10.977 13.6773 11.2927 13.5464 11.6221 13.546H11.7406C12.0699 13.5464 12.3857 13.6773 12.6185 13.9102C12.8514 14.1431 12.9824 14.4589 12.9827 14.7882C12.9827 14.9369 13.0418 15.0794 13.1469 15.1846C13.252 15.2897 13.3946 15.3487 13.5433 15.3487C13.692 15.3487 13.8345 15.2897 13.9397 15.1846C14.0448 15.0794 14.1038 14.9369 14.1038 14.7882C14.1031 14.1616 13.8538 13.561 13.4108 13.118C12.9678 12.6749 12.3671 12.4257 11.7406 12.4249H11.6221C10.9955 12.4257 10.3948 12.6749 9.95182 13.118C9.50878 13.561 9.25955 14.1616 9.25879 14.7882C9.25998 15.1606 9.35603 15.5267 9.53789 15.8517C9.71975 16.1768 9.98141 16.4501 10.2982 16.646L12.4783 17.9839C12.6321 18.079 12.7591 18.2117 12.8474 18.3696C12.9357 18.5274 12.9823 18.7051 12.9827 18.8859C12.9822 19.2152 12.8512 19.5308 12.6183 19.7635C12.3855 19.9962 12.0698 20.1271 11.7406 20.1275Z"
        fill="currentColor" />
    <path
        d="M22.9541 12.4252C22.8805 12.4252 22.8076 12.4397 22.7395 12.4678C22.6715 12.496 22.6097 12.5373 22.5576 12.5893C22.5056 12.6414 22.4643 12.7032 22.4361 12.7712C22.408 12.8392 22.3935 12.9122 22.3936 12.9858V20.688C22.3936 20.8367 22.4526 20.9793 22.5577 21.0844C22.6629 21.1895 22.8054 21.2486 22.9541 21.2486H25.9282C26.0769 21.2486 26.2194 21.1895 26.3246 21.0844C26.4297 20.9793 26.4887 20.8367 26.4887 20.688C26.4887 20.5393 26.4297 20.3968 26.3246 20.2916C26.2194 20.1865 26.0769 20.1275 25.9282 20.1275H23.5146V12.9858C23.5147 12.9122 23.5002 12.8392 23.4721 12.7712C23.4439 12.7032 23.4026 12.6414 23.3506 12.5893C23.2985 12.5373 23.2367 12.496 23.1687 12.4678C23.1006 12.4397 23.0277 12.4252 22.9541 12.4252Z"
        fill="currentColor" />
    <path
        d="M15.9786 21.2505C16.0996 21.2504 16.2173 21.2113 16.3142 21.1388C16.4111 21.0664 16.4819 20.9645 16.5161 20.8485L16.8108 19.8481H19.6856L19.9806 20.8485C20.0011 20.9195 20.0354 20.9857 20.0816 21.0434C20.1278 21.1011 20.1849 21.1491 20.2497 21.1847C20.3145 21.2202 20.3857 21.2426 20.4591 21.2505C20.5326 21.2584 20.6069 21.2518 20.6778 21.2308C20.7487 21.2099 20.8147 21.1752 20.8721 21.1287C20.9295 21.0822 20.9772 21.0248 21.0123 20.9598C21.0475 20.8948 21.0694 20.8234 21.0769 20.7499C21.0844 20.6764 21.0772 20.6021 21.0559 20.5314L20.6754 19.2405C20.6691 19.1649 20.6473 19.0914 20.6113 19.0246L18.7855 12.8291C18.7513 12.7131 18.6804 12.6112 18.5835 12.5388C18.4866 12.4663 18.3689 12.4272 18.2479 12.4272C18.1269 12.4272 18.0092 12.4663 17.9123 12.5388C17.8153 12.6112 17.7445 12.7131 17.7103 12.8291L15.4408 20.5314C15.3988 20.674 15.4151 20.8274 15.4862 20.958C15.5572 21.0886 15.6772 21.1856 15.8198 21.2277C15.8714 21.2428 15.9249 21.2504 15.9786 21.2505ZM18.2484 14.9704L19.3554 18.7258H17.1414L18.2484 14.9704Z"
        fill="currentColor" />
    <path
        d="M31.181 13.546C31.3297 13.546 31.4723 13.487 31.5774 13.3818C31.6825 13.2767 31.7416 13.1341 31.7416 12.9855C31.7416 12.8368 31.6825 12.6942 31.5774 12.5891C31.4723 12.484 31.3297 12.4249 31.181 12.4249H28.1313C27.9827 12.425 27.8402 12.4841 27.7351 12.5892C27.63 12.6943 27.5709 12.8368 27.5708 12.9855V20.688C27.5709 20.8367 27.63 20.9792 27.7351 21.0843C27.8402 21.1894 27.9827 21.2485 28.1313 21.2486H31.181C31.3297 21.2486 31.4723 21.1895 31.5774 21.0844C31.6825 20.9793 31.7416 20.8367 31.7416 20.688C31.7416 20.5394 31.6825 20.3968 31.5774 20.2917C31.4723 20.1865 31.3297 20.1275 31.181 20.1275H28.6919V17.3975H30.2553C30.404 17.3975 30.5466 17.3384 30.6517 17.2333C30.7568 17.1282 30.8159 16.9856 30.8159 16.8369C30.8159 16.6882 30.7568 16.5457 30.6517 16.4405C30.5466 16.3354 30.404 16.2764 30.2553 16.2764H28.6919V13.546H31.181Z"
        fill="currentColor" />
</svg>