<svg width="16" height="17" viewBox="0 0 16 17" fill="none" xmlns="http://www.w3.org/2000/svg">
<path fill-rule="evenodd" clip-rule="evenodd" d="M3.55499 3.64044L6.91386 2.07611C7.60896 1.75238 8.40239 1.75238 9.09748 2.07611L12.443 3.63424C13.4214 4.08988 14.0635 5.11395 13.995 6.23353C13.7321 10.5279 12.5604 12.4693 9.39325 14.7215C8.55742 15.3158 7.45484 15.3144 6.61839 14.721C3.46094 12.481 2.24581 10.5667 2.00411 6.21847C1.94229 5.10624 2.58343 4.09292 3.55499 3.64044ZM10.3763 7.49591C10.5581 7.28809 10.537 6.97221 10.3292 6.79037C10.1214 6.60852 9.80553 6.62958 9.62369 6.8374L7.71042 9.024C7.65169 9.09112 7.55052 9.10011 7.48087 9.04439L6.31233 8.10955C6.09669 7.93705 5.78205 7.97201 5.60954 8.18764C5.43704 8.40327 5.472 8.71792 5.68763 8.89042L6.85618 9.82526C7.3437 10.2153 8.05187 10.1524 8.463 9.6825L10.3763 7.49591Z" fill="url(#paint0_linear_542_3158)"/>
<defs>
<linearGradient id="paint0_linear_542_3158" x1="8" y1="1.83331" x2="8" y2="15.1666" gradientUnits="userSpaceOnUse">
<stop stop-color="#7BCF94"/>
<stop offset="1" stop-color="#0091DA"/>
</linearGradient>
</defs>
</svg>
