<svg width="16" height="17" viewBox="0 0 16 17" fill="none" xmlns="http://www.w3.org/2000/svg">
<path fill-rule="evenodd" clip-rule="evenodd" d="M3.55499 3.521L6.91386 1.95666C7.60896 1.63294 8.40239 1.63294 9.09748 1.95666L12.443 3.51479C13.4214 3.97043 14.0635 4.9945 13.995 6.11408C13.7321 10.4085 12.5604 12.3498 9.39325 14.602C8.55742 15.1964 7.45484 15.1949 6.61839 14.6015C3.46094 12.3615 2.24581 10.4473 2.00411 6.09902C1.94229 4.98679 2.58343 3.97348 3.55499 3.521ZM10.3763 7.37646C10.5581 7.16864 10.537 6.85276 10.3292 6.67092C10.1214 6.48908 9.80553 6.51014 9.62369 6.71796L7.71042 8.90455C7.65169 8.97167 7.55052 8.98066 7.48087 8.92494L6.31233 7.99011C6.09669 7.8176 5.78205 7.85256 5.60954 8.06819C5.43704 8.28382 5.472 8.59847 5.68763 8.77098L6.85618 9.70581C7.3437 10.0958 8.05187 10.0329 8.463 9.56306L10.3763 7.37646Z" fill="white"/>
</svg>
