<svg width="49" height="48" viewBox="0 0 49 48" fill="none" xmlns="http://www.w3.org/2000/svg">
<rect x="0.299805" width="48" height="48" rx="16" fill="white"/>
<path fill-rule="evenodd" clip-rule="evenodd" d="M10.6668 23.0473H10.3335C9.78122 23.0473 9.3335 23.495 9.3335 24.0473C9.3335 24.5996 9.78122 25.0473 10.3335 25.0473H10.6668V25.3806L10.6669 25.3958L10.6668 25.4697V25.5201C10.6668 26.0205 10.6668 26.3137 10.6876 26.6409C10.8768 29.6228 12.4882 32.3764 14.8236 34.1769C15.0339 34.3441 16.0411 34.9604 16.5184 35.2474C17.5874 35.7885 18.7499 36.1446 19.959 36.267C20.2849 36.3001 20.4838 36.3076 20.8227 36.3204L20.8317 36.3206C21.8187 36.3577 22.7848 36.3806 23.6668 36.3806C24.5488 36.3806 25.515 36.3577 26.5019 36.3206L26.5108 36.3204C26.8498 36.3076 27.0488 36.3001 27.3747 36.267C28.5839 36.1446 29.7466 35.7885 30.8156 35.2473C31.2668 34.9817 32.2375 34.3958 32.5104 34.1766C34.8456 32.3761 36.4568 29.6226 36.6462 26.6409C36.6668 26.3137 36.6668 26.0205 36.6668 25.5201V25.4697C36.6668 25.3896 36.667 25.3062 36.6619 25.2293C36.6579 25.168 36.6516 25.1073 36.643 25.0473H37.0002C37.5524 25.0473 38.0002 24.5996 38.0002 24.0473C38.0002 23.495 37.5524 23.0473 37.0002 23.0473H12.6668H10.6668Z" fill="url(#paint0_linear_222_10688)"/>
<path d="M14.8236 34.1769C14.8053 34.2057 14.7882 34.2357 14.7726 34.267L13.4393 36.9337C13.1923 37.4277 13.3925 38.0283 13.8865 38.2753C14.3805 38.5222 14.9812 38.3221 15.2281 37.8281L16.5184 35.2475C16.0411 34.9603 15.0339 34.3442 14.8236 34.1769Z" fill="url(#paint1_linear_222_10688)"/>
<path d="M30.8149 35.2471L32.1053 37.8279C32.3523 38.3219 32.9531 38.5222 33.4469 38.2751C33.9409 38.0282 34.1412 37.4275 33.8941 36.9335L32.5608 34.2669C32.5452 34.2355 32.5281 34.2054 32.5097 34.1765C32.2369 34.3957 31.2663 34.9817 30.8149 35.2471Z" fill="url(#paint2_linear_222_10688)"/>
<path d="M12.6665 13.8941C12.6665 12.69 13.6426 11.7139 14.8467 11.7139C15.7382 11.7139 16.5399 12.2567 16.871 13.0844L17.062 13.562L18.8748 12.7088L18.728 12.3416C18.0931 10.7546 16.556 9.71393 14.8467 9.71393C12.5381 9.71393 10.6665 11.5855 10.6665 13.8941V23.0473H12.6665V13.8941Z" fill="url(#paint3_linear_222_10688)"/>
<path d="M17.0615 13.5621C16.2688 14.1397 15.6212 14.9452 15.2223 15.9275C14.6619 17.3076 14.6921 18.7896 15.1964 20.0694C15.2956 20.3212 15.4926 20.522 15.7424 20.626C15.9923 20.73 16.2736 20.7283 16.5222 20.6213L24.4699 17.1998C24.966 16.9863 25.2028 16.4173 25.0048 15.9147C24.5003 14.6344 23.5152 13.5432 22.1615 12.9649C21.0797 12.5027 19.932 12.4406 18.8743 12.7089L17.0615 13.5621Z" fill="url(#paint4_linear_222_10688)"/>
<defs>
<linearGradient id="paint0_linear_222_10688" x1="9.3335" y1="29.714" x2="38.0002" y2="29.714" gradientUnits="userSpaceOnUse">
<stop stop-color="#FFDA31"/>
<stop offset="1" stop-color="#FF9500"/>
</linearGradient>
<linearGradient id="paint1_linear_222_10688" x1="13.3335" y1="36.279" x2="16.5184" y2="36.279" gradientUnits="userSpaceOnUse">
<stop stop-color="#FFDA31"/>
<stop offset="1" stop-color="#FF9500"/>
</linearGradient>
<linearGradient id="paint2_linear_222_10688" x1="30.8149" y1="36.2787" x2="34" y2="36.2787" gradientUnits="userSpaceOnUse">
<stop stop-color="#FFDA31"/>
<stop offset="1" stop-color="#FF9500"/>
</linearGradient>
<linearGradient id="paint3_linear_222_10688" x1="10.6665" y1="16.3806" x2="18.8748" y2="16.3806" gradientUnits="userSpaceOnUse">
<stop stop-color="#FFDA31"/>
<stop offset="1" stop-color="#FF9500"/>
</linearGradient>
<linearGradient id="paint4_linear_222_10688" x1="14.8101" y1="16.6263" x2="25.0747" y2="16.6263" gradientUnits="userSpaceOnUse">
<stop stop-color="#DB4D00"/>
<stop offset="1" stop-color="#FF7C2B"/>
</linearGradient>
</defs>
</svg>
