<svg width="33" height="33" viewBox="0 0 33 33" fill="none" xmlns="http://www.w3.org/2000/svg">
<path d="M5.08626 27.442C7.03888 29.3947 10.1816 29.3947 16.467 29.3947C22.7523 29.3947 25.8951 29.3947 27.8476 27.442C29.8003 25.4895 29.8003 22.3467 29.8003 16.0614C29.8003 9.77596 29.8003 6.63327 27.8476 4.68065C25.8951 2.72803 22.7523 2.72803 16.467 2.72803C10.1816 2.72803 7.03888 2.72803 5.08626 4.68065C3.13364 6.63327 3.13364 9.77596 3.13364 16.0614C3.13364 22.3467 3.13364 25.4895 5.08626 27.442Z" fill="url(#paint0_linear_222_10346)"/>
<path opacity="0.8" d="M18.1337 9.39506C18.1337 8.97822 18.3922 8.6051 18.7826 8.45874C19.1729 8.31237 19.613 8.42347 19.8871 8.73753L23.8871 13.3209C24.2502 13.737 24.2073 14.3686 23.7913 14.7318C23.3751 15.095 22.7434 15.0521 22.3802 14.636L20.1337 12.0617V22.7284C20.1337 23.2806 19.6859 23.7284 19.1337 23.7284C18.5814 23.7284 18.1337 23.2806 18.1337 22.7284V9.39506Z" fill="white"/>
<path opacity="0.8" d="M10.5538 17.4875C10.1906 17.0714 9.55891 17.0284 9.14281 17.3916C8.7267 17.7547 8.68377 18.3864 9.04691 18.8026L13.0469 23.3859C13.321 23.6999 13.7612 23.8111 14.1515 23.6647C14.5418 23.5183 14.8003 23.1452 14.8003 22.7283V9.39502C14.8003 8.84274 14.3526 8.39502 13.8003 8.39502C13.2481 8.39502 12.8003 8.84274 12.8003 9.39502V20.0616L10.5538 17.4875Z" fill="white"/>
<defs>
<linearGradient id="paint0_linear_222_10346" x1="16.467" y1="2.72803" x2="16.467" y2="29.3947" gradientUnits="userSpaceOnUse">
<stop stop-color="#7BCF94"/>
<stop offset="1" stop-color="#0091DA"/>
</linearGradient>
</defs>
</svg>
