<svg width="40" height="40" viewBox="0 0 40 40" fill="none" xmlns="http://www.w3.org/2000/svg">
<path d="M13.3564 29.2812C18.0163 29.2812 21.7939 25.5037 21.7939 20.8437C21.7939 16.1838 18.0163 12.4062 13.3564 12.4062C8.69654 12.4062 4.91895 16.1838 4.91895 20.8437C4.91895 25.5037 8.69654 29.2812 13.3564 29.2812Z" fill="#E5F8F7"/>
<path d="M11.6689 35.0938H30.8314V13.05L24.1252 6.34375H18.3752L11.6689 13.05V35.0938Z" stroke="#00B5B0" stroke-linecap="round" stroke-linejoin="round"/>
<path d="M21.2502 13.5812C22.1925 13.5812 22.9564 12.8173 22.9564 11.875C22.9564 10.9326 22.1925 10.1687 21.2502 10.1687C20.3079 10.1687 19.5439 10.9326 19.5439 11.875C19.5439 12.8173 20.3079 13.5812 21.2502 13.5812Z" stroke="#00B5B0" stroke-linecap="round" stroke-linejoin="round"/>
<path d="M26.2813 30.6687H16.2251" stroke="#00B5B0" stroke-linecap="round" stroke-linejoin="round"/>
<path d="M14.1376 10.0375C11.3563 8.43129 9.7626 6.00004 10.5563 4.60004C11.3501 3.20004 14.2688 3.38129 17.0563 4.98754C17.5819 5.29257 18.0834 5.63732 18.5563 6.01879" stroke="#00B5B0" stroke-linecap="round" stroke-linejoin="round"/>
<path d="M18.5562 6.0188C20.3812 7.5188 21.2874 9.3063 20.6374 10.3938" stroke="#00B5B0" stroke-linecap="round" stroke-linejoin="round"/>
<path d="M15.7749 21.6875L21.0499 17.4688L26.3249 21.6875" stroke="#00B5B0" stroke-linecap="round" stroke-linejoin="round"/>
<path d="M19.7251 27.3187V23.25H22.3751V27.3187" stroke="#00B5B0" stroke-linecap="round" stroke-linejoin="round"/>
<path d="M17.1812 20.7438V27.3188H24.9187V20.7438" stroke="#00B5B0" stroke-linecap="round" stroke-linejoin="round"/>
<path d="M18.3311 19.4625V17.6312" stroke="#00B5B0" stroke-linecap="round" stroke-linejoin="round"/>
</svg>
