<svg width="40" height="40" viewBox="0 0 40 40" fill="none" xmlns="http://www.w3.org/2000/svg">
<path d="M27.5811 22.4437C32.241 22.4437 36.0186 18.6661 36.0186 14.0062C36.0186 9.34632 32.241 5.56873 27.5811 5.56873C22.9212 5.56873 19.1436 9.34632 19.1436 14.0062C19.1436 18.6661 22.9212 22.4437 27.5811 22.4437Z" fill="#E5F8F7"/>
<path d="M32.8063 29.75V35C32.8063 35.1359 32.7523 35.2663 32.6561 35.3624C32.56 35.4585 32.4297 35.5125 32.2937 35.5125H19.7937C19.6578 35.5125 19.5275 35.4585 19.4314 35.3624C19.3352 35.2663 19.2813 35.1359 19.2812 35V17.9125C19.2812 17.7766 19.3352 17.6462 19.4314 17.5501C19.5275 17.454 19.6578 17.4 19.7937 17.4H21.95" stroke="#00B5B0" stroke-linecap="round" stroke-linejoin="round"/>
<path d="M30.2124 17.4H32.2937C32.4296 17.4 32.5599 17.454 32.656 17.5501C32.7522 17.6462 32.8062 17.7766 32.8062 17.9125V23.9313" stroke="#00B5B0" stroke-linecap="round" stroke-linejoin="round"/>
<path d="M28.0877 16.25C28.0877 15.7046 27.8711 15.1816 27.4854 14.796C27.0998 14.4104 26.5768 14.1937 26.0314 14.1937C25.4861 14.1937 24.9631 14.4104 24.5775 14.796C24.1918 15.1816 23.9752 15.7046 23.9752 16.25H22.4314C22.295 16.2516 22.1646 16.307 22.0687 16.4041C21.9727 16.5012 21.9189 16.6322 21.9189 16.7687V17.75C21.9189 17.8865 21.9727 18.0175 22.0687 18.1146C22.1646 18.2117 22.295 18.2671 22.4314 18.2687H29.6314C29.7679 18.2671 29.8983 18.2117 29.9942 18.1146C30.0902 18.0175 30.144 17.8865 30.1439 17.75V16.7937C30.144 16.6572 30.0902 16.5262 29.9942 16.4291C29.8983 16.332 29.7679 16.2766 29.6314 16.275L28.0877 16.25Z" stroke="#00B5B0" stroke-linecap="round" stroke-linejoin="round"/>
<circle cx="26.0249" cy="16.2688" r="0.625" fill="#00B5B0"/>
<path d="M37.1562 31.2188L34.9312 28.9938" stroke="#00B5B0" stroke-linecap="round" stroke-linejoin="round"/>
<path d="M32.8749 29.725C34.4144 29.725 35.6624 28.477 35.6624 26.9375C35.6624 25.398 34.4144 24.15 32.8749 24.15C31.3354 24.15 30.0874 25.398 30.0874 26.9375C30.0874 28.477 31.3354 29.725 32.8749 29.725Z" stroke="#00B5B0" stroke-linecap="round" stroke-linejoin="round"/>
<path d="M25.8564 22.6813H27.7502" stroke="#00B5B0" stroke-linecap="round" stroke-linejoin="round"/>
<path d="M22.1689 22.4812L22.8377 23.1437L24.0689 21.6937" stroke="#00B5B0" stroke-linecap="round" stroke-linejoin="round"/>
<path d="M25.8564 31.4313H27.7502" stroke="#00B5B0" stroke-linecap="round" stroke-linejoin="round"/>
<path d="M22.1689 31.2312L22.8377 31.8937L24.0689 30.4437" stroke="#00B5B0" stroke-linecap="round" stroke-linejoin="round"/>
<path d="M25.8564 27.0563H27.7502" stroke="#00B5B0" stroke-linecap="round" stroke-linejoin="round"/>
<path d="M22.1689 26.8562L22.8377 27.5187L24.0689 26.0687" stroke="#00B5B0" stroke-linecap="round" stroke-linejoin="round"/>
<path d="M7.38135 15.4875L12.6563 11.2625L17.9376 15.4875" stroke="#00B5B0" stroke-linecap="round" stroke-linejoin="round"/>
<path d="M11.3374 21.1125V17.05H13.9812V21.1125" stroke="#00B5B0" stroke-linecap="round" stroke-linejoin="round"/>
<path d="M8.7876 14.5375V21.1125H16.5313V14.5375" stroke="#00B5B0" stroke-linecap="round" stroke-linejoin="round"/>
<path d="M9.94385 13.2625V11.4313" stroke="#00B5B0" stroke-linecap="round" stroke-linejoin="round"/>
<path d="M18.906 23.75C17.1804 25.1647 15.0244 25.9494 12.7932 25.9749C10.562 26.0004 8.38861 25.2651 6.63114 23.8902C4.87367 22.5153 3.63692 20.5829 3.12461 18.4111C2.6123 16.2393 2.855 13.9579 3.81272 11.9425C4.77044 9.9271 6.38606 8.29803 8.39344 7.32365C10.4008 6.34926 12.6802 6.08767 14.8561 6.58197C17.0321 7.07627 18.9747 8.29697 20.3641 10.043C21.7535 11.789 22.5068 13.9562 22.4998 16.1875" stroke="#00B5B0" stroke-linecap="round" stroke-linejoin="round"/>
</svg>
