<svg width="13" height="14" viewBox="0 0 13 14" fill="none" xmlns="http://www.w3.org/2000/svg">
<path d="M2.64249 4.13062H3.69941M6.39453 11.1723L5.32705 10.0889M6.39453 11.1723L5.32705 12.2556M6.39453 11.1723C3.72583 11.1723 1.48518 10.0889 1.05713 9.00562M7.99628 11.0482C9.83054 10.7557 11.2383 9.9752 11.6262 9.00562M3.69941 2.50562H8.98396C9.97217 2.50562 10.4657 2.50562 10.8336 2.72337C11.0745 2.86598 11.2747 3.0711 11.4138 3.31812C11.6262 3.69512 11.6262 4.20103 11.6262 5.21395C11.6262 6.22687 11.6262 6.73278 11.4138 7.10978C11.2747 7.35679 11.0745 7.56191 10.8336 7.70453C10.4657 7.92228 9.97217 7.92228 8.98396 7.92228H8.77575C8.4127 7.92228 8.23144 7.92228 8.0618 7.88382C7.83444 7.83208 7.62099 7.72962 7.43664 7.58374C7.29924 7.47432 7.18298 7.33187 6.95046 7.04587C6.7655 6.81837 6.6725 6.70462 6.56628 6.65316C6.496 6.61934 6.41932 6.6018 6.34168 6.6018C6.26405 6.6018 6.18736 6.61934 6.11709 6.65316C6.01087 6.70407 5.91839 6.81782 5.7329 7.04587C5.50038 7.33187 5.38412 7.47432 5.24672 7.58374C5.06237 7.72962 4.84892 7.83208 4.62156 7.88382C4.45245 7.92228 4.27067 7.92228 3.90762 7.92228H3.69941C2.71119 7.92228 2.21762 7.92228 1.84981 7.70453C1.60883 7.56191 1.40871 7.35679 1.26957 7.10978C1.05713 6.73278 1.05713 6.22687 1.05713 5.21395C1.05713 4.20103 1.05713 3.69512 1.26957 3.31812C1.40871 3.0711 1.60883 2.86598 1.84981 2.72337C2.21762 2.50562 2.71119 2.50562 3.69941 2.50562Z" stroke="white" stroke-linecap="round" stroke-linejoin="round"/>
</svg>
