<svg width="25" height="24" viewBox="0 0 25 24" fill="none" xmlns="http://www.w3.org/2000/svg">
<path d="M5.7251 9.61431C5.7251 9.21193 6.04875 8.88574 6.44799 8.88574H10.3034C10.7027 8.88574 11.0263 9.21193 11.0263 9.61431C11.0263 10.0167 10.7027 10.3429 10.3034 10.3429H6.44799C6.04875 10.3429 5.7251 10.0167 5.7251 9.61431Z" fill="url(#paint0_linear_542_3195)"/>
<path fill-rule="evenodd" clip-rule="evenodd" d="M22.0219 10.0038C21.9597 9.99995 21.8919 9.99998 21.8216 10H21.8041H19.0484C16.777 10 14.8335 11.7361 14.8335 14C14.8335 16.2639 16.777 18 19.0484 18H21.8041H21.8216C21.8919 18 21.9597 18 22.0219 17.9962C22.9445 17.9397 23.7605 17.2386 23.8291 16.2594C23.8336 16.1952 23.8335 16.126 23.8335 16.0619V16.0444V11.9556V11.9381C23.8335 11.874 23.8336 11.8048 23.8291 11.7406C23.7605 10.7614 22.9445 10.0603 22.0219 10.0038ZM18.8041 15.0667C19.3889 15.0667 19.8629 14.5891 19.8629 14C19.8629 13.4109 19.3889 12.9333 18.8041 12.9333C18.2193 12.9333 17.7453 13.4109 17.7453 14C17.7453 14.5891 18.2193 15.0667 18.8041 15.0667Z" fill="url(#paint1_linear_542_3195)"/>
<path opacity="0.5" d="M21.9729 10.0015C21.9729 8.82091 21.93 7.55447 21.1753 6.64658C21.1024 6.55894 21.0249 6.47384 20.9423 6.39124C20.1939 5.64288 19.2449 5.31076 18.0725 5.15314C16.9333 4.99997 15.4777 4.99999 13.6399 5H11.5271C9.68933 4.99999 8.23369 4.99997 7.09448 5.15314C5.92206 5.31076 4.97311 5.64288 4.22474 6.39124C3.47638 7.13961 3.14426 8.08856 2.98664 9.26098C2.83347 10.4002 2.83349 11.8558 2.8335 13.6936V13.8064C2.83349 15.6442 2.83347 17.0998 2.98664 18.239C3.14426 19.4114 3.47638 20.3604 4.22474 21.1088C4.97311 21.8571 5.92206 22.1892 7.09448 22.3469C8.23368 22.5 9.6893 22.5 11.527 22.5H13.6399C15.4777 22.5 16.9333 22.5 18.0725 22.3469C19.2449 22.1892 20.1939 21.8571 20.9423 21.1088C21.1468 20.9042 21.3205 20.6844 21.4681 20.4486C21.9186 19.7291 21.9729 18.8473 21.9729 17.9985C21.9247 18 21.8739 18 21.8217 18H19.0484C16.777 18 14.8335 16.2639 14.8335 14C14.8335 11.7361 16.777 10 19.0484 10H21.8216C21.8738 9.99999 21.9247 9.99997 21.9729 10.0015Z" fill="url(#paint2_linear_542_3195)"/>
<path d="M10.9348 2.57211L8.83338 3.99253L7.1001 5.15237C8.23846 4.99997 9.6923 4.99999 11.527 5H13.6398C15.4776 4.99998 16.9332 4.99997 18.0724 5.15314C18.3016 5.18394 18.5222 5.22142 18.7344 5.26737L16.8334 4L14.7209 2.57211C13.5923 1.8093 12.0634 1.8093 10.9348 2.57211Z" fill="url(#paint3_linear_542_3195)"/>
<defs>
<linearGradient id="paint0_linear_542_3195" x1="8.3757" y1="8.88574" x2="8.3757" y2="10.3429" gradientUnits="userSpaceOnUse">
<stop stop-color="#7BCF94"/>
<stop offset="1" stop-color="#0091DA"/>
</linearGradient>
<linearGradient id="paint1_linear_542_3195" x1="19.3335" y1="10" x2="19.3335" y2="18" gradientUnits="userSpaceOnUse">
<stop stop-color="#7BCF94"/>
<stop offset="1" stop-color="#0091DA"/>
</linearGradient>
<linearGradient id="paint2_linear_542_3195" x1="12.4032" y1="5" x2="12.4032" y2="22.5" gradientUnits="userSpaceOnUse">
<stop stop-color="#7BCF94"/>
<stop offset="1" stop-color="#0091DA"/>
</linearGradient>
<linearGradient id="paint3_linear_542_3195" x1="12.9172" y1="2" x2="12.9172" y2="5.26737" gradientUnits="userSpaceOnUse">
<stop stop-color="#7BCF94"/>
<stop offset="1" stop-color="#0091DA"/>
</linearGradient>
</defs>
</svg>
