<svg width="49" height="48" viewBox="0 0 49 48" fill="none" xmlns="http://www.w3.org/2000/svg">
<rect x="0.100098" width="48" height="48" rx="16" fill="white"/>
<path d="M23.0002 37.677C23.3302 37.7016 23.6636 37.714 23.9998 37.714C24.3361 37.714 24.6694 37.7016 24.9994 37.677C31.8933 37.1661 37.3284 31.4132 37.3332 24.3898C37.3282 17.0201 31.3605 11.0473 23.9998 11.0473C16.6391 11.0473 10.6715 17.0201 10.6665 24.3898C10.6713 31.4132 16.1063 37.1661 23.0002 37.677Z" fill="url(#paint0_linear_222_10697)"/>
<path d="M19.3335 25.0669C19.3335 27.3039 20.9033 29.1739 23 29.6325L23.0006 37.6771C23.3306 37.7017 23.6639 37.7141 24.0002 37.7141C24.3364 37.7141 24.6698 37.7017 24.9998 37.6771L25 29.6325C27.097 29.1741 28.6668 27.3041 28.6668 25.0669V24.3993C28.6668 23.6618 28.0699 23.0641 27.3335 23.0641H27.0002V20.3937C27.0002 19.8407 26.5524 19.3923 26.0002 19.3923C25.4479 19.3923 25.0002 19.8407 25.0002 20.3937V23.0641H23.0002V20.3937C23.0002 19.8407 22.5524 19.3923 22.0002 19.3923C21.4479 19.3923 21.0002 19.8407 21.0002 20.3937V23.0641H20.6668C19.9305 23.0641 19.3335 23.6618 19.3335 24.3993V25.0669Z" fill="white" fill-opacity="0.8"/>
<defs>
<linearGradient id="paint0_linear_222_10697" x1="10.6665" y1="24.3806" x2="37.3332" y2="24.3806" gradientUnits="userSpaceOnUse">
<stop stop-color="#5DECBF"/>
<stop offset="1" stop-color="#01CBC7"/>
</linearGradient>
</defs>
</svg>
