<svg width="375" height="810" viewBox="0 0 375 810" fill="none" xmlns="http://www.w3.org/2000/svg">
    <g style="mix-blend-mode:multiply">
        <path
            d="M-145.203 0.733887H519.203V542.32C519.203 581.997 499.835 619.176 467.321 641.914V641.914C462.42 645.342 457.274 648.402 451.923 651.072L433.616 660.204C423.509 665.247 413.783 671.021 404.518 677.48V677.48C390.072 687.552 376.82 699.236 365.02 712.307L352.465 726.214C350.236 728.683 348.226 731.342 346.459 734.16L341.74 741.683C334.202 753.702 321.013 760.998 306.826 760.998V760.998C298.385 760.998 290.148 763.59 283.228 768.423L266.97 779.778C257.283 786.543 248.819 794.909 241.941 804.517L222.894 831.122C215.308 841.718 203.077 848.004 190.045 848.004V848.004C177.014 848.004 164.782 841.718 157.196 831.122L138.15 804.517C131.272 794.909 122.807 786.543 113.12 779.778L102.778 772.554C92.0075 765.032 79.1868 760.998 66.0493 760.998V760.998C52.1941 760.998 38.7113 756.512 27.6181 748.211L3.18101 729.925L-5.31944 722.292C-27.2851 702.567 -51.0975 685.002 -76.4274 669.839L-79.8697 667.778L-98.6964 658.386C-113.499 651.001 -125.792 639.411 -134.034 625.068V625.068C-141.352 612.333 -145.203 597.901 -145.203 583.213V0.733887Z"
            fill="url(#paint0_linear_39_1225)" />
        <mask id="mask0_39_1225" style="mask-type:alpha" maskUnits="userSpaceOnUse" x="-146" y="0" width="657"
            height="716">
            <path
                d="M-145.203 0.733887H510.06V442.884C510.06 485.112 487.873 524.236 451.632 545.913V545.913L410.678 563.386L397.179 571.436C382.779 580.022 369.371 590.173 357.2 601.703L345.874 612.433C343.504 614.678 341.342 617.131 339.411 619.763L336.598 623.6C328.107 635.178 314.609 642.018 300.253 642.018V642.018C292.114 642.018 284.127 644.221 277.14 648.395L261.436 657.776C251.789 663.538 243.179 670.881 235.967 679.498L219.052 699.705C210.722 709.657 198.41 715.407 185.432 715.407V715.407C172.453 715.407 160.142 709.657 151.811 699.705L134.896 679.498C127.684 670.881 119.074 663.538 109.428 657.776L100.111 652.211C88.9435 645.54 76.1784 642.018 63.1705 642.018V642.018C49.4073 642.018 35.9322 638.075 24.3399 630.656L1.13903 615.807L-6.55509 609.898C-28.6825 592.904 -52.3091 577.958 -77.1433 565.242L-80.7688 563.386L-102.636 554.056C-115.093 548.741 -125.743 539.929 -133.296 528.687V528.687C-141.058 517.135 -145.203 503.532 -145.203 489.614V0.733887Z"
                fill="white" />
        </mask>
        <g mask="url(#mask0_39_1225)">
            <path
                d="M-0.6632 126.696C-11.8691 136.374 -25.7066 133.7 -31.2247 131.153C-37.8464 133.19 -42.0486 130.304 -43.322 128.606C-52.9998 135.737 -61.7862 130.304 -64.9697 126.696C-71.5913 128.734 -75.3691 125.847 -76.4302 124.149C-78.4311 124.816 -80.0771 125.137 -81.4086 125.238C-84.6232 125.481 -87.144 122.606 -86.7363 119.408C-85.8959 112.815 -76.7406 109.278 -71.3367 108.232C-67.2618 96.5166 -56.9048 97.8324 -52.2357 99.9547C-45.6141 91.8049 -34.196 95.71 -29.3146 98.6813C-23.2023 98.172 -19.9764 102.714 -19.1274 105.048C-10.9777 104.03 -6.81794 108.02 -5.75678 110.142C4.43039 109.123 6.55271 115.236 6.34048 118.419C9.7362 117.995 16.655 118.037 17.1643 121.602C17.6737 125.168 5.49155 126.484 -0.6632 126.696Z"
                fill="#E0FFF4" />
            <mask id="mask1_39_1225" style="mask-type:alpha" maskUnits="userSpaceOnUse" x="-87" y="95" width="105"
                height="39">
                <path
                    d="M-0.6632 126.696C-11.8691 136.374 -25.7066 133.7 -31.2247 131.153C-37.8464 133.19 -42.0486 130.304 -43.322 128.606C-52.9998 135.737 -61.7862 130.304 -64.9697 126.696C-71.5913 128.734 -75.3691 125.847 -76.4302 124.149C-78.4311 124.816 -80.0771 125.137 -81.4086 125.238C-84.6232 125.481 -87.144 122.606 -86.7363 119.408C-85.8959 112.815 -76.7406 109.278 -71.3367 108.232C-67.2618 96.5166 -56.9048 97.8324 -52.2357 99.9547C-45.6141 91.8049 -34.196 95.71 -29.3146 98.6813C-23.2023 98.172 -19.9764 102.714 -19.1274 105.048C-10.9777 104.03 -6.81794 108.02 -5.75678 110.142C4.43039 109.123 6.55271 115.236 6.34048 118.419C9.7362 117.995 16.655 118.037 17.1643 121.602C17.6737 125.168 5.49155 126.484 -0.6632 126.696Z"
                    fill="#E8FFF7" />
            </mask>
            <g mask="url(#mask1_39_1225)">
                <path
                    d="M-63.6988 116.741C-67.7736 123.872 -80.6774 121.41 -86.6199 119.287L-92.3502 137.115L6.97471 139.025L20.9821 123.108L16.5252 108.464L-17.2198 103.37C-18.7479 104.898 -19.9788 106.978 -20.4033 107.827C-12.2536 105.28 -7.66934 110.586 -6.39594 113.557C-1.30236 111.01 8.24811 118.014 1.88113 121.198C-3.21246 123.744 -7.88157 120.136 -9.57943 118.014C-11.1075 121.58 -15.3097 120.773 -17.2198 119.924C-19.1299 128.838 -31.8639 128.201 -35.684 121.198C-37.8026 117.313 -33.3123 112.695 -30.3578 110.227C-30.0781 109.993 -30.4094 109.41 -30.7478 109.545L-34.4107 111.01C-33.1373 109.949 -31.3545 107.572 -34.4107 106.553C-36.195 105.959 -37.7768 106.999 -38.9532 108.432C-40.3209 110.099 -39.4427 112.448 -37.5941 113.557L-38.8675 116.104C-45.9986 129.347 -58.3929 122.046 -63.6988 116.741Z"
                    fill="#C9F1FF" fill-opacity="0.8" />
                <path
                    d="M5.70268 119.924C7.18831 119.075 10.8592 118.306 14.6165 120.561C17.7999 122.471 2.51919 123.107 5.70268 119.924Z"
                    fill="#E8FFF7" />
            </g>
            <path
                d="M380.097 233.115C363.222 235.711 355.217 232.033 353.324 229.87C348.781 225.327 374.688 225.273 388.21 225.813C400.541 212.184 414.982 220.134 420.661 225.813C424.555 209.588 445.541 207.154 455.546 207.965C468.527 174.216 496.111 190.117 508.28 202.286C521.91 197.743 529.644 206.883 531.808 212.022C538.298 213.969 539.38 220.405 539.109 223.38C546.897 225.327 549.385 234.467 549.656 238.794C552.252 233.602 559.391 235.549 562.636 237.172C569.127 235.874 574.535 240.417 576.428 242.851C589.95 242.851 613.099 244.96 597.522 253.397C581.945 261.835 548.304 259.076 533.43 256.643C519.8 265.08 509.362 260.158 505.846 256.643C491.568 270.921 479.885 262.592 475.829 256.643C464.795 261.835 457.71 258.806 455.546 256.643C430.234 265.08 418.498 255.831 415.793 250.152C396.971 256.643 389.562 250.152 388.21 246.096C377.176 244.798 378.204 236.901 380.097 233.115Z"
                fill="#E8FFF7" />
            <mask id="mask2_39_1225" style="mask-type:alpha" maskUnits="userSpaceOnUse" x="352" y="188" width="251"
                height="77">
                <path
                    d="M380.097 233.495C363.222 236.091 355.217 232.414 353.324 230.25C348.781 225.707 374.688 225.653 388.21 226.194C400.541 212.564 414.982 220.515 420.661 226.194C424.555 209.968 445.541 207.534 455.546 208.345C468.527 174.596 496.111 190.497 508.28 202.666C521.91 198.123 529.644 207.264 531.808 212.402C538.298 214.349 539.38 220.785 539.109 223.76C546.897 225.707 549.385 234.847 549.656 239.174C552.252 233.982 559.391 235.929 562.636 237.552C569.127 236.254 574.535 240.797 576.428 243.231C589.95 243.231 613.099 245.34 597.522 253.777C581.945 262.215 548.304 259.456 533.43 257.023C519.8 265.46 509.362 260.538 505.846 257.023C491.568 271.301 479.885 262.972 475.829 257.023C464.795 262.215 457.71 259.186 455.546 257.023C430.234 265.46 418.498 256.211 415.793 250.532C396.971 257.023 389.562 250.532 388.21 246.476C377.176 245.178 378.204 237.281 380.097 233.495Z"
                    fill="#E8FFF7" />
            </mask>
            <g mask="url(#mask2_39_1225)">
                <path
                    d="M385.776 229.078C373.444 232.972 357.922 230.7 351.702 229.078L363.871 247.737L414.171 272.887L616.182 261.529L610.503 234.757L577.24 242.869C594.764 242.869 598.063 246.115 597.522 247.737C585.191 258.122 565.341 255.85 556.958 253.416C549.819 256.661 537.217 254.768 531.808 253.416C518.827 263.152 509.092 254.768 505.847 249.36C493.515 254.552 487.728 247.196 486.376 242.869C479.885 251.307 477.181 246.385 476.64 242.869C471.448 250.009 460.415 246.926 455.547 244.492C448.408 252.28 435.806 252.064 427.963 249.36C422.771 251.307 419.309 246.926 418.228 244.492C400.055 250.982 392.807 246.115 391.455 242.869C383.018 242.22 384.153 233.404 385.776 229.078Z"
                    fill="#C9F1FF" />
                <path
                    d="M455.547 217.72C454.249 212.527 456.629 205.28 457.981 202.305H454.736C453.438 210.742 454.736 216.097 455.547 217.72Z"
                    fill="#C9F1FF" />
                <path
                    d="M488.81 217.72C490.757 208.633 503.142 203.657 509.092 202.305L498.545 193.381C482.319 202.467 483.672 211.229 486.376 214.474H483.131V217.72H488.81Z"
                    fill="#C9F1FF" />
            </g>
            <path
                d="M172.816 320.827C-170.367 315.935 -335.377 430.62 -374.984 488.574L-396.826 445.764C-238.689 89.301 601.794 326.943 172.816 320.827Z"
                fill="white" fill-opacity="0.3" />
            <path
                d="M234.076 167.059C577.258 162.166 742.268 276.852 781.875 334.806L803.717 291.995C645.581 -64.4675 -194.903 173.175 234.076 167.059Z"
                fill="white" fill-opacity="0.3" />
            <path
                d="M-20.8307 135.936C-18.078 134.446 -13.7298 131.61 -5.19526 133.995C8.54708 137.834 8.49044 153.599 6.74174 161.763C-0.0966447 154.001 -4.04522 152.797 -9.60789 150.617C-13.3163 149.164 -19.0461 140.881 -20.8307 135.936Z"
                fill="#72A21A" />
            <path
                d="M-9.61072 150.619C-13.3192 149.166 -19.049 140.883 -20.8335 135.938C-2.72032 126.132 10.531 144.06 6.73891 161.765C-0.0994715 154.003 -4.04804 152.799 -9.61072 150.619Z"
                fill="#91CB29" />
            <path
                d="M72.1509 108.279C71.9929 105.153 72.1549 99.9637 65.6816 93.9115C55.2582 84.1664 41.8221 92.4096 35.7571 98.1478C49.3558 100.561 57.2919 111.296 72.1509 108.279Z"
                fill="#91CB29" />
            <path
                d="M44.9086 131.244C43.0243 128.744 40.2479 124.357 31.4941 122.977C17.3988 120.756 10.8986 135.116 9.09597 143.269C21.7076 137.639 34.2992 142.076 44.9086 131.244Z"
                fill="#91CB29" />
            <path
                d="M30.0946 61.2879C33.1417 62.0001 38.2748 62.7645 43.0752 70.2145C50.8049 82.2106 40.3043 93.9696 33.5802 98.9184C33.616 88.5699 31.4618 85.0478 28.748 79.7238C26.9388 76.1745 28.1485 66.173 30.0946 61.2879Z"
                fill="#91CB29" />
            <path
                d="M28.7492 79.7234C26.94 76.1741 28.1497 66.1726 30.0958 61.2875C50.1505 65.9746 48.1591 88.1893 33.5814 98.918C33.6172 88.5695 31.463 85.0474 28.7492 79.7234Z"
                fill="#72A21A" />
            <path
                d="M80.1973 78.9759C78.3086 76.4809 75.5247 72.1011 66.767 70.7413C52.6652 68.5519 46.1863 82.924 44.3961 91.0788C53.8376 86.8419 57.9311 87.3793 63.8984 87.6962C67.8766 87.9074 76.5241 82.7388 80.1973 78.9759Z"
                fill="#91CB29" />
            <path
                d="M63.9007 87.6969C67.8789 87.9081 76.5264 82.7394 80.1996 78.9766C67.7692 62.5557 48.2795 73.4003 44.3984 91.0794C53.8399 86.8425 57.9334 87.38 63.9007 87.6969Z"
                fill="#72A21A" />
            <path
                d="M-0.798402 222.568C-2.31824 219.833 -4.45993 215.105 -12.9402 212.53C-26.5951 208.383 -35.0268 221.704 -37.9437 229.527C-24.6693 225.695 -12.8097 231.826 -0.798402 222.568Z"
                fill="#91CB29" />
            <path
                d="M-37.948 229.526C-31.6243 212.566 -10.8055 204.564 -0.802646 222.567C-12.814 231.825 -24.6735 225.694 -37.948 229.526Z"
                fill="#72A21A" />
            <path
                d="M34.5353 98.2445C36.7841 93.8955 40.0025 81.7922 37.0462 73.3557M36.3236 97.1076L32.9342 100.002C17.6519 113.054 8.63359 131.984 8.12604 152.075C7.64081 171.282 -0.626385 189.468 -14.7795 202.462L-20.3692 207.594C-22.4978 209.548 -24.5253 211.601 -26.4459 213.745M36.3236 97.1076L48.7461 86.4981M36.3236 97.1076C36.2319 97.1571 36.1455 97.2064 36.0645 97.2552M36.3236 97.1076C39.043 95.6397 46.4056 93.9691 54.0388 98.9762M-67.3904 320.086L-64.4265 305.983M-64.4265 305.983L-61.8396 293.674C-60.118 285.483 -57.8565 277.419 -55.0716 269.536M-64.4265 305.983C-64.5865 306.508 -64.7051 306.995 -64.7858 307.426M-64.4265 305.983C-63.2005 301.96 -59.5456 295.649 -51.9349 294.267M-55.0716 269.536C-53.6251 265.441 -52.0374 261.395 -50.3108 257.404L-41.7897 237.712C-37.9907 228.932 -32.8044 220.842 -26.4459 213.745M-55.0716 269.536C-55.2533 269.964 -55.3963 270.357 -55.502 270.702M-55.0716 269.536C-53.7146 266.336 -50.1967 261.142 -43.9174 259.197M-26.4459 213.745C-26.4672 213.79 -26.4883 213.833 -26.5093 213.876M-26.4459 213.745C-24.8848 210.471 -22.5234 202.182 -25.1135 194.109M7.24564 161.313C6.83244 159.299 4.10117 153.566 -3.51836 146.746M8.62799 145.395C9.85721 141.706 14.2009 134.042 21.742 132.9M-38.0448 230.356C-36.8661 228.481 -32.2525 224.604 -23.2275 224.105"
                stroke="#090B13" stroke-width="1.04136" stroke-linecap="round" stroke-linejoin="round" />
            <path
                d="M-18.5213 191.567C-15.6738 193.264 -7.30496 192.805 -3.14327 191.455C-5.93768 174.543 -24.486 174.979 -34.1915 186.505C-25.5988 187.04 -22.7927 189.022 -18.5213 191.567Z"
                fill="#91CB29" />
            <path
                d="M19.9564 119.861C17.9335 118.221 14.8119 115.237 7.46459 115.882C-4.36609 116.92 -6.73961 129.824 -6.56244 136.769C0.222961 131.466 3.63771 131.085 8.52261 130.153C11.7792 129.532 17.7376 123.633 19.9564 119.861Z"
                fill="#91CB29" />
            <path
                d="M8.52775 130.154C11.7844 129.532 17.7427 123.634 19.9615 119.862C6.64774 109.069 -6.94141 121.712 -6.55731 136.77C0.228096 131.467 3.64285 131.086 8.52775 130.154Z"
                fill="#72A21A" />
            <path
                d="M-17.2482 95.9657C-14.6442 95.9344 -10.3443 95.5301 -4.98198 100.594C3.65244 108.748 -2.49102 120.341 -6.93904 125.679C-8.9706 117.309 -11.4126 114.892 -14.6655 111.131C-16.8341 108.623 -17.848 100.301 -17.2482 95.9657Z"
                fill="#91CB29" />
            <path
                d="M-14.667 111.132C-16.8356 108.624 -17.8496 100.302 -17.2497 95.9667C-0.11152 95.7609 2.7026 114.108 -6.94053 125.68C-8.9721 117.31 -11.4141 114.893 -14.667 111.132Z"
                fill="#72A21A" />
            <path
                d="M-6.61088 135.812C-4.89899 132.115 1.41639 123.823 8.47136 121.463M-6.77586 134.056L-6.9497 137.762C-7.73353 154.468 -15.5775 170.056 -28.5275 180.64C-40.9078 190.759 -48.6463 205.473 -49.9682 221.408L-50.4903 227.701C-50.6891 230.098 -51.0044 232.478 -51.4339 234.835M-6.77586 134.056L-6.13871 120.476M-6.77586 134.056C-6.76161 134.142 -6.74991 134.224 -6.74066 134.302M-6.77586 134.056C-7.19822 131.519 -9.8564 125.826 -17.043 123.363M-100.458 316.011L-92.6984 306.867M-92.6984 306.867L-85.9258 298.886C-81.4186 293.575 -77.271 287.974 -73.5088 282.121M-92.6984 306.867C-92.9621 307.24 -93.2212 307.566 -93.4636 307.839M-92.6984 306.867C-90.6785 304.008 -88.3947 298.386 -91.3692 292.677M-73.5088 282.121C-71.5547 279.08 -69.7045 275.972 -67.962 272.801L-59.3623 257.151C-55.5283 250.174 -52.8557 242.636 -51.4339 234.835M-73.5088 282.121C-73.6978 282.459 -73.8831 282.753 -74.0556 282.998M-73.5088 282.121C-72.0974 279.596 -70.4771 274.633 -72.4027 269.512M-51.4339 234.835C-51.4524 234.872 -51.4703 234.908 -51.4878 234.943M-51.4339 234.835C-50.0778 232.138 -45.8333 226.357 -39.2041 223.94M-34.1523 185.933C-32.6174 185.177 -27.4545 184.047 -19.0827 185.577M-24.3917 176.902C-22.5935 174.211 -19.7713 167.446 -22.8684 161.905M-56.4374 250.936C-55.8055 249.204 -55.6109 244.193 -59.8873 238.005"
                stroke="#090B13" stroke-width="0.866628" stroke-linecap="round" stroke-linejoin="round" />
            <path
                d="M51.8111 227.348C51.3865 224.778 51.0324 220.472 45.1102 216.078C35.5742 209.002 25.2386 217.082 20.7629 222.398C29.3556 222.933 32.1617 224.915 36.433 227.46C39.2806 229.156 47.6494 228.698 51.8111 227.348Z"
                fill="#72A21A" />
            <path
                d="M36.4286 227.46C39.2762 229.157 47.645 228.698 51.8067 227.348C49.0123 210.436 30.464 210.871 20.7585 222.398C29.3512 222.933 32.1573 224.915 36.4286 227.46Z"
                fill="#91CB29" />
            <path
                d="M22.5485 152.095C24.6846 150.603 28.0136 147.849 35.2954 149.017C47.0206 150.898 48.4564 163.938 47.7782 170.853C39.2535 163.143 28.1463 163.403 22.5485 152.095Z"
                fill="#91CB29" />
            <path
                d="M21.3489 181.721C23.9538 181.685 28.2546 181.272 33.628 186.323C42.2802 194.457 36.1552 206.057 31.7151 211.402C28.9817 200.238 19.6405 194.223 21.3489 181.721Z"
                fill="#91CB29" />
            <path
                d="M74.9001 155.746C72.8772 154.106 69.7556 151.121 62.4083 151.766C50.5776 152.804 48.2041 165.708 48.3812 172.654C55.1666 167.35 58.5814 166.969 63.4663 166.037C66.7229 165.416 72.6812 159.517 74.9001 155.746Z"
                fill="#91CB29" />
            <path
                d="M63.4714 166.038C66.728 165.417 72.6864 159.518 74.9052 155.746C61.5914 144.953 48.0023 157.596 48.3864 172.654C55.1718 167.351 58.5865 166.97 63.4714 166.038Z"
                fill="#72A21A" />
            <path
                d="M37.6854 131.848C40.2894 131.816 44.5893 131.412 49.9516 136.476C58.5861 144.63 52.4426 156.223 47.9946 161.56C45.963 153.191 43.5211 150.774 40.2681 147.013C38.0995 144.505 37.0856 136.182 37.6854 131.848Z"
                fill="#91CB29" />
            <path
                d="M40.2666 147.014C38.098 144.506 37.0841 136.183 37.6839 131.849C54.8221 131.643 57.6362 149.99 47.9931 161.561C45.9615 153.192 43.5196 150.775 40.2666 147.014Z"
                fill="#72A21A" />
            <path
                d="M-15.3798 258.372C-12.806 257.976 -8.60537 256.972 -2.58541 261.233C7.10791 268.095 2.6521 280.435 -1.00283 286.344C-5.25644 275.662 -15.3381 270.993 -15.3798 258.372Z"
                fill="#91CB29" />
            <path
                d="M-0.998048 286.344C6.92569 273.533 1.56469 255.763 -15.375 258.372C-15.3333 270.992 -5.25165 275.661 -0.998048 286.344Z"
                fill="#72A21A" />
            <path
                d="M30.3091 253.117C28.2862 251.477 25.1646 248.492 17.8173 249.137C5.98657 250.176 3.61305 263.079 3.79022 270.025C10.5756 264.722 13.9904 264.341 18.8753 263.409C22.1319 262.787 28.0902 256.889 30.3091 253.117Z"
                fill="#91CB29" />
            <path
                d="M18.8804 263.409C22.137 262.788 28.0954 256.89 30.3142 253.118C17.0004 242.324 3.41125 254.968 3.79535 270.026C10.5808 264.722 13.9955 264.342 18.8804 263.409Z"
                fill="#72A21A" />
            <path
                d="M48.3358 171.7C50.0477 168.002 56.3631 159.711 63.4181 157.35M48.1709 169.944L47.997 173.649C47.2132 190.356 39.3692 205.943 26.4193 216.528C14.0389 226.646 6.30038 241.361 4.97852 257.295L4.45645 263.589C4.25765 265.985 3.94229 268.366 3.51281 270.722M48.1709 169.944L48.808 156.363M48.1709 169.944C48.1851 170.029 48.1968 170.111 48.2061 170.19M48.1709 169.944C47.7485 167.407 45.0903 161.714 37.9037 159.25M-45.5114 351.899L-37.7517 342.755M-37.7517 342.755L-30.9791 334.774C-26.4719 329.462 -22.3243 323.861 -18.5621 318.008M-37.7517 342.755C-38.0153 343.128 -38.2745 343.454 -38.5169 343.727M-37.7517 342.755C-35.7318 339.896 -33.448 334.273 -36.4225 328.564M-18.5621 318.008C-16.6079 314.968 -14.7578 311.859 -13.0153 308.688L-4.41559 293.039C-0.581541 286.061 2.09097 278.524 3.51281 270.722M-18.5621 318.008C-18.7511 318.346 -18.9364 318.641 -19.1089 318.886M-18.5621 318.008C-17.1506 315.483 -15.5304 310.52 -17.456 305.4M3.51281 270.722C3.49432 270.759 3.47638 270.795 3.45896 270.831M3.51281 270.722C4.86896 268.026 9.1134 262.244 15.7427 259.828M20.7944 221.82C22.3293 221.064 27.4922 219.935 35.864 221.464M30.555 212.789C32.3532 210.099 35.1755 203.333 32.0783 197.793M-1.49064 286.824C-0.858783 285.092 -0.664185 280.081 -4.94059 273.892"
                stroke="#090B13" stroke-width="0.866628" stroke-linecap="round" stroke-linejoin="round" />
            <path
                d="M395.823 135.936C393.07 134.446 388.722 131.61 380.187 133.995C366.445 137.834 366.501 153.599 368.25 161.763C375.089 154.001 379.037 152.797 384.6 150.617C388.308 149.164 394.038 140.881 395.823 135.936Z"
                fill="#72A21A" />
            <path
                d="M384.603 150.619C388.311 149.166 394.041 140.883 395.825 135.938C377.712 126.132 364.461 144.06 368.253 161.765C375.091 154.003 379.04 152.799 384.603 150.619Z"
                fill="#91CB29" />
            <path
                d="M302.847 108.277C303.005 105.151 302.843 99.9618 309.316 93.9097C319.74 84.1646 333.176 92.4077 339.241 98.146C325.642 100.559 317.706 111.294 302.847 108.277Z"
                fill="#91CB29" />
            <path
                d="M330.086 131.242C331.971 128.742 334.747 124.355 343.501 122.976C357.596 120.754 364.096 135.115 365.899 143.267C353.287 137.637 340.696 142.074 330.086 131.242Z"
                fill="#91CB29" />
            <path
                d="M344.906 61.2867C341.859 61.9989 336.726 62.7633 331.925 70.2133C324.195 82.2094 334.696 93.9684 341.42 98.9171C341.384 88.5687 343.539 85.0466 346.252 79.7226C348.062 76.1733 346.852 66.1718 344.906 61.2867Z"
                fill="#91CB29" />
            <path
                d="M346.251 79.7222C348.06 76.1729 346.851 66.1714 344.905 61.2863C324.85 65.9734 326.841 88.188 341.419 98.9168C341.383 88.5683 343.537 85.0462 346.251 79.7222Z"
                fill="#72A21A" />
            <path
                d="M294.801 78.9738C296.69 76.4788 299.474 72.099 308.231 70.7393C322.333 68.5498 328.812 82.922 330.602 91.0767C321.161 86.8398 317.067 87.3773 311.1 87.6941C307.122 87.9053 298.474 82.7367 294.801 78.9738Z"
                fill="#91CB29" />
            <path
                d="M311.101 87.6948C307.123 87.906 298.475 82.7374 294.802 78.9745C307.232 62.5536 326.722 73.3982 330.603 91.0774C321.162 86.8404 317.068 87.3779 311.101 87.6948Z"
                fill="#72A21A" />
            <path
                d="M375.795 222.565C377.315 219.829 379.457 215.102 387.937 212.527C401.592 208.38 410.024 221.701 412.94 229.524C399.666 225.692 387.806 231.823 375.795 222.565Z"
                fill="#91CB29" />
            <path
                d="M412.945 229.523C406.621 212.563 385.802 204.561 375.799 222.564C387.811 231.822 399.67 225.691 412.945 229.523Z"
                fill="#72A21A" />
            <path
                d="M340.456 98.2428C338.207 93.8938 334.989 81.7905 337.945 73.354M338.668 97.1059L342.057 100.001C357.34 113.053 366.358 131.982 366.866 152.073C367.351 171.28 375.618 189.466 389.771 202.46L395.361 207.592C397.489 209.546 399.517 211.599 401.437 213.743M338.668 97.1059L326.245 86.4964M338.668 97.1059C338.76 97.1554 338.846 97.2047 338.927 97.2535M338.668 97.1059C335.949 95.638 328.586 93.9674 320.953 98.9745M442.382 320.084L439.418 305.982M439.418 305.982L436.831 293.673C435.11 285.481 432.848 277.418 430.063 269.534M439.418 305.982C439.578 306.507 439.697 306.993 439.777 307.424M439.418 305.982C438.192 301.958 434.537 295.648 426.926 294.266M430.063 269.534C428.617 265.439 427.029 261.393 425.302 257.403L416.781 237.71C412.982 228.93 407.796 220.84 401.437 213.743M430.063 269.534C430.245 269.963 430.388 270.355 430.494 270.7M430.063 269.534C428.706 266.334 425.188 261.14 418.909 259.196M401.437 213.743C401.459 213.788 401.48 213.832 401.501 213.874M401.437 213.743C399.876 210.469 397.515 202.181 400.105 194.107M367.746 161.312C368.159 159.298 370.89 153.564 378.51 146.744M366.364 145.393C365.134 141.704 360.791 134.04 353.25 132.899M413.036 230.355C411.858 228.479 407.244 224.603 398.219 224.103"
                stroke="#090B13" stroke-width="1.04136" stroke-linecap="round" stroke-linejoin="round" />
            <path
                d="M393.508 191.575C390.661 193.272 382.292 192.813 378.13 191.463C380.925 174.551 399.473 174.987 409.179 186.513C400.586 187.048 397.78 189.03 393.508 191.575Z"
                fill="#91CB29" />
            <path
                d="M355.037 119.868C357.06 118.228 360.182 115.243 367.529 115.888C379.36 116.927 381.733 129.83 381.556 136.776C374.771 131.472 371.356 131.092 366.471 130.159C363.214 129.538 357.256 123.64 355.037 119.868Z"
                fill="#91CB29" />
            <path
                d="M366.466 130.16C363.209 129.539 357.251 123.64 355.032 119.868C368.346 109.075 381.935 121.718 381.551 136.777C374.766 131.473 371.351 131.092 366.466 130.16Z"
                fill="#72A21A" />
            <path
                d="M392.248 95.9657C389.644 95.9344 385.344 95.5301 379.982 100.594C371.348 108.748 377.491 120.341 381.939 125.679C383.971 117.309 386.413 114.892 389.666 111.131C391.834 108.623 392.848 100.301 392.248 95.9657Z"
                fill="#91CB29" />
            <path
                d="M389.667 111.132C391.836 108.624 392.85 100.302 392.25 95.9667C375.112 95.7609 372.297 114.108 381.941 125.68C383.972 117.31 386.414 114.893 389.667 111.132Z"
                fill="#72A21A" />
            <path
                d="M381.601 135.817C379.889 132.12 373.574 123.828 366.519 121.468M381.766 134.061L381.94 137.767C382.724 154.473 390.568 170.061 403.518 180.645C415.898 190.764 423.637 205.478 424.959 221.413L425.481 227.706C425.679 230.103 425.995 232.483 426.424 234.84M381.766 134.061L381.129 120.481M381.766 134.061C381.752 134.147 381.74 134.229 381.731 134.307M381.766 134.061C382.189 131.524 384.847 125.831 392.033 123.368M475.448 316.016L467.689 306.872M467.689 306.872L460.916 298.891C456.409 293.58 452.261 287.979 448.499 282.125M467.689 306.872C467.952 307.245 468.212 307.571 468.454 307.844M467.689 306.872C465.669 304.013 463.385 298.39 466.36 292.682M448.499 282.125C446.545 279.085 444.695 275.977 442.952 272.806L434.353 257.156C430.519 250.179 427.846 242.641 426.424 234.84M448.499 282.125C448.688 282.464 448.873 282.758 449.046 283.003M448.499 282.125C447.088 279.601 445.467 274.637 447.393 269.517M426.424 234.84C426.443 234.876 426.461 234.913 426.478 234.948M426.424 234.84C425.068 232.143 420.824 226.361 414.194 223.945M409.143 185.937C407.608 185.182 402.445 184.052 394.073 185.582M399.382 176.907C397.584 174.216 394.762 167.45 397.859 161.91M431.428 250.941C430.796 249.209 430.601 244.198 434.878 238.01"
                stroke="#090B13" stroke-width="0.866628" stroke-linecap="round" stroke-linejoin="round" />
            <path
                d="M323.185 227.35C323.61 224.78 323.964 220.474 329.886 216.08C339.422 209.004 349.758 217.085 354.234 222.4C345.641 222.935 342.835 224.917 338.564 227.462C335.716 229.159 327.347 228.7 323.185 227.35Z"
                fill="#72A21A" />
            <path
                d="M338.568 227.462C335.72 229.159 327.352 228.7 323.19 227.35C325.984 210.438 344.533 210.874 354.238 222.4C345.645 222.936 342.839 224.917 338.568 227.462Z"
                fill="#91CB29" />
            <path
                d="M352.448 152.097C350.312 150.606 346.983 147.852 339.701 149.02C327.976 150.9 326.54 163.94 327.218 170.855C335.743 163.146 346.85 163.405 352.448 152.097Z"
                fill="#91CB29" />
            <path
                d="M353.648 181.723C351.043 181.687 346.742 181.274 341.369 186.325C332.716 194.459 338.841 206.059 343.281 211.404C346.015 200.24 355.356 194.225 353.648 181.723Z"
                fill="#91CB29" />
            <path
                d="M300.097 155.748C302.12 154.108 305.241 151.123 312.589 151.768C324.419 152.807 326.793 165.71 326.616 172.656C319.83 167.353 316.415 166.972 311.531 166.04C308.274 165.418 302.316 159.52 300.097 155.748Z"
                fill="#91CB29" />
            <path
                d="M311.525 166.04C308.269 165.419 302.31 159.521 300.092 155.749C313.405 144.955 326.995 157.599 326.61 172.657C319.825 167.353 316.41 166.973 311.525 166.04Z"
                fill="#72A21A" />
            <path
                d="M337.308 131.854C334.704 131.823 330.404 131.418 325.042 136.483C316.407 144.637 322.551 156.229 326.999 161.567C329.03 153.198 331.472 150.781 334.725 147.019C336.894 144.511 337.908 136.189 337.308 131.854Z"
                fill="#91CB29" />
            <path
                d="M334.727 147.02C336.895 144.512 337.909 136.19 337.309 131.855C320.171 131.649 317.357 149.996 327 161.568C329.032 153.199 331.474 150.782 334.727 147.02Z"
                fill="#72A21A" />
            <path
                d="M390.377 258.376C387.803 257.979 383.603 256.976 377.583 261.237C367.89 268.099 372.345 280.439 376 286.348C380.254 275.665 390.336 270.996 390.377 258.376Z"
                fill="#91CB29" />
            <path
                d="M375.996 286.347C368.072 273.537 373.433 255.767 390.373 258.375C390.331 270.996 380.249 275.665 375.996 286.347Z"
                fill="#72A21A" />
            <path
                d="M344.687 253.119C346.71 251.479 349.832 248.494 357.179 249.139C369.01 250.178 371.383 263.081 371.206 270.027C364.421 264.724 361.006 264.343 356.121 263.411C352.865 262.789 346.906 256.891 344.687 253.119Z"
                fill="#91CB29" />
            <path
                d="M356.116 263.411C352.859 262.79 346.901 256.892 344.682 253.12C357.996 242.326 371.585 254.97 371.201 270.028C364.416 264.724 361.001 264.344 356.116 263.411Z"
                fill="#72A21A" />
            <path
                d="M326.661 171.702C324.949 168.005 318.633 159.713 311.578 157.353M326.826 169.946L326.999 173.652C327.783 190.358 335.627 205.946 348.577 216.53C360.958 226.649 368.696 241.363 370.018 257.298L370.54 263.591C370.739 265.988 371.054 268.368 371.484 270.725M326.826 169.946L326.188 156.366M326.826 169.946C326.811 170.032 326.8 170.114 326.79 170.192M326.826 169.946C327.248 167.409 329.906 161.716 337.093 159.253M420.508 351.901L412.748 342.757M412.748 342.757L405.976 334.776C401.468 329.465 397.321 323.864 393.559 318.01M412.748 342.757C413.012 343.13 413.271 343.456 413.513 343.729M412.748 342.757C410.728 339.898 408.444 334.275 411.419 328.567M393.559 318.01C391.604 314.97 389.754 311.862 388.012 308.691L379.412 293.041C375.578 286.064 372.906 278.526 371.484 270.725M393.559 318.01C393.748 318.349 393.933 318.643 394.105 318.888M393.559 318.01C392.147 315.486 390.527 310.522 392.452 305.402M371.484 270.725C371.502 270.761 371.52 270.798 371.538 270.833M371.484 270.725C370.128 268.028 365.883 262.246 359.254 259.83M354.202 221.822C352.667 221.067 347.504 219.937 339.132 221.467M344.442 212.792C342.643 210.101 339.821 203.335 342.918 197.795M376.487 286.826C375.855 285.094 375.661 280.083 379.937 273.895"
                stroke="#090B13" stroke-width="0.866628" stroke-linecap="round" stroke-linejoin="round" />
        </g>
    </g>
    <defs>
        <linearGradient id="paint0_linear_39_1225" x1="187" y1="0.733887" x2="187" y2="848.004"
            gradientUnits="userSpaceOnUse">
            <stop offset="0.204" stop-color="#00B5B0" />
            <stop offset="1" stop-color="#A2E4D1" />
        </linearGradient>
    </defs>
</svg>