<svg width="375" height="233" viewBox="0 0 375 233" fill="none" xmlns="http://www.w3.org/2000/svg">
<g clip-path="url(#clip0_222_10328)">
<rect width="375" height="375" transform="translate(0.00012207 0.5)" fill="url(#paint0_linear_222_10328)"/>
<g filter="url(#filter0_f_222_10328)">
<path d="M341.371 -292.332C341 -308.11 332.43 -313.696 328.755 -300.555L307.197 -223.411C302.454 -206.455 296.118 -192.37 288.691 -182.272C281.265 -172.174 272.951 -166.341 264.409 -165.235L225.575 -160.179C218.956 -159.314 216.623 -138.895 222.141 -130.119L254.536 -78.6386C261.656 -67.3138 267.573 -52.1952 271.82 -34.481C276.066 -16.7668 278.523 3.05595 278.998 23.4161L281.169 115.979C281.243 119.43 281.773 122.738 282.683 125.431C283.592 128.124 284.835 130.065 286.233 130.976C287.632 131.888 289.115 131.724 290.471 130.507C291.828 129.291 292.987 127.084 293.785 124.202L315.344 47.0579C320.084 30.1054 326.417 16.0215 333.84 5.92178C341.264 -4.17791 349.574 -10.0159 358.113 -11.1298L396.965 -16.1743C398.413 -16.3473 399.8 -17.6057 400.929 -19.7698C402.058 -21.934 402.87 -24.8935 403.251 -28.226C403.632 -31.5585 403.561 -35.0938 403.049 -38.3275C402.537 -41.5612 401.609 -44.3281 400.399 -46.2334L368.005 -97.7142C360.886 -109.033 354.969 -124.145 350.722 -141.851C346.475 -159.557 344.015 -179.371 343.537 -199.725L341.371 -292.332ZM437.941 -469.456C437.894 -471.525 437.574 -473.507 437.028 -475.121C436.482 -476.735 435.736 -477.898 434.897 -478.444C434.058 -478.991 433.168 -478.894 432.355 -478.167C431.541 -477.44 430.844 -476.12 430.364 -474.394L417.43 -428.116C411.655 -407.492 402.156 -394.569 391.763 -393.197L368.456 -390.168C367.587 -390.059 366.756 -389.3 366.08 -388C365.403 -386.7 364.916 -384.924 364.688 -382.925C364.46 -380.926 364.502 -378.806 364.808 -376.865C365.114 -374.925 365.669 -373.263 366.393 -372.115L385.826 -341.229C390.098 -334.437 393.65 -325.369 396.198 -314.743C398.747 -304.118 400.223 -292.226 400.51 -280.012L401.81 -224.456C401.857 -222.387 402.176 -220.404 402.723 -218.791C403.269 -217.177 404.015 -216.014 404.854 -215.467C405.693 -214.921 406.582 -215.018 407.396 -215.745C408.21 -216.472 408.906 -217.792 409.387 -219.518L422.321 -265.795C425.165 -275.969 428.966 -284.422 433.421 -290.483C437.876 -296.544 442.863 -300.047 447.987 -300.714L471.295 -303.743C472.163 -303.853 472.995 -304.611 473.671 -305.912C474.347 -307.212 474.834 -308.988 475.063 -310.986C475.291 -312.985 475.249 -315.106 474.943 -317.046C474.637 -318.987 474.082 -320.649 473.357 -321.796L453.924 -352.682C449.652 -359.474 446.101 -368.543 443.552 -379.168C441.004 -389.794 439.528 -401.686 439.241 -413.9L437.941 -469.456ZM313.187 -600.154C313.148 -601.52 312.931 -602.824 312.567 -603.884C312.203 -604.944 311.709 -605.708 311.155 -606.069C310.601 -606.43 310.013 -606.371 309.474 -605.9C308.935 -605.428 308.472 -604.568 308.147 -603.439L299.528 -572.616C295.681 -558.834 289.34 -550.207 282.402 -549.316L266.875 -547.288C266.302 -547.197 265.756 -546.682 265.311 -545.816C264.867 -544.949 264.547 -543.774 264.396 -542.454C264.246 -541.133 264.271 -539.733 264.47 -538.448C264.668 -537.162 265.03 -536.056 265.504 -535.282L278.447 -514.699C281.299 -510.17 283.669 -504.12 285.37 -497.029C287.071 -489.938 288.055 -482.002 288.245 -473.85L289.115 -436.843C289.154 -435.477 289.371 -434.173 289.735 -433.113C290.099 -432.053 290.592 -431.289 291.146 -430.928C291.701 -430.567 292.288 -430.626 292.827 -431.097C293.366 -431.569 293.83 -432.429 294.154 -433.558L302.773 -464.381C304.67 -471.172 307.206 -476.815 310.179 -480.859C313.152 -484.904 316.48 -487.24 319.9 -487.681L335.408 -489.721C335.981 -489.812 336.527 -490.327 336.972 -491.193C337.416 -492.059 337.736 -493.235 337.887 -494.555C338.038 -495.876 338.012 -497.276 337.813 -498.561C337.615 -499.847 337.254 -500.953 336.779 -501.727L323.836 -522.31C318.049 -531.496 314.421 -546.619 314.038 -563.159L313.182 -600.11L313.187 -600.154Z" fill="#FFEA00"/>
</g>
<g style="mix-blend-mode:hard-light" filter="url(#filter1_f_222_10328)">
<ellipse cx="92.834" cy="246.584" rx="222.797" ry="241.228" transform="rotate(10.7541 92.834 246.584)" fill="url(#paint1_linear_222_10328)"/>
<g style="mix-blend-mode:overlay">
<ellipse cx="279.763" cy="240.467" rx="279.763" ry="240.467" transform="matrix(0.99999 0.00455872 -0.0499441 0.998752 -172.361 29.0454)" fill="url(#paint2_linear_222_10328)"/>
</g>
</g>
<g filter="url(#filter2_f_222_10328)">
<path d="M-250.033 19.0156C-260.889 16.1044 -247.468 -6.76235 -230.277 -14.6465L-129.386 -60.8914C-107.202 -71.0663 -83.8721 -85.7188 -61.2452 -103.688C-38.6182 -121.657 -17.3163 -142.448 0.972375 -164.414L84.139 -264.274C98.3176 -281.296 118.121 -284.807 113.291 -269.443L84.916 -179.254C78.6863 -159.429 77.7092 -142.247 82.0623 -129.069C86.4155 -115.892 95.9792 -107.081 109.995 -103.334L173.692 -86.2713C176.08 -85.652 177.431 -83.8723 177.553 -81.1859C177.675 -78.4996 176.561 -75.044 174.371 -71.3121C172.181 -67.5801 169.026 -63.7625 165.356 -60.4039C161.686 -57.0453 157.689 -54.3173 153.935 -52.6091L53.0442 -6.36424C30.868 3.80488 7.54542 18.4495 -15.0759 36.4095C-37.6973 54.3695 -58.996 75.1515 -77.285 97.1094L-160.48 197.018C-163.569 200.743 -167.334 204.176 -171.236 206.83C-175.138 209.483 -178.979 211.22 -182.211 211.793C-185.443 212.366 -187.901 211.746 -189.234 210.021C-190.566 208.296 -190.706 205.554 -189.633 202.187L-161.257 111.998C-155.027 92.178 -154.045 74.9983 -158.391 61.8196C-162.736 48.6409 -172.29 39.8253 -186.294 36.0711L-250.033 19.0156ZM-577.976 246.993C-579.403 246.616 -580.209 245.544 -580.279 243.931C-580.349 242.317 -579.679 240.244 -578.366 238.006C-577.052 235.767 -575.161 233.477 -572.96 231.461C-570.76 229.445 -568.363 227.806 -566.11 226.776L-505.584 199.031C-478.588 186.638 -449.642 163.657 -427.372 136.935L-377.461 76.9997C-375.604 74.7666 -373.345 72.7093 -371.004 71.12C-368.663 69.5307 -366.36 68.4902 -364.421 68.1465C-362.483 67.8028 -361.007 68.1733 -360.205 69.2053C-359.403 70.2373 -359.314 71.8784 -359.952 73.8954L-376.972 127.999C-380.712 139.894 -381.302 150.204 -378.694 158.113C-376.086 166.022 -370.352 171.312 -361.947 173.563L-323.712 183.798C-322.284 184.175 -321.478 185.247 -321.408 186.86C-321.338 188.474 -322.008 190.547 -323.322 192.786C-324.635 195.024 -326.527 197.314 -328.727 199.33C-330.927 201.346 -333.324 202.985 -335.577 204.015L-396.103 231.76C-409.412 237.862 -423.408 246.65 -436.983 257.428C-450.559 268.206 -463.341 280.678 -474.315 293.856L-524.227 353.791C-526.083 356.024 -528.343 358.082 -530.683 359.671C-533.024 361.26 -535.327 362.301 -537.266 362.644C-539.205 362.988 -540.68 362.618 -541.482 361.586C-542.284 360.554 -542.373 358.913 -541.735 356.896L-524.716 302.792C-520.975 290.897 -520.386 280.587 -522.993 272.678C-525.601 264.769 -531.335 259.479 -539.741 257.228L-577.976 246.993ZM-418.968 -91.9799C-419.893 -92.2497 -420.41 -92.9714 -420.445 -94.0446C-420.481 -95.1178 -420.033 -96.489 -419.165 -97.9678C-418.298 -99.4466 -417.052 -100.959 -415.602 -102.296C-414.153 -103.632 -412.571 -104.726 -411.076 -105.425L-370.754 -123.917C-352.738 -132.167 -333.417 -147.507 -318.565 -165.352L-285.31 -205.276C-284.071 -206.748 -282.573 -208.099 -281.027 -209.141C-279.48 -210.183 -277.961 -210.866 -276.68 -211.093C-275.399 -211.32 -274.421 -211.08 -273.881 -210.408C-273.341 -209.736 -273.266 -208.663 -273.666 -207.34L-284.993 -171.304C-287.493 -163.365 -287.889 -156.483 -286.149 -151.205C-284.408 -145.927 -280.58 -142.399 -274.968 -140.9L-249.506 -134.072C-248.58 -133.802 -248.064 -133.08 -248.028 -132.007C-247.993 -130.934 -248.44 -129.563 -249.308 -128.084C-250.176 -126.605 -251.421 -125.092 -252.871 -123.756C-254.321 -122.419 -255.903 -121.326 -257.397 -120.627L-297.72 -102.135C-306.599 -98.0667 -315.939 -92.2036 -324.999 -85.0111C-334.058 -77.8185 -342.587 -69.4945 -349.908 -60.7001L-383.135 -20.825C-384.374 -19.3534 -385.871 -18.0024 -387.418 -16.96C-388.965 -15.9175 -390.484 -15.2353 -391.765 -15.0083C-393.045 -14.7812 -394.024 -15.0205 -394.564 -15.693C-395.104 -16.3654 -395.179 -17.4376 -394.779 -18.7605L-383.451 -54.7967C-378.374 -70.9085 -382.085 -82.1646 -393.477 -85.2007L-418.925 -91.9874L-418.968 -91.9799Z" fill="#FFEA00"/>
</g>
<g filter="url(#filter3_f_222_10328)">
<g filter="url(#filter4_dd_222_10328)">
<path d="M218.818 184.759C227.735 177.747 240.266 177.747 249.183 184.759C254.749 189.135 262.056 190.594 268.866 188.688C279.777 185.636 291.354 190.449 296.92 200.352C300.393 206.534 306.588 210.688 313.606 211.544C324.85 212.915 333.712 221.81 335.077 233.095C335.929 240.139 340.068 246.358 346.226 249.845C356.092 255.43 360.887 267.051 357.846 278.004C355.948 284.84 357.401 292.174 361.761 297.761C368.746 306.711 368.746 319.289 361.761 328.24C357.401 333.827 355.948 341.161 357.846 347.997C360.887 358.949 356.092 370.57 346.226 376.156C340.068 379.642 335.929 385.86 335.077 392.905C333.711 404.192 324.849 413.087 313.606 414.456C306.588 415.312 300.393 419.467 296.92 425.648C291.355 435.551 279.777 440.364 268.866 437.312C262.055 435.407 254.749 436.865 249.183 441.241C240.266 448.253 227.735 448.253 218.818 441.241C213.252 436.865 205.945 435.406 199.135 437.312C188.224 440.364 176.646 435.551 171.081 425.648C167.608 419.466 161.413 415.312 154.394 414.456C143.15 413.085 134.288 404.191 132.924 392.905C132.072 385.861 127.932 379.642 121.775 376.156C111.909 370.571 107.113 358.949 110.154 347.997C112.052 341.161 110.599 333.827 106.239 328.24C99.2538 319.29 99.2538 306.711 106.239 297.761C110.599 292.174 112.053 284.839 110.154 278.004C107.113 267.051 111.909 255.431 121.775 249.845C127.932 246.358 132.071 240.14 132.924 233.095C134.29 221.809 143.151 212.914 154.394 211.544C161.412 210.689 167.608 206.534 171.081 200.353C176.645 190.45 188.224 185.636 199.135 188.689C205.945 190.594 213.253 189.135 218.818 184.759Z" fill="#0B2B55"/>
</g>
<g filter="url(#filter5_dd_222_10328)">
<path d="M167.411 -151.769C173.043 -159.41 180.958 -159.41 186.589 -151.769C190.104 -146.999 194.72 -145.409 199.021 -147.486C205.912 -150.813 213.224 -145.566 216.739 -134.773C218.932 -128.036 222.845 -123.508 227.277 -122.576C234.379 -121.082 239.976 -111.387 240.838 -99.0875C241.376 -91.4101 243.991 -84.6324 247.879 -80.8324C254.111 -74.7452 257.139 -62.0788 255.219 -50.1421C254.02 -42.6914 254.937 -34.698 257.691 -28.6092C262.103 -18.8544 262.103 -5.14557 257.691 4.60977C254.938 10.6986 254.02 18.6926 255.219 26.1426C257.139 38.0793 254.111 50.7447 247.879 56.8329C243.99 60.6324 241.376 67.4096 240.838 75.0875C239.975 87.3886 234.378 97.0831 227.277 98.5761C222.845 99.5083 218.932 104.037 216.739 110.773C213.225 121.566 205.912 126.813 199.021 123.486C194.719 121.409 190.104 122.999 186.589 127.769C180.958 135.41 173.043 135.41 167.411 127.769C163.896 122.999 159.281 121.409 154.98 123.486C148.089 126.813 140.777 121.566 137.262 110.773C135.068 104.036 131.156 99.5083 126.723 98.5761C119.621 97.0819 114.024 87.3874 113.162 75.0875C112.624 67.4101 110.01 60.6324 106.121 56.8329C99.8897 50.7458 96.8608 38.0793 98.7816 26.1426C99.9802 18.692 99.0628 10.6986 96.3089 4.60977C91.8972 -5.145 91.8972 -18.8538 96.3089 -28.6092C99.0625 -34.698 99.9806 -42.692 98.7816 -50.1421C96.8608 -62.0788 99.8897 -74.7441 106.121 -80.8324C110.01 -84.6318 112.624 -91.409 113.162 -99.0869C114.025 -111.388 119.622 -121.082 126.723 -122.576C131.155 -123.508 135.068 -128.036 137.262 -134.773C140.776 -145.566 148.089 -150.812 154.98 -147.485C159.281 -145.409 163.896 -146.999 167.411 -151.769Z" fill="#0B2B55"/>
</g>
</g>
</g>
<defs>
<filter id="filter0_f_222_10328" x="156.555" y="-668.802" width="381.153" height="862.86" filterUnits="userSpaceOnUse" color-interpolation-filters="sRGB">
<feFlood flood-opacity="0" result="BackgroundImageFix"/>
<feBlend mode="normal" in="SourceGraphic" in2="BackgroundImageFix" result="shape"/>
<feGaussianBlur stdDeviation="31.25" result="effect1_foregroundBlur_222_10328"/>
</filter>
<filter id="filter1_f_222_10328" x="-278.384" y="-87.8154" width="747.545" height="692.224" filterUnits="userSpaceOnUse" color-interpolation-filters="sRGB">
<feFlood flood-opacity="0" result="BackgroundImageFix"/>
<feBlend mode="normal" in="SourceGraphic" in2="BackgroundImageFix" result="shape"/>
<feGaussianBlur stdDeviation="46.875" result="effect1_foregroundBlur_222_10328"/>
</filter>
<filter id="filter2_f_222_10328" x="-674.034" y="-372.969" width="945.346" height="829.489" filterUnits="userSpaceOnUse" color-interpolation-filters="sRGB">
<feFlood flood-opacity="0" result="BackgroundImageFix"/>
<feBlend mode="normal" in="SourceGraphic" in2="BackgroundImageFix" result="shape"/>
<feGaussianBlur stdDeviation="46.875" result="effect1_foregroundBlur_222_10328"/>
</filter>
<filter id="filter3_f_222_10328" x="-6.99988" y="-257.5" width="474" height="804" filterUnits="userSpaceOnUse" color-interpolation-filters="sRGB">
<feFlood flood-opacity="0" result="BackgroundImageFix"/>
<feBlend mode="normal" in="SourceGraphic" in2="BackgroundImageFix" result="shape"/>
<feGaussianBlur stdDeviation="50" result="effect1_foregroundBlur_222_10328"/>
</filter>
<filter id="filter4_dd_222_10328" x="101" y="179.5" width="268.778" height="269.778" filterUnits="userSpaceOnUse" color-interpolation-filters="sRGB">
<feFlood flood-opacity="0" result="BackgroundImageFix"/>
<feColorMatrix in="SourceAlpha" type="matrix" values="0 0 0 0 0 0 0 0 0 0 0 0 0 0 0 0 0 0 127 0" result="hardAlpha"/>
<feOffset dx="2.77778" dy="2.77778"/>
<feComposite in2="hardAlpha" operator="out"/>
<feColorMatrix type="matrix" values="0 0 0 0 0.858824 0 0 0 0 0 0 0 0 0 1 0 0 0 1 0"/>
<feBlend mode="normal" in2="BackgroundImageFix" result="effect1_dropShadow_222_10328"/>
<feColorMatrix in="SourceAlpha" type="matrix" values="0 0 0 0 0 0 0 0 0 0 0 0 0 0 0 0 0 0 127 0" result="hardAlpha"/>
<feOffset dx="1.38889" dy="1.38889"/>
<feComposite in2="hardAlpha" operator="out"/>
<feColorMatrix type="matrix" values="0 0 0 0 0.937255 0 0 0 0 0 0 0 0 0 0.564706 0 0 0 1 0"/>
<feBlend mode="normal" in2="effect1_dropShadow_222_10328" result="effect2_dropShadow_222_10328"/>
<feBlend mode="normal" in="SourceGraphic" in2="effect2_dropShadow_222_10328" result="shape"/>
</filter>
<filter id="filter5_dd_222_10328" x="93.0001" y="-157.5" width="170.778" height="293.778" filterUnits="userSpaceOnUse" color-interpolation-filters="sRGB">
<feFlood flood-opacity="0" result="BackgroundImageFix"/>
<feColorMatrix in="SourceAlpha" type="matrix" values="0 0 0 0 0 0 0 0 0 0 0 0 0 0 0 0 0 0 127 0" result="hardAlpha"/>
<feOffset dx="2.77778" dy="2.77778"/>
<feComposite in2="hardAlpha" operator="out"/>
<feColorMatrix type="matrix" values="0 0 0 0 0.858824 0 0 0 0 0 0 0 0 0 1 0 0 0 1 0"/>
<feBlend mode="normal" in2="BackgroundImageFix" result="effect1_dropShadow_222_10328"/>
<feColorMatrix in="SourceAlpha" type="matrix" values="0 0 0 0 0 0 0 0 0 0 0 0 0 0 0 0 0 0 127 0" result="hardAlpha"/>
<feOffset dx="1.38889" dy="1.38889"/>
<feComposite in2="hardAlpha" operator="out"/>
<feColorMatrix type="matrix" values="0 0 0 0 0.937255 0 0 0 0 0 0 0 0 0 0.564706 0 0 0 1 0"/>
<feBlend mode="normal" in2="effect1_dropShadow_222_10328" result="effect2_dropShadow_222_10328"/>
<feBlend mode="normal" in="SourceGraphic" in2="effect2_dropShadow_222_10328" result="shape"/>
</filter>
<linearGradient id="paint0_linear_222_10328" x1="375" y1="374.635" x2="-65.5635" y2="265.823" gradientUnits="userSpaceOnUse">
<stop stop-color="#36965B"/>
<stop offset="1" stop-color="#24A5C1"/>
</linearGradient>
<linearGradient id="paint1_linear_222_10328" x1="-15.9909" y1="46.7288" x2="315.091" y2="74.912" gradientUnits="userSpaceOnUse">
<stop stop-color="#231F4D"/>
<stop offset="1" stop-color="#2A9F9F"/>
</linearGradient>
<linearGradient id="paint2_linear_222_10328" x1="143.113" y1="41.2419" x2="557.101" y2="85.6331" gradientUnits="userSpaceOnUse">
<stop stop-color="#231F4D"/>
<stop offset="1" stop-color="#2A9F9F"/>
</linearGradient>
<clipPath id="clip0_222_10328">
<rect width="375" height="375" fill="white" transform="translate(0.00012207 0.5)"/>
</clipPath>
</defs>
</svg>
