<svg width="253" height="67" viewBox="0 0 253 67" fill="none" xmlns="http://www.w3.org/2000/svg">
<rect x="0.5" y="0.461182" width="252" height="66" fill="#937235"/>
<path d="M0.5 0.461182H252.5V58.4612C252.5 61.2226 250.261 63.4612 247.5 63.4612H5.5C2.73857 63.4612 0.5 61.2226 0.5 58.4612V0.461182Z" fill="url(#paint0_linear_0_4931)"/>
<g filter="url(#filter0_f_0_4931)">
<path d="M3.5 6.46118C3.5 4.80433 4.84315 3.46118 6.5 3.46118H246.5C248.157 3.46118 249.5 4.80433 249.5 6.46118V57.4612C249.5 59.118 248.157 60.4612 246.5 60.4612H6.5C4.84314 60.4612 3.5 59.118 3.5 57.4612V6.46118Z" fill="url(#paint1_linear_0_4931)"/>
</g>
<defs>
<filter id="filter0_f_0_4931" x="3" y="2.96118" width="247" height="58" filterUnits="userSpaceOnUse" color-interpolation-filters="sRGB">
<feFlood flood-opacity="0" result="BackgroundImageFix"/>
<feBlend mode="normal" in="SourceGraphic" in2="BackgroundImageFix" result="shape"/>
<feGaussianBlur stdDeviation="0.25" result="effect1_foregroundBlur_0_4931"/>
</filter>
<linearGradient id="paint0_linear_0_4931" x1="126.5" y1="0.461182" x2="126.5" y2="63.4612" gradientUnits="userSpaceOnUse">
<stop offset="0.025" stop-color="#FFF8C0"/>
<stop offset="1" stop-color="#E6C55D"/>
</linearGradient>
<linearGradient id="paint1_linear_0_4931" x1="126.5" y1="3.46118" x2="126.5" y2="60.4612" gradientUnits="userSpaceOnUse">
<stop offset="0.265" stop-color="#FFF8C0"/>
<stop offset="0.36" stop-color="#FFF2B9"/>
<stop offset="0.64" stop-color="#EDD35E"/>
<stop offset="0.97" stop-color="#DCBA52"/>
</linearGradient>
</defs>
</svg>
