<svg width="58" height="58" viewBox="0 0 58 58" fill="none" xmlns="http://www.w3.org/2000/svg">
<path d="M49.0535 49.0535C60.109 37.9979 60.109 20.0734 49.0535 9.01781C37.9979 -2.03773 20.0734 -2.03771 9.01782 9.01783C-2.03772 20.0734 -2.03772 37.9979 9.01782 49.0535C20.0734 60.109 37.9979 60.109 49.0535 49.0535Z" fill="url(#paint0_linear_148_1601)"/>
<path d="M48.4361 45.4632C57.4912 34.7593 56.1546 18.7416 45.4508 9.6865C34.7469 0.631438 18.7292 1.96806 9.67411 12.6719C0.619048 23.3757 1.95565 39.3935 12.6595 48.4485C23.3633 57.5036 39.3811 56.167 48.4361 45.4632Z" fill="url(#paint1_linear_148_1601)"/>
<defs>
<linearGradient id="paint0_linear_148_1601" x1="10.6857" y1="10.6737" x2="53.6134" y2="53.6014" gradientUnits="userSpaceOnUse">
<stop stop-color="#FEDC31"/>
<stop offset="0.09" stop-color="#FDC347"/>
<stop offset="0.27" stop-color="#FC8682"/>
<stop offset="0.52" stop-color="#FA2CD7"/>
<stop offset="0.76" stop-color="#987CDB"/>
<stop offset="1" stop-color="#33D0E0"/>
</linearGradient>
<linearGradient id="paint1_linear_148_1601" x1="50.1187" y1="8.00397" x2="-1.08085" y2="59.2035" gradientUnits="userSpaceOnUse">
<stop offset="0.28" stop-color="#303030"/>
<stop offset="1" stop-color="#000604"/>
</linearGradient>
</defs>
</svg>
