<svg width="38" height="62" viewBox="0 0 38 62" fill="none" xmlns="http://www.w3.org/2000/svg">
<path d="M17.7914 54.9485L19.1375 57.6856L20.4835 54.9485L35.5348 24.3426L35.8727 23.6554L35.5143 22.9786L27.4098 7.67562L26.9872 6.87766H26.0842H12.1907H11.2878L10.8651 7.67562L2.76061 22.9786L2.40219 23.6554L2.74014 24.3426L17.7914 54.9485Z" fill="#D1FA2D" stroke="#131615" stroke-width="3" stroke-linecap="round"/>
<path d="M26.0842 8.37766L34.1888 23.6806H4.08618L12.1907 8.37766H26.0842Z" fill="#E1FF6B"/>
<path d="M34.1887 23.6806L19.1375 54.2866V8.37766H26.0842L34.1887 23.6806Z" fill="#AFD02A"/>
<path d="M34.1887 23.6806H19.1375V8.37766H26.0842L34.1887 23.6806Z" fill="#C3E43B"/>
<path d="M4.08617 23.6806L19.1375 54.2866L11.4188 23.6806L19.1375 8.37766H12.1907L4.08617 23.6806Z" fill="#E3E73C"/>
<path d="M12.5766 8.37766L4.08617 23.6806H11.4188L19.1375 8.37766H12.5766Z" fill="#F0F36F"/>
<path d="M4.08617 23.6806L19.1375 54.2866L6.78768 23.6806L14.8922 8.37766H12.1907L4.08617 23.6806Z" fill="#FFF9C1"/>
<path d="M12.1907 8.37766L4.08616 23.6806H6.78767L14.8922 8.37766H12.1907Z" fill="#FEF9CF"/>
<path d="M34.1887 23.6806L19.1375 54.2866L26.8561 23.6806L19.1375 8.37766H26.0842L34.1887 23.6806Z" fill="#63C038"/>
<path d="M26.0842 8.37766L34.1887 23.6806H26.8561L19.1375 8.37766H26.0842Z" fill="#75D04A"/>
<path d="M34.1887 23.6806L19.1375 54.2866L31.4872 23.6806L23.3827 8.37766H26.0842L34.1887 23.6806Z" fill="#AFD02A"/>
<path d="M26.0842 8.37766L34.1887 23.6806H31.4872L23.3827 8.37766H26.0842Z" fill="#C5E447"/>
<path fill-rule="evenodd" clip-rule="evenodd" d="M10.8997 12.3592C11.0608 12.5898 11.0782 12.9925 10.9386 13.2586L5.92154 22.823C5.78194 23.0891 5.53821 23.1179 5.37714 22.8872C5.21607 22.6566 5.19866 22.2539 5.33825 21.9878L10.3553 12.4234C10.4949 12.1573 10.7387 12.1286 10.8997 12.3592Z" fill="white"/>
<path fill-rule="evenodd" clip-rule="evenodd" d="M18.2324 12.3592C18.3935 12.5898 18.4109 12.9925 18.2713 13.2586L13.2542 22.823C13.1146 23.0891 12.8709 23.1179 12.7098 22.8872C12.5488 22.6566 12.5314 22.2539 12.671 21.9878L17.688 12.4234C17.8276 12.1573 18.0714 12.1286 18.2324 12.3592Z" fill="#F8FFDA"/>
<path d="M22.6109 31.9698C22.6109 32.3219 22.4381 32.6074 22.2249 32.6074C22.0118 32.6074 21.839 32.3219 21.839 31.9698C21.839 31.6176 22.0118 31.3322 22.2249 31.3322C22.4381 31.3322 22.6109 31.6176 22.6109 31.9698Z" fill="#99BC0D"/>
<path d="M23.7687 34.5203C23.7687 34.8724 23.5959 35.1579 23.3828 35.1579C23.1696 35.1579 22.9968 34.8724 22.9968 34.5203C22.9968 34.1681 23.1696 33.8826 23.3828 33.8826C23.5959 33.8826 23.7687 34.1681 23.7687 34.5203Z" fill="#99BC0D"/>
<path d="M22.2249 37.7084C22.2249 38.0605 22.0521 38.346 21.839 38.346C21.6259 38.346 21.4531 38.0605 21.4531 37.7084C21.4531 37.3562 21.6259 37.0707 21.839 37.0707C22.0521 37.0707 22.2249 37.3562 22.2249 37.7084Z" fill="#99BC0D"/>
<path d="M21.0671 38.9836C21.0671 39.3358 20.8944 39.6213 20.6812 39.6213C20.4681 39.6213 20.2953 39.3358 20.2953 38.9836C20.2953 38.6315 20.4681 38.346 20.6812 38.346C20.8944 38.346 21.0671 38.6315 21.0671 38.9836Z" fill="#99BC0D"/>
<path d="M21.0671 42.8094C21.0671 43.1615 20.8944 43.447 20.6812 43.447C20.4681 43.447 20.2953 43.1615 20.2953 42.8094C20.2953 42.4572 20.4681 42.1718 20.6812 42.1718C20.8944 42.1718 21.0671 42.4572 21.0671 42.8094Z" fill="#99BC0D"/>
<path d="M21.4531 30.0569C21.4531 30.409 21.2803 30.6945 21.0671 30.6945C20.854 30.6945 20.6812 30.409 20.6812 30.0569C20.6812 29.7047 20.854 29.4193 21.0671 29.4193C21.2803 29.4193 21.4531 29.7047 21.4531 30.0569Z" fill="#99BC0D"/>
<path d="M24.5405 28.7816C24.5405 29.1338 24.3678 29.4192 24.1546 29.4192C23.9415 29.4192 23.7687 29.1338 23.7687 28.7816C23.7687 28.4295 23.9415 28.144 24.1546 28.144C24.3678 28.144 24.5405 28.4295 24.5405 28.7816Z" fill="#99BC0D"/>
<path d="M22.9968 28.4628C22.9968 28.991 22.7376 29.4193 22.4179 29.4193C22.0982 29.4193 21.839 28.991 21.839 28.4628C21.839 27.9346 22.0982 27.5064 22.4179 27.5064C22.7376 27.5064 22.9968 27.9346 22.9968 28.4628Z" fill="#99BC0D"/>
<path d="M22.2249 34.8391C22.2249 35.3673 21.9657 35.7955 21.646 35.7955C21.3263 35.7955 21.0671 35.3673 21.0671 34.8391C21.0671 34.3108 21.3263 33.8826 21.646 33.8826C21.9657 33.8826 22.2249 34.3108 22.2249 34.8391Z" fill="#99BC0D"/>
<g style="mix-blend-mode:color">
<path d="M34.1888 23.6807L19.1375 54.2866L4.08618 23.6807L12.1907 8.37772H26.0842L34.1888 23.6807Z" fill="#FFBB00"/>
</g>
</svg>
