<svg width="122" height="106" viewBox="0 0 122 106" fill="none" xmlns="http://www.w3.org/2000/svg">
<circle cx="61" cy="52.9082" r="52.9082" fill="#00B5B0" fill-opacity="0.1"/>
<path d="M61 15.3789C70.8627 15.3789 80.3215 19.343 87.2955 26.399C94.2695 33.4551 98.1875 43.0251 98.1875 53.0039C98.1875 62.9827 94.2695 72.5527 87.2955 79.6088C80.3215 86.6649 70.8627 90.6289 61 90.6289C51.1373 90.6289 41.6785 86.6649 34.7045 79.6088C27.7305 72.5527 23.8125 62.9827 23.8125 53.0039C23.8125 43.0251 27.7305 33.4551 34.7045 26.399C41.6785 19.343 51.1373 15.3789 61 15.3789ZM56.3675 60.4268L48.1066 52.0633C47.8104 51.7636 47.4588 51.526 47.0719 51.3638C46.6849 51.2016 46.2702 51.1182 45.8514 51.1182C45.4326 51.1182 45.0179 51.2016 44.6309 51.3638C44.244 51.526 43.8924 51.7636 43.5963 52.0633C42.9981 52.6684 42.6621 53.4892 42.6621 54.345C42.6621 55.2008 42.9981 56.0215 43.5963 56.6267L54.115 67.2692C54.4103 67.5703 54.7616 67.8093 55.1487 67.9725C55.5357 68.1356 55.9509 68.2196 56.3702 68.2196C56.7894 68.2196 57.2046 68.1356 57.5916 67.9725C57.9787 67.8093 58.33 67.5703 58.6253 67.2692L80.4066 45.2263C80.7067 44.9279 80.9454 44.5723 81.109 44.1801C81.2726 43.7879 81.3579 43.3668 81.3598 42.9411C81.3618 42.5154 81.2804 42.0935 81.1204 41.6997C80.9604 41.306 80.725 40.9482 80.4276 40.647C80.1303 40.3458 79.7769 40.1071 79.3879 39.9448C78.999 39.7824 78.5821 39.6996 78.1613 39.7011C77.7405 39.7026 77.3242 39.7883 76.9364 39.9534C76.5485 40.1185 76.1968 40.3596 75.9016 40.6629L56.3675 60.4268Z" fill="#00B5B0"/>
<path d="M15.3264 4.08113C15.5658 3.47946 16.3032 3.45017 16.5922 3.99088L16.634 4.08113L17.3721 5.93759C18.0165 7.55806 19.0883 8.92001 20.4441 9.8413L20.6722 9.99092L21.9826 10.8143C22.0868 10.8794 22.1747 10.9727 22.2383 11.0856C22.302 11.1985 22.3394 11.3274 22.3471 11.4605C22.3547 11.5937 22.3325 11.7269 22.2823 11.848C22.2321 11.9691 22.1556 12.0742 22.0598 12.1538L21.9833 12.2092L20.6722 13.0325C19.2891 13.902 18.1765 15.2228 17.4833 16.8183L17.3721 17.0858L16.634 18.9423C16.3946 19.544 15.6572 19.5733 15.3682 19.0325L15.3264 18.9423L14.5883 17.0858C13.9438 15.4654 12.872 14.1034 11.5163 13.1821L11.2882 13.0325L9.97776 12.2092C9.87358 12.144 9.78566 12.0507 9.722 11.9378C9.65834 11.8249 9.62097 11.696 9.6133 11.5629C9.60562 11.4297 9.62788 11.2965 9.67806 11.1755C9.72823 11.0544 9.80472 10.9493 9.90055 10.8697L9.97705 10.8143L11.2882 9.99092C12.6713 9.12139 13.7839 7.80059 14.4771 6.20517L14.5883 5.93759L15.3264 4.08113ZM21.8034 3.69084C22.1549 4.58358 22.7545 5.32592 23.5133 5.80775C23.6266 5.879 23.6266 6.06109 23.5133 6.13234C22.7541 6.61424 22.1543 7.35689 21.8027 8.25005C21.7892 8.28367 21.7673 8.31222 21.7397 8.33225C21.712 8.35228 21.6798 8.36294 21.6468 8.36294C21.6139 8.36294 21.5816 8.35228 21.554 8.33225C21.5263 8.31222 21.5045 8.28367 21.491 8.25005C21.1393 7.35718 20.5394 6.61483 19.7804 6.13313C19.7548 6.1168 19.7335 6.09318 19.7187 6.06468C19.7038 6.03618 19.696 6.0038 19.696 5.97084C19.696 5.93788 19.7038 5.9055 19.7187 5.877C19.7335 5.84849 19.7548 5.82488 19.7804 5.80855C20.5397 5.32644 21.1396 4.5835 21.491 3.69005C21.5045 3.65643 21.5263 3.62788 21.554 3.60784C21.5816 3.58781 21.6139 3.57715 21.6468 3.57715C21.6798 3.57715 21.712 3.58781 21.7397 3.60784C21.7673 3.62788 21.7892 3.65643 21.8027 3.69005L21.8034 3.69084Z" fill="#FFCE00"/>
<path d="M8.0578 87.9722C8.3113 87.4022 9.09205 87.3745 9.39805 87.8867L9.4423 87.9722L10.2238 89.731C10.9062 91.2661 12.041 92.5564 13.4765 93.4292L13.718 93.571L15.1055 94.351C15.2159 94.4127 15.3089 94.5011 15.3763 94.608C15.4438 94.715 15.4833 94.8371 15.4914 94.9632C15.4996 95.0894 15.476 95.2156 15.4229 95.3303C15.3698 95.445 15.2888 95.5446 15.1873 95.62L15.1063 95.6725L13.718 96.4525C12.2536 97.2762 11.0756 98.5275 10.3415 100.039L10.2238 100.292L9.4423 102.051C9.1888 102.621 8.40805 102.649 8.10205 102.137L8.0578 102.051L7.2763 100.292C6.59389 98.7573 5.45906 97.467 4.02355 96.5942L3.78205 96.4525L2.39455 95.6725C2.28424 95.6107 2.19115 95.5223 2.12375 95.4154C2.05634 95.3084 2.01677 95.1863 2.00865 95.0602C2.00052 94.934 2.02409 94.8079 2.07722 94.6931C2.13034 94.5784 2.21133 94.4789 2.3128 94.4035L2.3938 94.351L3.78205 93.571C5.24651 92.7472 6.42453 91.4959 7.15855 89.9845L7.2763 89.731L8.0578 87.9722ZM14.9158 87.6025C15.288 88.4482 15.9229 89.1515 16.7263 89.608C16.8463 89.6755 16.8463 89.848 16.7263 89.9155C15.9225 90.372 15.2873 91.0756 14.915 91.9217C14.9008 91.9536 14.8776 91.9806 14.8484 91.9996C14.8191 92.0186 14.7849 92.0287 14.75 92.0287C14.7152 92.0287 14.681 92.0186 14.6517 91.9996C14.6225 91.9806 14.5993 91.9536 14.585 91.9217C14.2127 91.0758 13.5775 90.3726 12.7738 89.9162C12.7467 89.9007 12.7241 89.8784 12.7084 89.8514C12.6928 89.8244 12.6845 89.7937 12.6845 89.7625C12.6845 89.7312 12.6928 89.7006 12.7084 89.6736C12.7241 89.6466 12.7467 89.6242 12.7738 89.6087C13.5777 89.152 14.2129 88.4481 14.585 87.6017C14.5993 87.5699 14.6225 87.5428 14.6517 87.5238C14.681 87.5048 14.7152 87.4948 14.75 87.4948C14.7849 87.4948 14.8191 87.5048 14.8484 87.5238C14.8776 87.5428 14.9008 87.5699 14.915 87.6017L14.9158 87.6025Z" fill="#FFCE00"/>
<path d="M101.279 8.77415C101.406 8.55248 101.796 8.54169 101.949 8.7409L101.971 8.77415L102.362 9.45811C102.703 10.0551 103.27 10.5569 103.988 10.8963L104.109 10.9514L104.803 11.2548C104.858 11.2788 104.904 11.3132 104.938 11.3547C104.972 11.3963 104.992 11.4438 104.996 11.4929C105 11.5419 104.988 11.591 104.961 11.6356C104.935 11.6802 104.894 11.719 104.844 11.7483L104.803 11.7687L104.109 12.072C103.377 12.3924 102.788 12.879 102.421 13.4668L102.362 13.5654L101.971 14.2493C101.844 14.471 101.454 14.4818 101.301 14.2826L101.279 14.2493L100.888 13.5654C100.547 12.9683 99.9794 12.4666 99.2617 12.1271L99.1409 12.072L98.4472 11.7687C98.392 11.7447 98.3455 11.7103 98.3118 11.6687C98.278 11.6271 98.2583 11.5796 98.2542 11.5306C98.2501 11.4815 98.2619 11.4325 98.2885 11.3878C98.315 11.3432 98.3555 11.3045 98.4063 11.2752L98.4468 11.2548L99.1409 10.9514C99.8731 10.6311 100.462 10.1445 100.829 9.55669L100.888 9.45811L101.279 8.77415ZM104.708 8.63036C104.894 8.95926 105.211 9.23276 105.613 9.41027C105.673 9.43652 105.673 9.50361 105.613 9.52986C105.211 9.7074 104.894 9.98101 104.707 10.3101C104.7 10.3225 104.689 10.333 104.674 10.3404C104.659 10.3477 104.642 10.3517 104.625 10.3517C104.607 10.3517 104.59 10.3477 104.576 10.3404C104.561 10.333 104.55 10.3225 104.542 10.3101C104.356 9.98111 104.039 9.70762 103.637 9.53015C103.623 9.52413 103.612 9.51543 103.604 9.50493C103.596 9.49443 103.592 9.4825 103.592 9.47036C103.592 9.45821 103.596 9.44628 103.604 9.43578C103.612 9.42528 103.623 9.41658 103.637 9.41056C104.039 9.23295 104.356 8.95923 104.542 8.63006C104.55 8.61768 104.561 8.60716 104.576 8.59978C104.59 8.5924 104.607 8.58847 104.625 8.58847C104.642 8.58847 104.659 8.5924 104.674 8.59978C104.689 8.60716 104.7 8.61768 104.707 8.63006L104.708 8.63036Z" fill="#FFCE00"/>
<path d="M114.538 74.2098C114.707 73.8615 115.228 73.8445 115.432 74.1576L115.461 74.2098L115.982 75.2846C116.437 76.2228 117.194 77.0113 118.151 77.5446L118.312 77.6313L119.237 78.1079C119.31 78.1457 119.373 78.1997 119.417 78.265C119.462 78.3304 119.489 78.405 119.494 78.4821C119.5 78.5592 119.484 78.6363 119.449 78.7064C119.413 78.7765 119.359 78.8374 119.291 78.8834L119.237 78.9155L118.312 79.3922C117.336 79.8956 116.55 80.6603 116.061 81.5839L115.982 81.7389L115.461 82.8136C115.292 83.162 114.772 83.1789 114.568 82.8659L114.538 82.8136L114.017 81.7389C113.563 80.8007 112.806 80.0122 111.849 79.4788L111.688 79.3922L110.763 78.9155C110.689 78.8778 110.627 78.8238 110.582 78.7584C110.537 78.6931 110.511 78.6184 110.506 78.5413C110.5 78.4643 110.516 78.3871 110.551 78.317C110.587 78.247 110.641 78.1861 110.708 78.14L110.762 78.1079L111.688 77.6313C112.664 77.1279 113.45 76.3632 113.939 75.4395L114.017 75.2846L114.538 74.2098ZM119.11 73.9839C119.359 74.5007 119.782 74.9305 120.317 75.2094C120.397 75.2507 120.397 75.3561 120.317 75.3974C119.782 75.6763 119.358 76.1063 119.11 76.6234C119.1 76.6429 119.085 76.6594 119.065 76.671C119.046 76.6826 119.023 76.6888 119 76.6888C118.977 76.6888 118.954 76.6826 118.934 76.671C118.915 76.6594 118.899 76.6429 118.89 76.6234C118.642 76.1065 118.218 75.6767 117.682 75.3978C117.664 75.3884 117.649 75.3747 117.639 75.3582C117.628 75.3417 117.623 75.3229 117.623 75.3039C117.623 75.2848 117.628 75.266 117.639 75.2495C117.649 75.233 117.664 75.2193 117.682 75.2099C118.218 74.9308 118.642 74.5007 118.89 73.9834C118.899 73.9639 118.915 73.9474 118.934 73.9358C118.954 73.9242 118.977 73.918 119 73.918C119.023 73.918 119.046 73.9242 119.065 73.9358C119.085 73.9474 119.1 73.9639 119.11 73.9834L119.11 73.9839Z" fill="#FFCE00"/>
</svg>
