<svg width="121" height="108" viewBox="0 0 121 108" fill="none" xmlns="http://www.w3.org/2000/svg">
<path d="M14.8264 2.35506C15.0658 1.75339 15.8032 1.7241 16.0922 2.26481L16.134 2.35506L16.8721 4.21151C17.5165 5.83199 18.5883 7.19393 19.9441 8.11522L20.1722 8.26485L21.4826 9.08818C21.5868 9.15336 21.6747 9.24665 21.7383 9.35953C21.802 9.47241 21.8394 9.60131 21.8471 9.73447C21.8547 9.86763 21.8325 10.0008 21.7823 10.1219C21.7321 10.243 21.6556 10.3481 21.5598 10.4277L21.4833 10.4831L20.1722 11.3064C18.7891 12.176 17.6765 13.4968 16.9833 15.0922L16.8721 15.3598L16.134 17.2162C15.8946 17.8179 15.1572 17.8472 14.8682 17.3065L14.8264 17.2162L14.0883 15.3598C13.4438 13.7393 12.372 12.3773 11.0163 11.4561L10.7882 11.3064L9.47776 10.4831C9.37358 10.4179 9.28566 10.3246 9.222 10.2117C9.15834 10.0989 9.12097 9.96997 9.1133 9.83681C9.10562 9.70365 9.12788 9.57046 9.17806 9.44938C9.22823 9.3283 9.30472 9.22318 9.40055 9.1436L9.47705 9.08818L10.7882 8.26485C12.1713 7.39532 13.2839 6.07451 13.9771 4.4791L14.0883 4.21151L14.8264 2.35506ZM21.3034 1.96476C21.6549 2.85751 22.2545 3.59985 23.0133 4.08168C23.1266 4.15293 23.1266 4.33501 23.0133 4.40626C22.2541 4.88817 21.6543 5.63081 21.3027 6.52397C21.2892 6.55759 21.2673 6.58614 21.2397 6.60618C21.212 6.62621 21.1798 6.63687 21.1468 6.63687C21.1139 6.63687 21.0816 6.62621 21.054 6.60618C21.0263 6.58614 21.0045 6.55759 20.991 6.52397C20.6393 5.63111 20.0394 4.88875 19.2804 4.40706C19.2548 4.39072 19.2335 4.36711 19.2187 4.33861C19.2038 4.3101 19.196 4.27773 19.196 4.24476C19.196 4.2118 19.2038 4.17943 19.2187 4.15092C19.2335 4.12242 19.2548 4.0988 19.2804 4.08247C20.0397 3.60036 20.6396 2.85742 20.991 1.96397C21.0045 1.93035 21.0263 1.9018 21.054 1.88177C21.0816 1.86173 21.1139 1.85107 21.1468 1.85107C21.1798 1.85107 21.212 1.86173 21.2397 1.88177C21.2673 1.9018 21.2892 1.93035 21.3027 1.96397L21.3034 1.96476Z" fill="#FFCE00"/>
<path d="M7.55755 86.2463C7.81105 85.6763 8.5918 85.6485 8.8978 86.1608L8.94205 86.2463L9.72355 88.005C10.406 89.5402 11.5408 90.8305 12.9763 91.7033L13.2178 91.845L14.6053 92.625C14.7156 92.6868 14.8087 92.7751 14.8761 92.8821C14.9435 92.989 14.9831 93.1111 14.9912 93.2373C14.9993 93.3634 14.9758 93.4896 14.9226 93.6043C14.8695 93.719 14.7885 93.8186 14.6871 93.894L14.6061 93.9465L13.2178 94.7265C11.7533 95.5503 10.5753 96.8016 9.8413 98.313L9.72355 98.5665L8.94205 100.325C8.68855 100.895 7.9078 100.923 7.6018 100.411L7.55755 100.325L6.77605 98.5665C6.09365 97.0313 4.95882 95.7411 3.5233 94.8683L3.2818 94.7265L1.8943 93.9465C1.784 93.8848 1.69091 93.7964 1.6235 93.6894C1.5561 93.5825 1.51653 93.4604 1.5084 93.3342C1.50028 93.2081 1.52385 93.0819 1.57697 92.9672C1.6301 92.8525 1.71109 92.7529 1.81255 92.6775L1.89355 92.625L3.2818 91.845C4.74627 91.0212 5.92429 89.77 6.6583 88.2585L6.77605 88.005L7.55755 86.2463ZM14.4156 85.8765C14.7878 86.7223 15.4226 87.4255 16.2261 87.882C16.3461 87.9495 16.3461 88.122 16.2261 88.1895C15.4222 88.646 14.7871 89.3496 14.4148 90.1958C14.4006 90.2276 14.3774 90.2547 14.3481 90.2736C14.3188 90.2926 14.2847 90.3027 14.2498 90.3027C14.2149 90.3027 14.1808 90.2926 14.1515 90.2736C14.1222 90.2547 14.099 90.2276 14.0848 90.1958C13.7124 89.3499 13.0772 88.6466 12.2736 88.1903C12.2464 88.1748 12.2239 88.1524 12.2082 88.1254C12.1925 88.0984 12.1842 88.0677 12.1842 88.0365C12.1842 88.0053 12.1925 87.9746 12.2082 87.9476C12.2239 87.9206 12.2464 87.8982 12.2736 87.8828C13.0775 87.426 13.7127 86.7222 14.0848 85.8758C14.099 85.8439 14.1222 85.8169 14.1515 85.7979C14.1808 85.7789 14.2149 85.7688 14.2498 85.7688C14.2847 85.7688 14.3188 85.7789 14.3481 85.7979C14.3774 85.8169 14.4006 85.8439 14.4148 85.8758L14.4156 85.8765Z" fill="#FFCE00"/>
<path d="M100.779 7.04798C100.906 6.82632 101.296 6.81552 101.449 7.01473L101.471 7.04798L101.862 7.73194C102.203 8.32896 102.77 8.83073 103.488 9.17015L103.609 9.22527L104.303 9.52861C104.358 9.55262 104.404 9.58699 104.438 9.62858C104.472 9.67017 104.492 9.71765 104.496 9.76671C104.5 9.81577 104.488 9.86484 104.461 9.90945C104.435 9.95406 104.394 9.99279 104.344 10.0221L104.303 10.0425L103.609 10.3459C102.877 10.6662 102.288 11.1528 101.921 11.7406L101.862 11.8392L101.471 12.5231C101.344 12.7448 100.954 12.7556 100.801 12.5564L100.779 12.5231L100.388 11.8392C100.047 11.2422 99.4794 10.7404 98.7617 10.401L98.6409 10.3459L97.9472 10.0425C97.892 10.0185 97.8455 9.98414 97.8118 9.94255C97.778 9.90096 97.7583 9.85348 97.7542 9.80442C97.7501 9.75536 97.7619 9.70629 97.7885 9.66168C97.815 9.61707 97.8555 9.57834 97.9063 9.54902L97.9468 9.52861L98.6409 9.22527C99.3731 8.90492 99.9621 8.41831 100.329 7.83052L100.388 7.73194L100.779 7.04798ZM104.208 6.90419C104.394 7.2331 104.711 7.50659 105.113 7.68411C105.173 7.71036 105.173 7.77744 105.113 7.80369C104.711 7.98123 104.394 8.25484 104.207 8.5839C104.2 8.59629 104.189 8.6068 104.174 8.61418C104.159 8.62157 104.142 8.62549 104.125 8.62549C104.107 8.62549 104.09 8.62157 104.076 8.61418C104.061 8.6068 104.05 8.59629 104.042 8.5839C103.856 8.25495 103.539 7.98145 103.137 7.80398C103.123 7.79797 103.112 7.78926 103.104 7.77876C103.096 7.76826 103.092 7.75633 103.092 7.74419C103.092 7.73205 103.096 7.72012 103.104 7.70962C103.112 7.69912 103.123 7.69042 103.137 7.6844C103.539 7.50678 103.856 7.23306 104.042 6.9039C104.05 6.89151 104.061 6.88099 104.076 6.87361C104.09 6.86623 104.107 6.8623 104.125 6.8623C104.142 6.8623 104.159 6.86623 104.174 6.87361C104.189 6.88099 104.2 6.89151 104.207 6.9039L104.208 6.90419Z" fill="#FFCE00"/>
<circle cx="63" cy="54.1753" r="52.9082" fill="#F8E5E5"/>
<path d="M63 16.646C72.8627 16.646 82.3215 20.61 89.2955 27.6661C96.2695 34.7222 100.188 44.2922 100.188 54.271C100.188 64.2498 96.2695 73.8198 89.2955 80.8759C82.3215 87.9319 72.8627 91.896 63 91.896C53.1373 91.896 43.6785 87.9319 36.7045 80.8759C29.7305 73.8198 25.8125 64.2498 25.8125 54.271C25.8125 44.2922 29.7305 34.7222 36.7045 27.6661C43.6785 20.61 53.1373 16.646 63 16.646ZM58.3675 61.6939L50.1066 53.3304C49.8104 53.0307 49.4588 52.793 49.0719 52.6309C48.6849 52.4687 48.2702 52.3853 47.8514 52.3853C47.4326 52.3853 47.0179 52.4687 46.6309 52.6309C46.244 52.793 45.8924 53.0307 45.5963 53.3304C44.9981 53.9355 44.6621 54.7563 44.6621 55.6121C44.6621 56.4679 44.9981 57.2886 45.5963 57.8937L56.115 68.5362C56.4103 68.8374 56.7616 69.0764 57.1487 69.2396C57.5357 69.4027 57.9509 69.4867 58.3702 69.4867C58.7894 69.4867 59.2046 69.4027 59.5916 69.2396C59.9787 69.0764 60.33 68.8374 60.6253 68.5362L82.4066 46.4934C82.7067 46.195 82.9454 45.8394 83.109 45.4472C83.2726 45.055 83.3579 44.6339 83.3598 44.2082C83.3618 43.7825 83.2804 43.3606 83.1204 42.9668C82.9604 42.5731 82.725 42.2153 82.4276 41.9141C82.1303 41.6129 81.7769 41.3742 81.3879 41.2119C80.999 41.0495 80.5821 40.9667 80.1613 40.9682C79.7405 40.9697 79.3242 41.0554 78.9364 41.2205C78.5485 41.3856 78.1968 41.6267 77.9016 41.93L58.3675 61.6939Z" fill="#E12D2D"/>
<path d="M114.039 72.4837C114.208 72.1353 114.728 72.1184 114.932 72.4314L114.962 72.4837L115.483 73.5585C115.938 74.4966 116.694 75.2851 117.651 75.8185L117.812 75.9051L118.737 76.3818C118.811 76.4195 118.873 76.4735 118.918 76.5389C118.963 76.6042 118.989 76.6789 118.994 76.756C119 76.8331 118.984 76.9102 118.949 76.9803C118.913 77.0504 118.859 77.1112 118.792 77.1573L118.738 77.1894L117.812 77.666C116.836 78.1695 116.051 78.9341 115.561 79.8578L115.483 80.0127L114.962 81.0875C114.793 81.4358 114.272 81.4528 114.068 81.1398L114.039 81.0875L113.518 80.0127C113.063 79.0745 112.306 78.2861 111.349 77.7527L111.188 77.666L110.263 77.1894C110.19 77.1516 110.128 77.0976 110.083 77.0323C110.038 76.9669 110.011 76.8923 110.006 76.8152C110.001 76.7381 110.016 76.661 110.052 76.5909C110.087 76.5208 110.141 76.46 110.209 76.4139L110.263 76.3818L111.188 75.9051C112.165 75.4017 112.95 74.637 113.439 73.7134L113.518 73.5585L114.039 72.4837ZM118.611 72.2577C118.859 72.7746 119.282 73.2043 119.818 73.4833C119.898 73.5245 119.898 73.63 119.818 73.6712C119.282 73.9502 118.858 74.3802 118.61 74.8973C118.601 74.9167 118.585 74.9333 118.566 74.9448C118.546 74.9564 118.523 74.9626 118.5 74.9626C118.477 74.9626 118.454 74.9564 118.435 74.9448C118.415 74.9333 118.4 74.9167 118.39 74.8973C118.142 74.3803 117.718 73.9506 117.183 73.6717C117.165 73.6622 117.15 73.6485 117.139 73.632C117.129 73.6155 117.123 73.5968 117.123 73.5777C117.123 73.5586 117.129 73.5399 117.139 73.5234C117.15 73.5069 117.165 73.4932 117.183 73.4838C117.719 73.2046 118.142 72.7745 118.39 72.2573C118.4 72.2378 118.415 72.2213 118.435 72.2097C118.454 72.1981 118.477 72.1919 118.5 72.1919C118.523 72.1919 118.546 72.1981 118.566 72.2097C118.585 72.2213 118.601 72.2378 118.61 72.2573L118.611 72.2577Z" fill="#FFCE00"/>
<rect x="36" y="30.5" width="54" height="51" rx="16" fill="#E12D2D"/>
<path fill-rule="evenodd" clip-rule="evenodd" d="M58.7176 40.7155C59.2586 39.9041 60.1693 39.4167 61.1444 39.4167H63.8559C64.8311 39.4167 65.7417 39.9041 66.2827 40.7155L67.6043 42.698H73.0731C73.6771 42.698 74.1668 43.1877 74.1668 43.7917C74.1668 44.3958 73.6771 44.8855 73.0731 44.8855H51.9272C51.3232 44.8855 50.8335 44.3958 50.8335 43.7917C50.8335 43.1877 51.3232 42.698 51.9272 42.698H57.396L58.7176 40.7155ZM66.875 68.5834H58.125C54.9033 68.5834 52.2917 65.9717 52.2917 62.7501V46.7084H72.7083V62.7501C72.7083 65.9717 70.0967 68.5834 66.875 68.5834ZM59.5833 51.448C60.1874 51.448 60.6771 51.9377 60.6771 52.5417V62.7501C60.6771 63.3541 60.1874 63.8438 59.5833 63.8438C58.9793 63.8438 58.4896 63.3541 58.4896 62.7501L58.4896 52.5417C58.4896 51.9377 58.9793 51.448 59.5833 51.448ZM65.4167 51.448C66.0207 51.448 66.5104 51.9377 66.5104 52.5417V62.7501C66.5104 63.3541 66.0207 63.8438 65.4167 63.8438C64.8126 63.8438 64.3229 63.3541 64.3229 62.7501V52.5417C64.3229 51.9377 64.8126 51.448 65.4167 51.448Z" fill="white"/>
</svg>
