<svg width="328" height="340" viewBox="0 0 328 340" fill="none" xmlns="http://www.w3.org/2000/svg">
<rect x="233" width="86" height="86" rx="43" fill="url(#paint0_linear_115_2082)"/>
<path d="M318.663 176.274C318.663 261.616 249.48 330.799 164.138 330.799C78.7954 330.799 9.61193 261.616 9.61193 176.274C9.61193 90.9316 78.7954 21.7482 164.138 21.7482C249.48 21.7482 318.663 90.9316 318.663 176.274Z" fill="#131416" stroke="#FEDC31" stroke-width="1.49633"/>
<path d="M156.531 17.1682L156.521 17.1686L156.512 17.1691C72.117 21.1579 4.86328 88.3323 4.86328 176.274C4.86328 264.237 76.173 335.563 164.137 335.563C252.101 335.563 323.411 264.237 323.411 176.274C323.411 90.8578 256.185 21.1612 171.765 17.1692C169.217 17.0457 166.667 17 164.137 17C161.589 17 159.048 17.0614 156.531 17.1682Z" stroke="#FEDC31" stroke-width="8"/>
<rect x="241.718" y="8.55835" width="68" height="68" rx="34" fill="url(#paint1_linear_115_2082)"/>
<rect x="245.718" y="12.5583" width="60" height="60" rx="30" fill="url(#paint2_linear_115_2082)"/>
<path d="M275.718 69.5583C290.63 69.5583 302.718 57.47 302.718 42.5583C302.718 27.6467 290.63 15.5583 275.718 15.5583C260.807 15.5583 248.718 27.6467 248.718 42.5583C248.718 57.47 260.807 69.5583 275.718 69.5583Z" fill="#FFD540" stroke="black" stroke-width="2"/>
<g style="mix-blend-mode:hard-light">
<path d="M301.736 42.5583C301.736 56.9223 290.092 68.5765 275.718 68.5765C269.199 68.5765 263.239 66.1711 258.674 62.2143C262.797 64.4038 267.5 65.6311 272.488 65.6311C287.117 65.6311 299.272 55.0372 301.697 41.1052C301.727 41.5863 301.736 42.0674 301.736 42.5583Z" fill="#F15A24"/>
</g>
<g style="mix-blend-mode:soft-light">
<path d="M284.967 18.2387C283.72 18.111 282.453 18.0423 281.177 18.0423C268.011 18.0423 256.533 25.2783 250.524 35.9998C253.421 24.8071 263.602 16.5401 275.708 16.5401C278.968 16.5401 282.09 17.139 284.967 18.2387Z" fill="white"/>
</g>
<path d="M275.935 63.3926C287.322 63.3926 296.553 54.1615 296.553 42.7744C296.553 31.3872 287.322 22.1562 275.935 22.1562C264.547 22.1562 255.316 31.3872 255.316 42.7744C255.316 54.1615 264.547 63.3926 275.935 63.3926Z" fill="#DB3B3B" stroke="#FCEE21"/>
<path d="M293.155 53.2111C294.687 50.3736 295.551 47.1238 295.551 43.6678C295.551 32.5536 286.548 23.5405 275.424 23.5405C268.148 23.5405 261.776 27.399 258.242 33.182C261.649 26.9081 268.296 22.647 275.934 22.647C287.058 22.647 296.061 31.6601 296.061 42.7743C296.061 46.5936 295.001 50.1674 293.155 53.2111Z" fill="#EC9140"/>
<path d="M297.662 28.5772C281.658 35.8231 268.188 47.6834 258.949 62.45C253.294 57.6784 249.7 50.5307 249.7 42.5583C249.7 28.1845 261.354 16.5401 275.718 16.5401C284.948 16.5401 293.048 21.3314 297.662 28.5772Z" fill="url(#paint3_radial_115_2082)" style="mix-blend-mode:soft-light"/>
<defs>
<linearGradient id="paint0_linear_115_2082" x1="269.389" y1="48.1241" x2="306.969" y2="12.4043" gradientUnits="userSpaceOnUse">
<stop stop-color="#FEDC31"/>
<stop offset="1" stop-color="#FE6831"/>
</linearGradient>
<linearGradient id="paint1_linear_115_2082" x1="251.065" y1="59.1258" x2="300.205" y2="18.3664" gradientUnits="userSpaceOnUse">
<stop stop-color="#131615"/>
<stop offset="1" stop-color="#2C312F"/>
</linearGradient>
<linearGradient id="paint2_linear_115_2082" x1="257.663" y1="17.5153" x2="293.627" y2="60.8739" gradientUnits="userSpaceOnUse">
<stop stop-color="#131615"/>
<stop offset="1" stop-color="#2C312F"/>
</linearGradient>
<radialGradient id="paint3_radial_115_2082" cx="0" cy="0" r="1" gradientUnits="userSpaceOnUse" gradientTransform="translate(276.064 47.3156) rotate(-108.14) scale(34.6779 74.6238)">
<stop offset="0.416941" stop-color="white"/>
<stop offset="0.654304" stop-color="white" stop-opacity="0"/>
</radialGradient>
</defs>
</svg>
